<svg xmlns="http://www.w3.org/2000/svg" xmlns:xlink="http://www.w3.org/1999/xlink" viewBox="0 0 1920 580"><defs><style>.cls-1{isolation:isolate;}.cls-2{fill:url(#linear-gradient);}.cls-3{font-size:48px;font-family:Poppins-Bold, Poppins;font-weight:700;}.cls-3,.cls-5{fill:#fff;}.cls-4{font-size:24px;fill:#f2f2f2;font-family:Poppins-Regular, Poppins;}.cls-6{fill:url(#linear-gradient-2);}.cls-7{fill:url(#linear-gradient-3);}.cls-8{fill:url(#linear-gradient-4);}.cls-9{fill:url(#linear-gradient-5);}.cls-10{fill:url(#linear-gradient-6);}.cls-11{fill:url(#linear-gradient-7);}.cls-12{fill:url(#linear-gradient-8);}.cls-13{fill:url(#linear-gradient-9);}.cls-14{fill:url(#linear-gradient-10);}.cls-15{fill:#eaf9f8;}.cls-16{fill:#e03c03;}.cls-17{fill:#ff6224;}.cls-18{fill:#ffc947;}.cls-19{fill:#20c3c5;}.cls-20{fill:#383873;}.cls-21{fill:#86bfbc;}.cls-22{fill:#b8e3e2;}.cls-23{fill:#9fccc9;}.cls-24,.cls-33,.cls-34{fill:none;stroke:#000;strokeLinecap:round;stroke-miterlimit:10;strokeWidth:0.82px;}.cls-24,.cls-30{opacity:0.15;}.cls-24,.cls-27,.cls-30,.cls-32,.cls-35{mix-blend-mode:overlay;}.cls-25{fill:#382424;}.cls-26{fill:#ffad94;}.cls-27,.cls-32{opacity:0.25;}.cls-28{fill:#0c2059;}.cls-29{fill:#2e4780;}.cls-31{fill:#169799;}.cls-34{stroke-dasharray:4.16 4.16;}.cls-35{opacity:0.53;}</style><linearGradient id="linear-gradient" y1="290" x2="1920" y2="290" gradientUnits="userSpaceOnUse"><stop offset="0" stop-color="#9e005d"/><stop offset="1" stop-color="#662d91"/></linearGradient><linearGradient id="linear-gradient-2" x1="250.4" y1="383.38" x2="267.15" y2="383.38" gradientUnits="userSpaceOnUse"><stop offset="0" stop-color="#9e005d"/><stop offset="1" stop-color="#ad0078"/></linearGradient><linearGradient id="linear-gradient-3" x1="269.65" y1="383.4" x2="279.37" y2="383.4" xlink:href="#linear-gradient-2"/><linearGradient id="linear-gradient-4" x1="281.53" y1="383.42" x2="293.82" y2="383.42" xlink:href="#linear-gradient-2"/><linearGradient id="linear-gradient-5" x1="300.94" y1="383.4" x2="316.9" y2="383.4" xlink:href="#linear-gradient-2"/><linearGradient id="linear-gradient-6" x1="324.05" y1="384.77" x2="341.53" y2="384.77" xlink:href="#linear-gradient-2"/><linearGradient id="linear-gradient-7" x1="343.71" y1="383.5" x2="357.25" y2="383.5" xlink:href="#linear-gradient-2"/><linearGradient id="linear-gradient-8" x1="359.67" y1="383.38" x2="376.83" y2="383.38" xlink:href="#linear-gradient-2"/><linearGradient id="linear-gradient-9" x1="378.44" y1="383.42" x2="390.73" y2="383.42" xlink:href="#linear-gradient-2"/><linearGradient id="linear-gradient-10" x1="393.17" y1="383.4" x2="402.89" y2="383.4" xlink:href="#linear-gradient-2"/></defs><title>Artboard 3</title><g className="cls-1"><g id="Layer_1" data-name="Layer 1"><rect className="cls-2" width="1920" height="580"/><text className="cls-3" transform="translate(230.65 210.65)">PixelPerfect Software</text><text className="cls-4" transform="translate(230.65 280.53)">Delivering pixel-perfect software solutions with a strong emphasis on<tspan x="0" y="34.8">user experience, aesthetics, and intuitive design.</tspan></text><rect className="cls-5" x="230.65" y="359.27" width="192" height="51" rx="4"/><path className="cls-6" d="M262.88,380.08a4,4,0,0,0-1.58-1.61,4.84,4.84,0,0,0-2.36-.55,5.13,5.13,0,0,0-2.64.67,4.77,4.77,0,0,0-1.8,1.92,6.82,6.82,0,0,0,0,5.81,4.71,4.71,0,0,0,1.83,1.92,5.43,5.43,0,0,0,2.74.67,4.72,4.72,0,0,0,3.14-1,4.88,4.88,0,0,0,1.61-2.84h-5.76v-2.57h9.07v2.93a7.74,7.74,0,0,1-1.44,3.24,8.09,8.09,0,0,1-2.84,2.39,8.36,8.36,0,0,1-3.9.9,8.79,8.79,0,0,1-4.38-1.1,7.85,7.85,0,0,1-3.07-3,9.3,9.3,0,0,1,0-8.85,7.8,7.8,0,0,1,3.07-3,9.31,9.31,0,0,1,9.27.28,7,7,0,0,1,2.88,3.88Z"/><path className="cls-7" d="M273,377.75V382h5.64v2.67H273v4.44h6.36v2.73h-9.72V375h9.72v2.73Z"/><path className="cls-8" d="M293.82,375v2.71h-4.47v14H286v-14h-4.46V375Z"/><path className="cls-9" d="M312.25,388.6h-6.67l-1.11,3.19h-3.53L307,375h3.91l6,16.77h-3.55Zm-.91-2.69-2.43-7-2.42,7Z"/><path className="cls-10" d="M337.35,394.74l-2.54-3.05a8.95,8.95,0,0,1-6.48-.83,8.19,8.19,0,0,1-3.12-3.06,9,9,0,0,1,0-8.84,8.19,8.19,0,0,1,3.12-3.06,9.05,9.05,0,0,1,8.65,0,8.25,8.25,0,0,1,3.09,3.06,8.6,8.6,0,0,1,1.14,4.41,8.77,8.77,0,0,1-.94,4.07,8.37,8.37,0,0,1-2.58,3l3.84,4.32Zm-9.19-8.42a4.64,4.64,0,0,0,1.81,2,5.26,5.26,0,0,0,2.68.68,5.19,5.19,0,0,0,2.66-.68,4.69,4.69,0,0,0,1.8-2,6.44,6.44,0,0,0,.65-2.95,6.37,6.37,0,0,0-.65-2.94,4.55,4.55,0,0,0-1.8-1.93,5.19,5.19,0,0,0-2.66-.68,5.26,5.26,0,0,0-2.68.68,4.51,4.51,0,0,0-1.81,1.93,6.37,6.37,0,0,0-.65,2.94A6.44,6.44,0,0,0,328.16,386.32Z"/><path className="cls-11" d="M347.07,375v10.37A3.56,3.56,0,0,0,348,388a3.33,3.33,0,0,0,2.49.9A3.38,3.38,0,0,0,353,388a3.52,3.52,0,0,0,.89-2.6V375h3.39v10.34a6.67,6.67,0,0,1-.93,3.62,5.8,5.8,0,0,1-2.47,2.21,7.78,7.78,0,0,1-3.44.75,7.61,7.61,0,0,1-3.4-.75A5.59,5.59,0,0,1,344.6,389a6.94,6.94,0,0,1-.89-3.62V375Z"/><path className="cls-12" d="M363.94,390.86a8.33,8.33,0,0,1-3.12-3.06,9.07,9.07,0,0,1,0-8.84,8.33,8.33,0,0,1,3.12-3.06,9.05,9.05,0,0,1,8.65,0,8.2,8.2,0,0,1,3.1,3.06,9.14,9.14,0,0,1,0,8.84,8.23,8.23,0,0,1-3.11,3.06,9,9,0,0,1-8.64,0Zm7-2.58a4.82,4.82,0,0,0,1.8-2,6.44,6.44,0,0,0,.64-2.95,6.37,6.37,0,0,0-.64-2.94,4.67,4.67,0,0,0-1.8-1.93,5.58,5.58,0,0,0-5.34,0,4.59,4.59,0,0,0-1.82,1.93,6.37,6.37,0,0,0-.64,2.94,6.44,6.44,0,0,0,.64,2.95,4.73,4.73,0,0,0,1.82,2,5.58,5.58,0,0,0,5.34,0Z"/><path className="cls-13" d="M390.73,375v2.71h-4.47v14H382.9v-14h-4.46V375Z"/><path className="cls-14" d="M396.53,377.75V382h5.64v2.67h-5.64v4.44h6.36v2.73h-9.72V375h9.72v2.73Z"/><path className="cls-15" d="M1635.44,274.56c-28.4,42.52-89,174-74.1,222.83l-217.43.05s-31.41-23.39-61.93-64.06c-5.55-7.39-11.07-15.36-16.36-23.85a297.68,297.68,0,0,1-15.84-28.76c-14.15-29.45-24.25-63.59-24.66-101.32-1.42-130.61,111.62-252,265.41-203S1663.83,232,1635.44,274.56Z"/><path className="cls-16" d="M1499.4,498.93a1.5,1.5,0,0,1-1.17-.56l-116-144.16a1.5,1.5,0,0,1,2.33-1.88l116,144.17a1.49,1.49,0,0,1-.23,2.1A1.47,1.47,0,0,1,1499.4,498.93Z"/><path className="cls-17" d="M1319.54,498.93a1.5,1.5,0,0,1-1.17-2.43l116-144.17a1.5,1.5,0,0,1,2.33,1.88l-116,144.16A1.48,1.48,0,0,1,1319.54,498.93Z"/><path className="cls-17" d="M1435.49,498.93a1.5,1.5,0,0,1-1.17-.56l-116-144.16a1.5,1.5,0,0,1,2.33-1.88l116,144.17a1.49,1.49,0,0,1-.22,2.1A1.52,1.52,0,0,1,1435.49,498.93Z"/><path className="cls-16" d="M1340.08,357.1h-53.86a3.83,3.83,0,0,1-3.83-3.83h0a3.83,3.83,0,0,1,3.83-3.83h53.86a3.83,3.83,0,0,1,3.83,3.83h0A3.83,3.83,0,0,1,1340.08,357.1Z"/><path className="cls-17" d="M1495.08,357.1h-154a3.83,3.83,0,0,1-3.82-3.83h0a3.83,3.83,0,0,1,3.82-3.83h154Z"/><path className="cls-16" d="M1381.69,425.35a4.18,4.18,0,1,1-4.18-4.18A4.18,4.18,0,0,1,1381.69,425.35Z"/><path className="cls-18" d="M1445.6,425.35a4.18,4.18,0,1,1-4.18-4.18A4.18,4.18,0,0,1,1445.6,425.35Z"/><rect className="cls-19" x="1330.85" y="185.11" width="63.98" height="50.07" rx="3.99"/><path className="cls-5" d="M1376.72,207.22h-2a12.06,12.06,0,0,0-1.36-3.09l1.55-1.55a1.51,1.51,0,0,0,0-2.14l-2.18-2.18a1.51,1.51,0,0,0-2.14,0l-1.65,1.65a11.93,11.93,0,0,0-2.91-1.18v-2.47a1.52,1.52,0,0,0-1.52-1.51h-3.08a1.51,1.51,0,0,0-1.51,1.51v2.5a12.73,12.73,0,0,0-2.84,1.12l-1.8-1.8a1.51,1.51,0,0,0-2.14,0l-2.18,2.18a1.51,1.51,0,0,0,0,2.14l1.67,1.67a12.22,12.22,0,0,0-1.32,2.89H1349a1.51,1.51,0,0,0-1.51,1.51v3.09a1.51,1.51,0,0,0,1.51,1.51H1351a12,12,0,0,0,1.16,3.23l-1.41,1.41a1.51,1.51,0,0,0,0,2.14L1353,222a1.51,1.51,0,0,0,2.14,0l1.23-1.22a12.31,12.31,0,0,0,3.34,1.51V224a1.51,1.51,0,0,0,1.51,1.51h3.08a1.52,1.52,0,0,0,1.52-1.51v-1.6a12.3,12.3,0,0,0,3.46-1.39l1.18,1.17a1.51,1.51,0,0,0,2.14,0l2.18-2.18a1.51,1.51,0,0,0,0-2.14l-1.21-1.21a12.09,12.09,0,0,0,1.33-3.35h1.87a1.52,1.52,0,0,0,1.52-1.51v-3.09A1.52,1.52,0,0,0,1376.72,207.22Zm-12.23,11a7.78,7.78,0,1,1,6.11-6.11A7.78,7.78,0,0,1,1364.49,218.19Z"/><rect className="cls-17" x="1412.56" y="157.46" width="63.98" height="50.07" rx="3.99"/><path className="cls-5" d="M1433.75,190.9a1.41,1.41,0,0,1-1.06-.47l-6.74-7.21a1.66,1.66,0,0,1,0-2.26l6.85-7.34a1.44,1.44,0,0,1,2.12,0,1.69,1.69,0,0,1,0,2.26l-5.81,6.21,5.69,6.08a1.69,1.69,0,0,1,0,2.26A1.4,1.4,0,0,1,1433.75,190.9Z"/><path className="cls-5" d="M1455.35,190.9a1.42,1.42,0,0,1-1.06-.47,1.69,1.69,0,0,1,0-2.26l5.69-6.08-5.8-6.21a1.66,1.66,0,0,1,0-2.26,1.43,1.43,0,0,1,2.11,0l6.86,7.34a1.65,1.65,0,0,1,.44,1.13,1.67,1.67,0,0,1-.44,1.13l-6.75,7.21A1.4,1.4,0,0,1,1455.35,190.9Z"/><path className="cls-5" d="M1441.2,192.89a1.38,1.38,0,0,1-.56-.12,1.64,1.64,0,0,1-.82-2.09l6.69-17.59a1.46,1.46,0,0,1,2-.88,1.64,1.64,0,0,1,.82,2.08l-6.7,17.6A1.49,1.49,0,0,1,1441.2,192.89Z"/><path className="cls-5" d="M1387.68,211H1519a1.66,1.66,0,0,1,1.66,1.66v4.49a0,0,0,0,1,0,0H1386a0,0,0,0,1,0,0v-4.49A1.66,1.66,0,0,1,1387.68,211Z"/><path className="cls-20" d="M1386,217.14h134.66a0,0,0,0,1,0,0v68.7a3.09,3.09,0,0,1-3.09,3.09H1389.11a3.09,3.09,0,0,1-3.09-3.09v-68.7A0,0,0,0,1,1386,217.14Z"/><path className="cls-17" d="M1514.21,214.06a.95.95,0,1,1-1-.94A.94.94,0,0,1,1514.21,214.06Z"/><path className="cls-17" d="M1507.7,214.06a.95.95,0,1,1-.94-.94A.94.94,0,0,1,1507.7,214.06Z"/><path className="cls-17" d="M1501.19,214.06a.95.95,0,1,1-.94-.94A.94.94,0,0,1,1501.19,214.06Z"/><path className="cls-19" d="M1467.77,226.84H1393a1.3,1.3,0,0,1-1.3-1.3h0a1.3,1.3,0,0,1,1.3-1.3h74.77a1.3,1.3,0,0,1,1.3,1.3h0A1.3,1.3,0,0,1,1467.77,226.84Z"/><path className="cls-19" d="M1467.77,235.12H1393a1.3,1.3,0,0,1-1.3-1.3h0a1.3,1.3,0,0,1,1.3-1.3h74.77a1.3,1.3,0,0,1,1.3,1.3h0A1.3,1.3,0,0,1,1467.77,235.12Z"/><path className="cls-19" d="M1432.1,243.41H1393a1.3,1.3,0,0,1-1.3-1.3h0a1.31,1.31,0,0,1,1.3-1.31h39.1a1.31,1.31,0,0,1,1.3,1.31h0A1.3,1.3,0,0,1,1432.1,243.41Z"/><path className="cls-17" d="M1467.77,260H1393a1.3,1.3,0,0,1-1.3-1.3h0a1.3,1.3,0,0,1,1.3-1.3h74.77a1.3,1.3,0,0,1,1.3,1.3h0A1.3,1.3,0,0,1,1467.77,260Z"/><path className="cls-17" d="M1432.1,268.25H1393a1.3,1.3,0,0,1-1.3-1.3h0a1.3,1.3,0,0,1,1.3-1.3h39.1a1.3,1.3,0,0,1,1.3,1.3h0A1.3,1.3,0,0,1,1432.1,268.25Z"/><path className="cls-19" d="M1432.1,276.53H1393a1.3,1.3,0,0,1-1.3-1.3h0a1.3,1.3,0,0,1,1.3-1.3h39.1a1.3,1.3,0,0,1,1.3,1.3h0A1.3,1.3,0,0,1,1432.1,276.53Z"/><path className="cls-5" d="M1467.77,243.41h-28.1a1.3,1.3,0,0,1-1.3-1.3h0a1.31,1.31,0,0,1,1.3-1.31h28.1a1.31,1.31,0,0,1,1.3,1.31h0A1.3,1.3,0,0,1,1467.77,243.41Z"/><path className="cls-17" d="M1504.89,224.81,1485,244.68a1.3,1.3,0,0,1-1.84,0h0a1.3,1.3,0,0,1,0-1.84L1503.05,223a1.3,1.3,0,0,1,1.84,0h0A1.3,1.3,0,0,1,1504.89,224.81Z"/><circle className="cls-17" cx="1494.03" cy="262.4" r="11.72" transform="translate(894.04 1655.59) rotate(-76.66)"/><path className="cls-19" d="M1492.5,270.56a6.64,6.64,0,1,1-6.63-6.63A6.63,6.63,0,0,1,1492.5,270.56Z"/><polyline className="cls-20" points="1386.02 281.67 1386.02 305.36 1407.79 283.58"/><polygon className="cls-21" points="1362.84 311.76 1410.61 311.76 1427.88 345 1380.12 345 1362.84 311.76"/><path className="cls-5" d="M1381.08,342.55,1366.78,315a.87.87,0,0,1,.77-1.27h41.32a.86.86,0,0,1,.77.47L1424,341.75a.86.86,0,0,1-.77,1.26h-41.33A.88.88,0,0,1,1381.08,342.55Z"/><rect className="cls-22" x="1380.12" y="345.01" width="38.69" height="4.44"/><path className="cls-23" d="M1452,345h-38.17a2.21,2.21,0,0,0-2.22,2.21h0a2.21,2.21,0,0,0,2.22,2.22H1452a2.21,2.21,0,0,0,2.22-2.22h0A2.21,2.21,0,0,0,1452,345Z"/><path className="cls-22" d="M1380.12,345l-17.28-33.25-.86.65a1.42,1.42,0,0,0-.41,1.8l18.55,35.23Z"/><rect className="cls-23" x="1393.25" y="347.08" width="4.26" height="0.74"/><rect className="cls-23" x="1398.6" y="347.08" width="4.26" height="0.74"/><rect className="cls-23" x="1403.96" y="347.08" width="4.26" height="0.74"/><path className="cls-20" d="M1467.21,410.08s-39.63,30.85-45.91,38.69c-2.37,3-6.5,8.16-10.79,13.49-7,8.75-14.49,17.87-15.37,18.09-1.42.36-13.31-8.69-13.66-10.64-.22-1.22,10.6-19.8,20-34.74,5.71-9.08,10.87-16.83,12.68-18.5,4.79-4.44,34.26-20.05,34.26-20.05Z"/><path className="cls-24" d="M1391.59,473.77s37-52.69,55.6-61.56"/><path className="cls-25" d="M1508.5,274.79c-.42.95-.89,1.95-1.43,3-2.9,5.54-.76,11.09-4.07,12.5a3.42,3.42,0,0,1-.66.21c-4.26,1-14.08-4.73-14.51-7.57s3-7.69,0-8.28-4.66,4.5-4.66,4.5c-2.49.26-3.38-3.91-7.46-3.91a7.24,7.24,0,0,0-1.69.21,13.84,13.84,0,0,0-5.94,3.78,8.1,8.1,0,0,1-3.46-6.83c.29-7.18,2.93-12.42,9.32-13.49.7-8,7.28-12.24,16.06-12.51,7.7-.24,8.85,6.68,9,8.4-.07-1.28-.43-5.51-2.26-8.4,3.85-.17,7.25,2.58,6.36,11.54.89-2.67,4-4.35,6.39-2.4-2.21,0-4.34,3.72-4.34,3.72a15.23,15.23,0,0,1,4.37,4.74C1511,266.5,1510.46,270.26,1508.5,274.79Z"/><path className="cls-26" d="M1503,290.25l-.09,1.32-.34,4.66s-7.09,6.06-11.12,0a.94.94,0,0,0-.09-.12c-1.24-1.85-2.37-2.5-3.39-2.62-2.22-.27-4,1.9-5.87-.45a45.1,45.1,0,0,1-8.08-17.63,7.24,7.24,0,0,1,1.69-.21c4.08,0,5,4.17,7.46,3.91,0,0,1.63-5.09,4.66-4.5s-.43,5.45,0,8.28c.19,1.27,2.25,3.1,4.86,4.65,3,1.83,6.82,3.27,9.22,3l.43-.07A3.42,3.42,0,0,0,1503,290.25Z"/><path className="cls-27" d="M1504.11,298.93c-3.2,2.18-9,2.54-9,2.54l-4.79-.71s-2-2.91-1.07-4.53a5.66,5.66,0,0,1,1.27-1.28,34.09,34.09,0,0,1,5.49-3.52,17.61,17.61,0,0,1,6.14-2.15C1506.12,289.05,1507.31,296.74,1504.11,298.93Z"/><path className="cls-19" d="M1503.16,376.6c-7.13,1.37-22.21-2.83-29.43-6.08-2.13-.95-3.59-1.83-3.94-2.45-1.38-2.43,0-4.31,3.45-12.05q.59-1.32,1.23-2.85c2.34-5.49,2.35-17.19,2.34-27.28,0-8.63-.07-16.08,1.3-17.4,3-2.87,17.83-12.26,17.83-12.26l3,15.41s1.68,7.83,3.44,18.05C1505.58,348.5,1509.15,375.44,1503.16,376.6Z"/><path className="cls-20" d="M1508.13,383.46c0,.71-7.1,17.27-13.05,19.64s-41.85-.24-41.85-.24l-17.74,11.6,3.71,35,2.59,24.36.08.79c-5.43,3.54-19.1,4.5-20.57,1.44v0c-1.43-3.08-23.19-68.62-14.67-80s63.17-27.93,63.17-27.93a29.63,29.63,0,0,0,4.88,2.45c6.08,2.49,13.8,4.06,19.67,5,2.26.35,4.24.61,5.76.79,1.91.23,3.06.32,3.06.32S1508.13,382.74,1508.13,383.46Z"/><path className="cls-28" d="M1444.12,497.39H1398a2.72,2.72,0,0,1,.77-2.48c1.88-2.25,6.57-4.51,11.09-6.46,4.29-1.85,8.41-3.45,9.8-4.54,3.25-2.58,1.75-7.6,1.66-7.91.5,1,2.38,1.6,4.87,1.77,4.89.35,12.11-.86,15.7-3.21l-.08-.79c1.38,2.63,2,15.62,2.24,21.14C1444.09,496.43,1444.12,497.39,1444.12,497.39Z"/><path className="cls-29" d="M1426.17,477.77c-.14,2.2-.46,5.77-1.1,6.72-.94,1.43-11.12,6.4-12.53,5.92a8.29,8.29,0,0,1-2.7-2c4.29-1.85,8.41-3.45,9.8-4.54,3.25-2.58,1.75-7.6,1.66-7.91C1421.8,477,1423.68,477.6,1426.17,477.77Z"/><path className="cls-29" d="M1444.12,497.39H1398a2.72,2.72,0,0,1,.77-2.48H1444C1444.09,496.43,1444.12,497.39,1444.12,497.39Z"/><path className="cls-28" d="M1395.14,480.35s-3.51,9.24-6.54,14.13c-1.21,1.95-2.35,3.22-3.16,2.91-2.84-1.06-31.36-25.31-28.63-27.09a4.76,4.76,0,0,1,1.83-.53c2.48-.32,6.59,0,10.4.42,3.26.33,6.3.7,7.89.7,4,0,4.55-1.18,4.55-1.18a7.23,7.23,0,0,0,2,2.43C1387,475.48,1394.06,480.62,1395.14,480.35Z"/><path className="cls-29" d="M1383.45,472.14c-6,4-12.35,1.59-13.59.67a2.72,2.72,0,0,1-.82-2.62c3.26.33,6.3.7,7.89.7,4,0,4.55-1.18,4.55-1.18A7.23,7.23,0,0,0,1383.45,472.14Z"/><path className="cls-29" d="M1388.6,494.48c-1.21,1.95-2.35,3.22-3.16,2.91-2.84-1.06-31.36-25.31-28.63-27.09a4.76,4.76,0,0,1,1.83-.53Z"/><path className="cls-26" d="M1473.75,346.4c-2.23,3.1-6.23,7.84-9.51,7.37l-.41-.07c-6.27-1.11-43.17-10.36-44.91-10.71s-14.19-.47-13.48-1.77,7.8-5.44,9.69-5.34,9.36,2.26,16.8,2,27,0,27,0l.95-1.63,1.39-2.41C1460.86,341.09,1469.58,347,1473.75,346.4Z"/><path className="cls-24" d="M1473.75,373.34s-1.7,9.05,4.92,12.07"/><path className="cls-24" d="M1470.27,380.62s-43.83,18.69-45.93,24.49,11.15,68.66,11.15,68.66"/><path className="cls-30" d="M1508.13,383.46c0,.71-7.1,17.27-13.05,19.64s-41.85-.24-41.85-.24l-17.74,11.6,3.71,35s-7.5-39.92-7.5-42.53c0-2.23,49.58-16.48,62.64-31.39,5.12.81,8.82,1.11,8.82,1.11S1508.13,382.74,1508.13,383.46Z"/><path className="cls-27" d="M1484.76,341.1c-3.08,4.36-8,9.9-11.52,14.92q.59-1.32,1.23-2.85c2.34-5.49,2.35-17.19,2.34-27.28l10.62-7S1489.73,334.06,1484.76,341.1Z"/><path className="cls-31" d="M1475.69,345.05c-.46.42-.93.84-1.39,1.23a2.33,2.33,0,0,1-.55.12c-4.17.58-12.89-5.31-12.5-12.54a10.53,10.53,0,0,1,1.16-3c3.56-7.19,14.29-23.19,16.26-22.45,0,0,6.89,1.06,8.76,10.47C1489.18,327.69,1482.86,338.41,1475.69,345.05Z"/><path className="cls-27" d="M1500.1,376.28c-1.52-.18-3.5-.44-5.76-.79-5.87-.91-13.59-2.48-19.67-5,5.36-.18,16.82-3.71,18.21-29.95a126.55,126.55,0,0,0,2.89,15.21A209.19,209.19,0,0,1,1500.1,376.28Z"/><path className="cls-27" d="M1497.27,289.72a18.41,18.41,0,0,0-1.31,1.71,34.09,34.09,0,0,0-5.49,3.52,4,4,0,0,0-2.5-1.46l4.72-5.95A24.9,24.9,0,0,0,1497.27,289.72Z"/><path className="cls-27" d="M1473.75,346.4c-2.23,3.1-6.23,7.84-9.51,7.37l-.41-.07c-4.06-5.88-4.21-13.58-4-17.43l1.39-2.41C1460.86,341.09,1469.58,347,1473.75,346.4Z"/><path className="cls-27" d="M1508.5,274.79c-.42.95-.89,1.95-1.43,3a19.82,19.82,0,0,0-1.86,7.67,14.45,14.45,0,0,0-1.46-1,25.68,25.68,0,0,0-6.48,5.29h0c-4.34-1.55-9.13-4.87-9.43-6.84-.43-2.83,3-7.69,0-8.28s-4.66,4.5-4.66,4.5c-2.49.26-3.38-3.91-7.46-3.91a7.24,7.24,0,0,0-1.69.21,12.1,12.1,0,0,0-4.68,2.58s4.6-6.46,11.82-5.15c0,0-1.06-2-5.92-1.78,10.18-3.31,16.68-2,19.82,1.66C1497.62,275.71,1503.62,279.42,1508.5,274.79Z"/><path className="cls-22" d="M1529.19,414.46h-35.5s28.17-8.29,28.17-64.13c0-.72,0-1.42,0-2.13-.29-37.32-8.27-57.91-18.1-63.77a42.4,42.4,0,0,1,12.58-4.77,65.62,65.62,0,0,1,7.84-1.27c24.3-2.48,43.72,7.05,46,17.84S1558.29,414.46,1529.19,414.46Z"/><path className="cls-21" d="M1521.86,350.33c0,55.84-28.17,64.13-28.17,64.13h-58.2l2.42-1.72,15.32-9.88,30.76-2.13c1.66-6.86,6.16-7.09,13-7.81,4-.41,4.38-7.15,3.17-16.06a204.69,204.69,0,0,0-4.41-21.08,126.55,126.55,0,0,1-2.89-15.21,132.62,132.62,0,0,1-1.11-16.4,138.89,138.89,0,0,1,2.86-29.1c.14-.7.29-1.38.44-2,0,0,0-.05,0-.07a14.2,14.2,0,0,1,2.18-3.24h0a25.68,25.68,0,0,1,6.48-5.29,14.45,14.45,0,0,1,1.46,1c9.15,7,16.36,27.32,16.64,62.78C1521.86,348.91,1521.86,349.61,1521.86,350.33Z"/><path className="cls-22" d="M1510.62,497.39h-41.9a1.51,1.51,0,0,1-.93-2.7l10.49-8.2a19.25,19.25,0,0,0,7.37-15.14V414.46h8v56.89a19.23,19.23,0,0,0,7.38,15.14l10.48,8.2A1.51,1.51,0,0,1,1510.62,497.39Z"/><g className="cls-32"><path className="cls-33" d="M1542.58,280.54s.25.64.67,1.92"/><path className="cls-34" d="M1544.45,286.45a189.58,189.58,0,0,1,5.09,26.26c3.84,29.62-.12,71.3-26.24,97.4"/><path className="cls-33" d="M1521.8,411.56c-.49.47-1,.93-1.5,1.39"/></g><path className="cls-30" d="M1493.69,414.46V430a55.88,55.88,0,0,1-8,3.39V414.46Z"/><path className="cls-30" d="M1504.82,390.32c-1.89,5.92-13.71,4.86-15.15,9.23-3,9.29-4.73,5.2-16.43,6.39-6.69.67-11.55,5-14.48,8.52h-23.27l2.42-1.72,15.32-9.88,30.76-2.13c1.66-6.86,6.16-7.09,13-7.81,4-.41,4.38-7.15,3.17-16.06a204.69,204.69,0,0,0-4.41-21.08,126.55,126.55,0,0,1-2.89-15.21,132.62,132.62,0,0,1-1.11-16.4C1496.32,347.89,1506.22,385.94,1504.82,390.32Z"/><path className="cls-30" d="M1521.86,350.33c0-.72,0-1.42,0-2.13-.29-37.32-8.27-57.91-18.1-63.77a42.4,42.4,0,0,1,12.58-4.77c-1.62,2.34-3.32,5.85-2.52,9.61,1.42,6.64,17.52,32.19,11.36,73.13-4.44,29.53-3,44.9,1.67,52.06h-33.15S1521.86,406.17,1521.86,350.33Z"/><path className="cls-27" d="M1318.74,319.91a18.16,18.16,0,0,1-.38,3.6h-11.42a35.65,35.65,0,0,1-12.12-13.26c3.06,3.32,8.28,7.38,13.59,8.61C1313.05,319.94,1316.51,319.48,1318.74,319.91Z"/><path className="cls-19" d="M1345.27,274.56c-1.28,4.63-7.12,13.61-12.46,23.23-5.83,10.5-11,21.74-9,28.88a15.8,15.8,0,0,1,.74,4.05c0,3.11-2.34,2.14-4.72.38a43.15,43.15,0,0,1-4.89-4.43l.18-13.84s-7.85-7.21-1.41-23c.41-1,.88-2,1.41-3.1,8.87-17.93,22.17-36.74,9.58-42.07C1342.08,243.61,1347.94,264.87,1345.27,274.56Z"/><g className="cls-35"><path d="M1324.69,244.67a12.91,12.91,0,0,1,7.88,5.69,17.87,17.87,0,0,1,1.22,2.18c.16.38.3.78.45,1.16a8.32,8.32,0,0,1,.4,1.19,18.28,18.28,0,0,1,.58,2.43l.21,1.23c0,.42.06.83.08,1.25a20.57,20.57,0,0,1-.75,4.94,49.62,49.62,0,0,1-1.51,4.76c-1.16,3.11-2.51,6.16-3.89,9.18-2.78,6-5.77,12-8.42,18a84.24,84.24,0,0,0-3.49,9.27,30.92,30.92,0,0,0-1,4.8,10.33,10.33,0,0,0,.32,4.74h0a.39.39,0,0,1-.25.52.4.4,0,0,1-.52-.25h0a11.11,11.11,0,0,1-.31-5.11,30.94,30.94,0,0,1,1.11-4.91,84.75,84.75,0,0,1,3.62-9.32c2.72-6.07,5.77-12,8.61-18,1.41-3,2.78-6,4-9.11a46.31,46.31,0,0,0,1.55-4.71,19.81,19.81,0,0,0,.79-4.88c0-.41,0-.82-.06-1.23l-.2-1.22a16.93,16.93,0,0,0-.55-2.42,7.36,7.36,0,0,0-.38-1.18c-.15-.38-.28-.77-.44-1.16a18.22,18.22,0,0,0-1.18-2.17A12.89,12.89,0,0,0,1324.69,244.67Z"/></g><path className="cls-31" d="M1337.28,302.53c-5.32,14,0,24.66-8,26.17-3.66.7-5.27-2-5.94-5.16a28.31,28.31,0,0,1-.27-8.05,27.45,27.45,0,0,1,4.2-6.84A16.92,16.92,0,0,1,1337.28,302.53Z"/><path className="cls-22" d="M1318.74,319.91c0,3.26-.77,6-2.28,7.49a4.74,4.74,0,0,1-.44.38c-3.77,3.06-6.18-2.53-6.18-2.53s-10-4.95-15-15c-3.81-7.72-4.66-18.45,4.31-32.26,1.32,9.83,6.7,16.52,12,22.88h0c.67.79,1.33,1.57,2,2.36C1316.85,307.67,1318.79,314.48,1318.74,319.91Z"/><g className="cls-35"><path d="M1299.13,278a43.73,43.73,0,0,0-.7,12.86,27.79,27.79,0,0,0,3.93,12.14c2.23,3.68,5.32,6.72,8.12,10a24.58,24.58,0,0,1,3.66,5.42,12.72,12.72,0,0,1,1.19,6.49.41.41,0,0,1-.81-.07h0a12,12,0,0,0-1-6.11,24,24,0,0,0-3.48-5.33c-2.72-3.31-5.8-6.43-8-10.2a28,28,0,0,1-3.78-12.33A43.86,43.86,0,0,1,1299.13,278Z"/></g><g className="cls-32"><path d="M1337.29,302.53c-1.53,1.76-3,3.61-4.32,5.5s-2.65,3.83-3.81,5.84a36.68,36.68,0,0,0-5,12.85v0a.4.4,0,0,1-.46.34.41.41,0,0,1-.35-.46h0a37.24,37.24,0,0,1,5.42-12.95c1.23-2,2.58-3.9,4-5.76S1335.7,304.24,1337.29,302.53Z"/></g><path className="cls-22" d="M1334.06,327l-3.41,20.91a1.86,1.86,0,0,1-1.83,1.51H1307.6a1.87,1.87,0,0,1-1.84-1.51L1303,331l-.64-3.93a1.86,1.86,0,0,1,1.83-2.2h28A1.87,1.87,0,0,1,1334.06,327Z"/><path className="cls-21" d="M1337.28,331.28h-38.15l1-5.7a2.52,2.52,0,0,1,2.47-2.07h31.21a2.52,2.52,0,0,1,2.46,2.07Z"/><path className="cls-27" d="M1323.09,315.49a28.32,28.32,0,0,0,.26,8h-5a18.16,18.16,0,0,0,.38-3.6c0-5.43-1.89-12.24-5.59-16.67-.65-.79-1.31-1.57-2-2.36h0a31.57,31.57,0,0,1,2.53-11c.29,5,1.53,13.78,6.54,14.7,3.82.7,8.79-3.08,12.57-6.75-2,3.6-3.92,7.28-5.52,10.86A27.45,27.45,0,0,0,1323.09,315.49Z"/><path className="cls-27" d="M1320.26,349.44H1307.6a1.87,1.87,0,0,1-1.84-1.51l-2.71-16.65H1314a31.38,31.38,0,0,0,.23,10.06A15,15,0,0,0,1320.26,349.44Z"/><rect className="cls-20" x="1357.1" y="127.13" width="63.98" height="50.07" rx="3.99"/><path className="cls-5" d="M1372,144.84v5.38a.78.78,0,0,0,.78.79h3a.78.78,0,0,0,.78-.79v-5.38a.78.78,0,0,1,.78-.79h.29a.78.78,0,0,1,.78.79v14.64a.78.78,0,0,1-.78.79h-.29a.78.78,0,0,1-.78-.79v-6a.78.78,0,0,0-.78-.78h-3a.78.78,0,0,0-.78.78v6a.78.78,0,0,1-.78.79h-.29a.79.79,0,0,1-.79-.79V144.84a.79.79,0,0,1,.79-.79h.29A.78.78,0,0,1,1372,144.84Z"/><path className="cls-5" d="M1382.4,145.71H1381a.78.78,0,0,1-.78-.78v-.09a.78.78,0,0,1,.78-.79h6.21a.78.78,0,0,1,.78.79v.09a.78.78,0,0,1-.78.78h-1.4a.78.78,0,0,0-.78.79v13a.78.78,0,0,1-.78.79H1384a.78.78,0,0,1-.78-.79v-13A.78.78,0,0,0,1382.4,145.71Z"/><path className="cls-5" d="M1399.51,153.29c-.12-2.14-.24-4.52-.17-6.35h-.1c-.36,1.8-.79,3.73-1.3,5.63l-2,7.6h-1.18l-1.9-7.29c-.53-2.07-1-4.06-1.32-5.94h-.08c0,1.9-.09,4.16-.19,6.47l-.28,6.11a.78.78,0,0,1-.78.75h-.08a.78.78,0,0,1-.78-.83l.87-14.65a.78.78,0,0,1,.78-.74h.65a.79.79,0,0,1,.76.59l1.75,6.82c.55,2.14,1,3.73,1.3,5.58h.07c.31-1.85.67-3.39,1.2-5.58l1.68-6.81a.79.79,0,0,1,.76-.6h.72a.79.79,0,0,1,.78.74l.85,14.65a.79.79,0,0,1-.78.83h-.16a.78.78,0,0,1-.78-.75Z"/><path className="cls-5" d="M1404.88,144.05h.29a.78.78,0,0,1,.78.79v13.08a.78.78,0,0,0,.78.78h3a.78.78,0,0,1,.78.78h0a.78.78,0,0,1-.78.79h-4.86a.78.78,0,0,1-.78-.79V144.84A.78.78,0,0,1,1404.88,144.05Z"/><path className="cls-20" d="M1441,131.42a2.3,2.3,0,0,0,2.51-2.59,27.13,27.13,0,0,0-.23-3.14,31.28,31.28,0,0,1-.22-3.25c0-3.32,2-4.72,4.66-4.72h.44v1.92h-.56c-1.55,0-2.17,1.11-2.17,2.77a22.24,22.24,0,0,0,.22,2.8c.07,1,.18,1.85.18,2.74,0,2.88-1,3.87-2.55,4.32v.07c1.59.48,2.59,1.48,2.55,4.39,0,.93-.11,1.85-.18,2.77a23.69,23.69,0,0,0-.22,2.85c0,1.66.55,2.8,2.21,2.8h.52v1.92h-.48c-2.44,0-4.62-1.22-4.62-4.72a32.26,32.26,0,0,1,.22-3.29,28.85,28.85,0,0,0,.23-3.18,2.33,2.33,0,0,0-2.51-2.62Z"/><path className="cls-20" d="M1478.61,133.26a2.34,2.34,0,0,0-2.52,2.62,31.52,31.52,0,0,0,.23,3.18,32.26,32.26,0,0,1,.22,3.29c0,3.5-2.18,4.72-4.62,4.72h-.48v-1.92h.52c1.66-.18,2.21-1.14,2.21-2.8,0-1-.11-1.92-.18-2.85a23.32,23.32,0,0,1-.22-2.77c0-2.91,1-3.91,2.55-4.39v-.07c-1.59-.45-2.59-1.44-2.55-4.32a24.22,24.22,0,0,1,.22-2.74c.07-.88.18-1.81.18-2.8,0-1.66-.62-2.59-2.17-2.77h-.56v-1.92h.45c2.62,0,4.65,1.4,4.65,4.72a31.28,31.28,0,0,1-.22,3.25,29.55,29.55,0,0,0-.23,3.14,2.3,2.3,0,0,0,2.52,2.59Z"/><polygon className="cls-17" points="1465.94 135.95 1465.94 128.84 1459.79 125.29 1453.63 128.84 1453.63 135.95 1459.79 139.5 1465.94 135.95"/><path className="cls-17" d="M1512.21,171.33a15,15,0,0,0-17.9,23.4l-2.25-.27a.5.5,0,0,0-.55.44.49.49,0,0,0,.43.55l3.44.41a.47.47,0,0,0,.36-.1.53.53,0,0,0,.19-.34l.39-3.32a.49.49,0,0,0-.43-.55.51.51,0,0,0-.56.43l-.25,2.12a14,14,0,0,1,16.69-21.87.5.5,0,1,0,.44-.9Z"/><path className="cls-17" d="M1499.29,198.89a15,15,0,0,0,17.9-23.4l2.25.27a.5.5,0,0,0,.12-1l-3.44-.41a.52.52,0,0,0-.36.11.51.51,0,0,0-.19.33l-.39,3.32a.5.5,0,0,0,.43.56.5.5,0,0,0,.55-.44l.26-2.12A14,14,0,0,1,1499.73,198a.51.51,0,0,0-.67.22A.5.5,0,0,0,1499.29,198.89Z"/><path className="cls-17" d="M1632.46,226.84h-90.12a3,3,0,0,1-3-3h0a3,3,0,0,1,3-3h90.12a3,3,0,0,1,3,3h0A3,3,0,0,1,1632.46,226.84Z"/><path className="cls-19" d="M1600.28,239.77h-57.94a3,3,0,0,1-3-3h0a3,3,0,0,1,3-3h57.94a3,3,0,0,1,3,3h0A3,3,0,0,1,1600.28,239.77Z"/><path className="cls-19" d="M1600.28,253.65h-57.94a3,3,0,0,1-3-3h0a3,3,0,0,1,3-3h57.94a3,3,0,0,1,3,3h0A3,3,0,0,1,1600.28,253.65Z"/><path className="cls-19" d="M1312.91,177.42H1266.1a3,3,0,0,1-3-3h0a3,3,0,0,1,3-3h46.81a3,3,0,0,1,3,3h0A3,3,0,0,1,1312.91,177.42Z"/><path className="cls-17" d="M1295.24,190.35H1266.1a3,3,0,0,1-3-3h0a3,3,0,0,1,3-3h29.14a3,3,0,0,1,3,3h0A3,3,0,0,1,1295.24,190.35Z"/><path className="cls-17" d="M1295.24,204.23H1266.1a3,3,0,0,1-3-3h0a3,3,0,0,1,3-3h29.14a3,3,0,0,1,3,3h0A3,3,0,0,1,1295.24,204.23Z"/><path className="cls-31" d="M1591.86,393a145.22,145.22,0,0,1-10,22.52c-12.59,23-27.22,37.66-27.77,59.12a128.55,128.55,0,0,1-.9-43.25c2-12.94,6.67-26.76,16.12-38.39,26.3-32.34,22.4-61.76,22.4-61.76S1604.85,355.41,1591.86,393Z"/><g className="cls-32"><path d="M1561,449.49a33.07,33.07,0,0,1,0-7.89,49.2,49.2,0,0,1,1.4-7.72,72.57,72.57,0,0,1,5.59-14.61c.58-1.16,1.16-2.33,1.83-3.45s1.28-2.28,2-3.38l4.24-6.54a91,91,0,0,0,6.88-13.88,134,134,0,0,0,4.91-14.74q2.07-7.5,3.38-15.18a138.26,138.26,0,0,0,1.85-15.45,74.57,74.57,0,0,0,.1-7.77,33.33,33.33,0,0,0-.36-3.87,12.08,12.08,0,0,0-1.06-3.73,12.39,12.39,0,0,1,1.11,3.72,36,36,0,0,1,.42,3.87,75.16,75.16,0,0,1,0,7.8,132.16,132.16,0,0,1-1.69,15.49q-1.26,7.69-3.25,15.25a135.94,135.94,0,0,1-4.8,14.85,92,92,0,0,1-6.82,14.05l-4.2,6.56c-.69,1.1-1.29,2.24-1.94,3.36s-1.24,2.27-1.82,3.42a72.76,72.76,0,0,0-5.49,14.45,52.75,52.75,0,0,0-1.38,7.59,32.1,32.1,0,0,0,0,7.65v0a.41.41,0,1,1-.81.12Z"/></g><path className="cls-27" d="M1581.81,415.56c-12.59,23-27.22,37.66-27.77,59.12a128.55,128.55,0,0,1-.9-43.25C1561.31,428.09,1572.79,422.66,1581.81,415.56Z"/><path className="cls-19" d="M1561.34,497.39s-9.2-15.72,12.57-35.13,38.81-45.08,35.5-65.84c-20.83,24.19-76.2,58.49-60.58,101Z"/><g className="cls-32"><path d="M1609.41,396.42a70.66,70.66,0,0,1-7.87,12.83,110.49,110.49,0,0,1-9.92,11.37c-3.52,3.6-7.4,6.82-11.25,10.05a66.72,66.72,0,0,0-5.47,5.16,74,74,0,0,0-4.93,5.68A81.84,81.84,0,0,0,1556,468a57.32,57.32,0,0,0-2.55,14.73,33.84,33.84,0,0,0,2.47,14.58.41.41,0,1,1-.75.33h0a34.71,34.71,0,0,1-2.44-14.93,58.32,58.32,0,0,1,2.68-14.89,82,82,0,0,1,14.21-26.52,72.9,72.9,0,0,1,5-5.68,70.8,70.8,0,0,1,5.53-5.15,148.57,148.57,0,0,0,11.31-10,111.44,111.44,0,0,0,10-11.28A71.35,71.35,0,0,0,1609.41,396.42Z"/></g><path className="cls-31" d="M1248.91,383.46s-11.36-10.35-17.4-36.24c34.79,29.49,43.31,55.76,43.31,55.76Z"/><g className="cls-32"><path d="M1231.51,347.22q7.24,10.41,14.14,21,3.45,5.31,6.72,10.75a111.38,111.38,0,0,1,6.06,11.18.41.41,0,0,1-.75.33h0a111,111,0,0,0-5.82-11.19c-2.12-3.65-4.31-7.26-6.54-10.84Q1238.59,357.74,1231.51,347.22Z"/></g><path className="cls-19" d="M1274.11,398c-6.26-5.64-15.52-11.22-24.33-17.24-11.72-8-22.64-16.78-24.67-27.5-4.6,38.7,40.42,56.13,40.42,56.13l.09.13L1282,433.38S1288.66,411.14,1274.11,398Z"/><g className="cls-32"><path d="M1225.11,353.27a30.12,30.12,0,0,0,3.09,12.41,38.14,38.14,0,0,0,7.52,10.38,63.63,63.63,0,0,0,10.19,7.84c3.6,2.35,7.26,4.62,10.81,7.05,7.1,4.83,13.89,10.46,18.64,17.76a44.63,44.63,0,0,1,7,24.67.4.4,0,0,1-.4.41.41.41,0,0,1-.41-.41h0a43.88,43.88,0,0,0-6.73-24.33c-4.62-7.24-11.31-12.89-18.35-17.76-3.53-2.45-7.17-4.75-10.75-7.13a63.56,63.56,0,0,1-10.17-8,38.29,38.29,0,0,1-7.46-10.48A30,30,0,0,1,1225.11,353.27Z"/></g><path className="cls-15" d="M1594.62,514.67H1292.14a8.63,8.63,0,0,1-8.63-8.64h0a8.63,8.63,0,0,1,8.63-8.64h302.48a8.64,8.64,0,0,1,8.64,8.64h0A8.64,8.64,0,0,1,1594.62,514.67Z"/></g></g></svg>