<svg id="Layer_1" data-name="Layer 1" xmlns="http://www.w3.org/2000/svg" xmlns:xlink="http://www.w3.org/1999/xlink" viewBox="0 0 1920 580"><defs><style>.cls-1{fill:none;}.cls-2{fill:#292947;}.cls-3{fill:url(#linear-gradient);}.cls-4{font-size:48px;font-family:Poppins-Bold, Poppins;font-weight:700;}.cls-28,.cls-4,.cls-5{fill:#fff;}.cls-5{font-size:24px;font-family:MyriadPro-Regular, Myriad Pro;}.cls-6{letter-spacing:0em;}.cls-7{letter-spacing:-0.01em;}.cls-8{letter-spacing:-0.01em;}.cls-9{letter-spacing:-0.01em;}.cls-10{letter-spacing:0em;}.cls-11{letter-spacing:0em;}.cls-12{letter-spacing:-0.01em;}.cls-13{letter-spacing:0em;}.cls-14{letter-spacing:0em;}.cls-15{letter-spacing:0em;}.cls-16{letter-spacing:-0.01em;}.cls-17{letter-spacing:-0.01em;}.cls-18{letter-spacing:0em;}.cls-19{letter-spacing:0.01em;}.cls-20{letter-spacing:0.01em;}.cls-21{letter-spacing:0.01em;}.cls-22{letter-spacing:-0.04em;}.cls-23{letter-spacing:-0.01em;}.cls-24{letter-spacing:0.03em;}.cls-25{letter-spacing:-0.01em;}.cls-26{letter-spacing:0em;}.cls-27{letter-spacing:-0.01em;}.cls-29{fill:#1080c4;}.cls-30,.cls-36{fill:#00b0ed;}.cls-31,.cls-32,.cls-37{fill:#31d6c3;}.cls-32{opacity:0.46;}.cls-33{opacity:0.44;}.cls-34{fill:#f2f0f5;}.cls-35{fill:#00004c;}.cls-36{opacity:0.72;}.cls-37{opacity:0.71;}.cls-38,.cls-43,.cls-45{fill:url(#Unnamed_Pattern);}.cls-39{fill:#cacae6;}.cls-40{fill:#8854ff;}.cls-41{opacity:0.64;}.cls-42{fill:url(#Unnamed_Pattern-3);}.cls-43,.cls-44{opacity:0.28;}.cls-45{opacity:0.65;}</style><linearGradient id="linear-gradient" y1="290" x2="1920" y2="290" gradientUnits="userSpaceOnUse"><stop offset="0" stop-color="#0071bc"/><stop offset="1" stop-color="#29abe2"/></linearGradient><pattern id="Unnamed_Pattern" data-name="Unnamed Pattern" width="27.84" height="27.84" patternTransform="translate(11.93 30.34) scale(0.23)" patternUnits="userSpaceOnUse" viewBox="0 0 27.84 27.84"><rect className="cls-1" width="27.84" height="27.84"/><path className="cls-2" d="M29.17,27.84a1.33,1.33,0,1,1-1.32-1.33A1.33,1.33,0,0,1,29.17,27.84Z"/><path className="cls-2" d="M1.33,27.84A1.33,1.33,0,0,1,0,29.17a1.33,1.33,0,0,1,0-2.66A1.33,1.33,0,0,1,1.33,27.84Z"/><path className="cls-2" d="M8.29,27.84A1.33,1.33,0,1,1,7,26.51,1.33,1.33,0,0,1,8.29,27.84Z"/><path className="cls-2" d="M8.29,27.84A1.33,1.33,0,1,1,7,26.51,1.33,1.33,0,0,1,8.29,27.84Z"/><path className="cls-2" d="M15.25,27.84a1.33,1.33,0,1,1-1.33-1.33A1.34,1.34,0,0,1,15.25,27.84Z"/><path className="cls-2" d="M15.25,27.84a1.33,1.33,0,1,1-1.33-1.33A1.34,1.34,0,0,1,15.25,27.84Z"/><path className="cls-2" d="M22.2,27.84a1.33,1.33,0,1,1-1.32-1.33A1.33,1.33,0,0,1,22.2,27.84Z"/><path className="cls-2" d="M22.2,27.84a1.33,1.33,0,1,1-1.32-1.33A1.33,1.33,0,0,1,22.2,27.84Z"/><path className="cls-2" d="M29.16,27.84a1.33,1.33,0,1,1-1.33-1.33A1.34,1.34,0,0,1,29.16,27.84Z"/><path className="cls-2" d="M1.32,27.84A1.33,1.33,0,0,1,0,29.17a1.33,1.33,0,0,1-1.32-1.33A1.33,1.33,0,0,1,0,26.51,1.33,1.33,0,0,1,1.32,27.84Z"/><path className="cls-2" d="M29.17,0a1.33,1.33,0,0,1-1.32,1.33A1.33,1.33,0,0,1,26.52,0a1.33,1.33,0,0,1,1.33-1.33A1.33,1.33,0,0,1,29.17,0Z"/><circle className="cls-2" cx="27.85" cy="8.83" r="1.33"/><circle className="cls-2" cx="27.85" cy="19.23" r="1.33"/><path className="cls-2" d="M1.33,0A1.33,1.33,0,0,1,0,1.33,1.33,1.33,0,0,1-1.32,0,1.33,1.33,0,0,1,0-1.33,1.33,1.33,0,0,1,1.33,0Z"/><path className="cls-2" d="M8.29,0A1.33,1.33,0,0,1,7,1.33,1.33,1.33,0,0,1,5.64,0,1.33,1.33,0,0,1,7-1.33,1.33,1.33,0,0,1,8.29,0Z"/><path className="cls-2" d="M8.29,0A1.33,1.33,0,0,1,7,1.33,1.33,1.33,0,0,1,5.64,0,1.33,1.33,0,0,1,7-1.33,1.33,1.33,0,0,1,8.29,0Z"/><path className="cls-2" d="M15.25,0a1.34,1.34,0,0,1-1.33,1.33A1.34,1.34,0,0,1,12.59,0a1.33,1.33,0,0,1,2.66,0Z"/><path className="cls-2" d="M15.25,0a1.34,1.34,0,0,1-1.33,1.33A1.34,1.34,0,0,1,12.59,0a1.33,1.33,0,0,1,2.66,0Z"/><path className="cls-2" d="M22.2,0a1.33,1.33,0,0,1-1.32,1.33A1.33,1.33,0,0,1,19.55,0a1.33,1.33,0,0,1,1.33-1.33A1.33,1.33,0,0,1,22.2,0Z"/><path className="cls-2" d="M22.2,0a1.33,1.33,0,0,1-1.32,1.33A1.33,1.33,0,0,1,19.55,0a1.33,1.33,0,0,1,1.33-1.33A1.33,1.33,0,0,1,22.2,0Z"/><path className="cls-2" d="M29.16,0a1.34,1.34,0,0,1-1.33,1.33A1.34,1.34,0,0,1,26.5,0a1.33,1.33,0,0,1,2.66,0Z"/><circle className="cls-2" cx="0.01" cy="8.83" r="1.33"/><circle className="cls-2" cx="6.96" cy="8.83" r="1.33"/><circle className="cls-2" cx="6.96" cy="8.83" r="1.33"/><circle className="cls-2" cx="13.92" cy="8.83" r="1.33"/><circle className="cls-2" cx="13.92" cy="8.83" r="1.33"/><circle className="cls-2" cx="20.88" cy="8.83" r="1.33"/><circle className="cls-2" cx="20.88" cy="8.83" r="1.33"/><path className="cls-2" d="M29.16,8.83A1.33,1.33,0,1,1,27.83,7.5,1.33,1.33,0,0,1,29.16,8.83Z"/><circle className="cls-2" cx="0.01" cy="19.23" r="1.33"/><circle className="cls-2" cx="6.96" cy="19.23" r="1.33"/><circle className="cls-2" cx="6.96" cy="19.23" r="1.33"/><circle className="cls-2" cx="13.92" cy="19.23" r="1.33"/><circle className="cls-2" cx="13.92" cy="19.23" r="1.33"/><circle className="cls-2" cx="20.88" cy="19.23" r="1.33"/><circle className="cls-2" cx="20.88" cy="19.23" r="1.33"/><path className="cls-2" d="M29.16,19.23a1.33,1.33,0,1,1-1.33-1.33A1.33,1.33,0,0,1,29.16,19.23Z"/><path className="cls-2" d="M1.32,0A1.33,1.33,0,0,1,0,1.33,1.33,1.33,0,0,1-1.33,0,1.33,1.33,0,0,1,0-1.33,1.33,1.33,0,0,1,1.32,0Z"/><path className="cls-2" d="M1.32,8.83A1.32,1.32,0,0,1,0,10.15,1.32,1.32,0,0,1-1.33,8.83,1.32,1.32,0,0,1,0,7.5,1.32,1.32,0,0,1,1.32,8.83Z"/><path className="cls-2" d="M1.32,19.23A1.32,1.32,0,0,1,0,20.55a1.32,1.32,0,0,1-1.32-1.32A1.33,1.33,0,0,1,0,17.9,1.33,1.33,0,0,1,1.32,19.23Z"/></pattern><pattern id="Unnamed_Pattern-3" data-name="Unnamed Pattern" width="27.84" height="27.84" patternTransform="translate(2.69 5.94) scale(0.05)" patternUnits="userSpaceOnUse" viewBox="0 0 27.84 27.84"><rect className="cls-1" width="27.84" height="27.84"/><path className="cls-2" d="M29.17,27.84a1.33,1.33,0,1,1-1.32-1.33A1.33,1.33,0,0,1,29.17,27.84Z"/><path className="cls-2" d="M1.33,27.84A1.33,1.33,0,0,1,0,29.17a1.33,1.33,0,0,1,0-2.66A1.33,1.33,0,0,1,1.33,27.84Z"/><path className="cls-2" d="M8.29,27.84A1.33,1.33,0,1,1,7,26.51,1.33,1.33,0,0,1,8.29,27.84Z"/><path className="cls-2" d="M8.29,27.84A1.33,1.33,0,1,1,7,26.51,1.33,1.33,0,0,1,8.29,27.84Z"/><path className="cls-2" d="M15.25,27.84a1.33,1.33,0,1,1-1.33-1.33A1.34,1.34,0,0,1,15.25,27.84Z"/><path className="cls-2" d="M15.25,27.84a1.33,1.33,0,1,1-1.33-1.33A1.34,1.34,0,0,1,15.25,27.84Z"/><path className="cls-2" d="M22.2,27.84a1.33,1.33,0,1,1-1.32-1.33A1.33,1.33,0,0,1,22.2,27.84Z"/><path className="cls-2" d="M22.2,27.84a1.33,1.33,0,1,1-1.32-1.33A1.33,1.33,0,0,1,22.2,27.84Z"/><path className="cls-2" d="M29.16,27.84a1.33,1.33,0,1,1-1.33-1.33A1.34,1.34,0,0,1,29.16,27.84Z"/><path className="cls-2" d="M1.32,27.84A1.33,1.33,0,0,1,0,29.17a1.33,1.33,0,0,1-1.32-1.33A1.33,1.33,0,0,1,0,26.51,1.33,1.33,0,0,1,1.32,27.84Z"/><path className="cls-2" d="M29.17,0a1.33,1.33,0,0,1-1.32,1.33A1.33,1.33,0,0,1,26.52,0a1.33,1.33,0,0,1,1.33-1.33A1.33,1.33,0,0,1,29.17,0Z"/><circle className="cls-2" cx="27.85" cy="8.83" r="1.33"/><circle className="cls-2" cx="27.85" cy="19.23" r="1.33"/><path className="cls-2" d="M1.33,0A1.33,1.33,0,0,1,0,1.33,1.33,1.33,0,0,1-1.32,0,1.33,1.33,0,0,1,0-1.33,1.33,1.33,0,0,1,1.33,0Z"/><path className="cls-2" d="M8.29,0A1.33,1.33,0,0,1,7,1.33,1.33,1.33,0,0,1,5.64,0,1.33,1.33,0,0,1,7-1.33,1.33,1.33,0,0,1,8.29,0Z"/><path className="cls-2" d="M8.29,0A1.33,1.33,0,0,1,7,1.33,1.33,1.33,0,0,1,5.64,0,1.33,1.33,0,0,1,7-1.33,1.33,1.33,0,0,1,8.29,0Z"/><path className="cls-2" d="M15.25,0a1.34,1.34,0,0,1-1.33,1.33A1.34,1.34,0,0,1,12.59,0a1.33,1.33,0,0,1,2.66,0Z"/><path className="cls-2" d="M15.25,0a1.34,1.34,0,0,1-1.33,1.33A1.34,1.34,0,0,1,12.59,0a1.33,1.33,0,0,1,2.66,0Z"/><path className="cls-2" d="M22.2,0a1.33,1.33,0,0,1-1.32,1.33A1.33,1.33,0,0,1,19.55,0a1.33,1.33,0,0,1,1.33-1.33A1.33,1.33,0,0,1,22.2,0Z"/><path className="cls-2" d="M22.2,0a1.33,1.33,0,0,1-1.32,1.33A1.33,1.33,0,0,1,19.55,0a1.33,1.33,0,0,1,1.33-1.33A1.33,1.33,0,0,1,22.2,0Z"/><path className="cls-2" d="M29.16,0a1.34,1.34,0,0,1-1.33,1.33A1.34,1.34,0,0,1,26.5,0a1.33,1.33,0,0,1,2.66,0Z"/><circle className="cls-2" cx="0.01" cy="8.83" r="1.33"/><circle className="cls-2" cx="6.96" cy="8.83" r="1.33"/><circle className="cls-2" cx="6.96" cy="8.83" r="1.33"/><circle className="cls-2" cx="13.92" cy="8.83" r="1.33"/><circle className="cls-2" cx="13.92" cy="8.83" r="1.33"/><circle className="cls-2" cx="20.88" cy="8.83" r="1.33"/><circle className="cls-2" cx="20.88" cy="8.83" r="1.33"/><path className="cls-2" d="M29.16,8.83A1.33,1.33,0,1,1,27.83,7.5,1.33,1.33,0,0,1,29.16,8.83Z"/><circle className="cls-2" cx="0.01" cy="19.23" r="1.33"/><circle className="cls-2" cx="6.96" cy="19.23" r="1.33"/><circle className="cls-2" cx="6.96" cy="19.23" r="1.33"/><circle className="cls-2" cx="13.92" cy="19.23" r="1.33"/><circle className="cls-2" cx="13.92" cy="19.23" r="1.33"/><circle className="cls-2" cx="20.88" cy="19.23" r="1.33"/><circle className="cls-2" cx="20.88" cy="19.23" r="1.33"/><path className="cls-2" d="M29.16,19.23a1.33,1.33,0,1,1-1.33-1.33A1.33,1.33,0,0,1,29.16,19.23Z"/><path className="cls-2" d="M1.32,0A1.33,1.33,0,0,1,0,1.33,1.33,1.33,0,0,1-1.33,0,1.33,1.33,0,0,1,0-1.33,1.33,1.33,0,0,1,1.32,0Z"/><path className="cls-2" d="M1.32,8.83A1.32,1.32,0,0,1,0,10.15,1.32,1.32,0,0,1-1.33,8.83,1.32,1.32,0,0,1,0,7.5,1.32,1.32,0,0,1,1.32,8.83Z"/><path className="cls-2" d="M1.32,19.23A1.32,1.32,0,0,1,0,20.55a1.32,1.32,0,0,1-1.32-1.32A1.33,1.33,0,0,1,0,17.9,1.33,1.33,0,0,1,1.32,19.23Z"/></pattern></defs><title>Artboard 2</title><rect className="cls-3" width="1920" height="580"/><text className="cls-4" transform="translate(230.65 210.65)">DigitalMinds Software</text><text className="cls-5" transform="translate(230.65 280.53)">Ha<tspan className="cls-6" x="27.22" y="0">r</tspan><tspan x="35.16" y="0">nessing the p</tspan><tspan className="cls-7" x="168.98" y="0">o</tspan><tspan className="cls-8" x="181.99" y="0">w</tspan><tspan x="199.41" y="0">er of di</tspan><tspan className="cls-9" x="268.8" y="0">g</tspan><tspan x="282.07" y="0">ital t</tspan><tspan className="cls-10" x="325.89" y="0">r</tspan><tspan className="cls-11" x="333.62" y="0">ans</tspan><tspan className="cls-12" x="368.01" y="0">f</tspan><tspan className="cls-13" x="374.71" y="0">o</tspan><tspan className="cls-14" x="387.88" y="0">r</tspan><tspan x="395.83" y="0">m</tspan><tspan className="cls-15" x="415.84" y="0">a</tspan><tspan x="427.31" y="0">tion </tspan><tspan className="cls-16" x="472.46" y="0">t</tspan><tspan className="cls-13" x="480.26" y="0">o c</tspan><tspan className="cls-17" x="509.27" y="0">r</tspan><tspan x="516.88" y="0">e</tspan><tspan className="cls-15" x="528.9" y="0">a</tspan><tspan className="cls-16" x="540.38" y="0">t</tspan><tspan x="548.18" y="0">e i</tspan><tspan className="cls-18" x="570.9" y="0">n</tspan><tspan className="cls-16" x="584.13" y="0">t</tspan><tspan x="591.93" y="0">ellige</tspan><tspan className="cls-18" x="646.33" y="0">n</tspan><tspan x="659.56" y="0">t so</tspan><tspan className="cls-19" x="695.27" y="0">f</tspan><tspan className="cls-20" x="702.54" y="0">t</tspan><tspan className="cls-18" x="710.7" y="0">w</tspan><tspan x="728.27" y="0">a</tspan><tspan className="cls-8" x="739.84" y="0">r</tspan><tspan x="747.44" y="0">e solutions th</tspan><tspan className="cls-15" x="882.03" y="0">a</tspan><tspan x="893.51" y="0">t</tspan><tspan x="0" y="29">enhan</tspan><tspan className="cls-16" x="63.55" y="29">c</tspan><tspan x="74.16" y="29">e p</tspan><tspan className="cls-8" x="104.93" y="29">r</tspan><tspan className="cls-13" x="112.53" y="29">odu</tspan><tspan className="cls-21" x="152.47" y="29">c</tspan><tspan x="163.53" y="29">tivi</tspan><tspan className="cls-20" x="194.25" y="29">t</tspan><tspan className="cls-22" x="202.41" y="29">y</tspan><tspan className="cls-11" x="212.78" y="29">, st</tspan><tspan className="cls-8" x="240.28" y="29">r</tspan><tspan x="247.89" y="29">eamline p</tspan><tspan className="cls-17" x="346.87" y="29">r</tspan><tspan className="cls-13" x="354.47" y="29">o</tspan><tspan className="cls-16" x="367.65" y="29">c</tspan><tspan x="378.26" y="29">esse</tspan><tspan className="cls-23" x="421.31" y="29">s</tspan><tspan x="430.55" y="29">, and optimi</tspan><tspan className="cls-7" x="550.14" y="29">z</tspan><tspan className="cls-11" x="560.25" y="29">e pe</tspan><tspan className="cls-24" x="603.04" y="29">r</tspan><tspan className="cls-25" x="611.61" y="29">f</tspan><tspan x="618.3" y="29">o</tspan><tspan className="cls-26" x="631.48" y="29">r</tspan><tspan className="cls-11" x="639.42" y="29">man</tspan><tspan className="cls-9" x="684.33" y="29">c</tspan><tspan className="cls-27" x="694.93" y="29">e</tspan><tspan className="cls-11" x="706.67" y="29">. t</tspan></text><rect className="cls-28" x="230.65" y="359.27" width="192" height="51" rx="4"/><path className="cls-29" d="M262.88,380.08a4,4,0,0,0-1.58-1.61,4.84,4.84,0,0,0-2.36-.55,5.13,5.13,0,0,0-2.64.67,4.77,4.77,0,0,0-1.8,1.92,6.82,6.82,0,0,0,0,5.81,4.71,4.71,0,0,0,1.83,1.92,5.43,5.43,0,0,0,2.74.67,4.72,4.72,0,0,0,3.14-1,4.88,4.88,0,0,0,1.61-2.84h-5.76v-2.57h9.07v2.93a7.74,7.74,0,0,1-1.44,3.24,8.09,8.09,0,0,1-2.84,2.39,8.36,8.36,0,0,1-3.9.9,8.79,8.79,0,0,1-4.38-1.1,7.85,7.85,0,0,1-3.07-3,9.3,9.3,0,0,1,0-8.85,7.8,7.8,0,0,1,3.07-3,9.31,9.31,0,0,1,9.27.28,7,7,0,0,1,2.88,3.88Z"/><path className="cls-29" d="M273,377.75V382h5.64v2.67H273v4.44h6.36v2.73h-9.72V375h9.72v2.73Z"/><path className="cls-29" d="M293.82,375v2.71h-4.47v14H286v-14h-4.46V375Z"/><path className="cls-29" d="M312.25,388.6h-6.67l-1.11,3.19h-3.53L307,375h3.91l6,16.77h-3.55Zm-.91-2.69-2.43-7-2.42,7Z"/><path className="cls-29" d="M337.35,394.74l-2.54-3.05a8.95,8.95,0,0,1-6.48-.83,8.19,8.19,0,0,1-3.12-3.06,9,9,0,0,1,0-8.84,8.19,8.19,0,0,1,3.12-3.06,9.05,9.05,0,0,1,8.65,0,8.25,8.25,0,0,1,3.09,3.06,8.6,8.6,0,0,1,1.14,4.41,8.77,8.77,0,0,1-.94,4.07,8.37,8.37,0,0,1-2.58,3l3.84,4.32Zm-9.19-8.42a4.64,4.64,0,0,0,1.81,2,5.26,5.26,0,0,0,2.68.68,5.19,5.19,0,0,0,2.66-.68,4.69,4.69,0,0,0,1.8-2,6.44,6.44,0,0,0,.65-2.95,6.37,6.37,0,0,0-.65-2.94,4.55,4.55,0,0,0-1.8-1.93,5.19,5.19,0,0,0-2.66-.68,5.26,5.26,0,0,0-2.68.68,4.51,4.51,0,0,0-1.81,1.93,6.37,6.37,0,0,0-.65,2.94A6.44,6.44,0,0,0,328.16,386.32Z"/><path className="cls-29" d="M347.07,375v10.37A3.56,3.56,0,0,0,348,388a3.33,3.33,0,0,0,2.49.9A3.38,3.38,0,0,0,353,388a3.52,3.52,0,0,0,.89-2.6V375h3.39v10.34a6.67,6.67,0,0,1-.93,3.62,5.8,5.8,0,0,1-2.47,2.21,7.78,7.78,0,0,1-3.44.75,7.61,7.61,0,0,1-3.4-.75A5.59,5.59,0,0,1,344.6,389a6.94,6.94,0,0,1-.89-3.62V375Z"/><path className="cls-29" d="M363.94,390.86a8.33,8.33,0,0,1-3.12-3.06,9.07,9.07,0,0,1,0-8.84,8.33,8.33,0,0,1,3.12-3.06,9.05,9.05,0,0,1,8.65,0,8.2,8.2,0,0,1,3.1,3.06,9.14,9.14,0,0,1,0,8.84,8.23,8.23,0,0,1-3.11,3.06,9,9,0,0,1-8.64,0Zm7-2.58a4.82,4.82,0,0,0,1.8-2,6.44,6.44,0,0,0,.64-2.95,6.37,6.37,0,0,0-.64-2.94,4.67,4.67,0,0,0-1.8-1.93,5.58,5.58,0,0,0-5.34,0,4.59,4.59,0,0,0-1.82,1.93,6.37,6.37,0,0,0-.64,2.94,6.44,6.44,0,0,0,.64,2.95,4.73,4.73,0,0,0,1.82,2,5.58,5.58,0,0,0,5.34,0Z"/><path className="cls-29" d="M390.73,375v2.71h-4.47v14H382.9v-14h-4.46V375Z"/><path className="cls-29" d="M396.53,377.75V382h5.64v2.67h-5.64v4.44h6.36v2.73h-9.72V375h9.72v2.73Z"/><path className="cls-30" d="M1379.5,226.06h-4.25a.53.53,0,1,1,0-1.06h4.25a.53.53,0,0,1,0,1.06Zm-8.49,0h-4.25a.53.53,0,1,1,0-1.06H1371a.53.53,0,0,1,0,1.06Zm-8.5,0h-4.24a.53.53,0,1,1,0-1.06h4.24a.53.53,0,0,1,0,1.06Zm-8.49,0h-4.25a.53.53,0,1,1,0-1.06H1354a.53.53,0,0,1,0,1.06Zm-8.49,0h-4.25a.53.53,0,1,1,0-1.06h4.25a.53.53,0,0,1,0,1.06Zm-8.49,0h-4.25a.53.53,0,1,1,0-1.06H1337a.53.53,0,0,1,0,1.06Zm-8.5,0h-4.24a.53.53,0,1,1,0-1.06h4.24a.53.53,0,0,1,0,1.06Zm-8.49,0h-4.24a.53.53,0,1,1,0-1.06h4.24a.53.53,0,0,1,0,1.06Zm-8.38-.52a.55.55,0,0,1-.32-.1,3.11,3.11,0,0,1-1.24-2.5v-1.85a.53.53,0,0,1,.53-.53.53.53,0,0,1,.53.53v1.85a2,2,0,0,0,.82,1.65.53.53,0,0,1,.11.74A.54.54,0,0,1,1311.67,225.54Zm71.49-1a.48.48,0,0,1-.23-.05.54.54,0,0,1-.25-.71,2,2,0,0,0,.2-.88v-3.1a.53.53,0,0,1,1.06,0v3.1a3.09,3.09,0,0,1-.3,1.34A.53.53,0,0,1,1383.16,224.58Zm-72.52-7.2a.53.53,0,0,1-.53-.53V212.6a.53.53,0,0,1,.53-.53.53.53,0,0,1,.53.53v4.25A.53.53,0,0,1,1310.64,217.38Zm72.77-1.25a.53.53,0,0,1-.53-.53v-4.25a.53.53,0,0,1,1.06,0v4.25A.53.53,0,0,1,1383.41,216.13Zm0-8.49a.54.54,0,0,1-.53-.54v-4.24a.53.53,0,0,1,1.06,0v4.24A.54.54,0,0,1,1383.41,207.64Zm0-8.5a.53.53,0,0,1-.53-.53v-4.24a.53.53,0,0,1,1.06,0v4.24A.53.53,0,0,1,1383.41,199.14Zm0-8.49a.53.53,0,0,1-.53-.53v-4.25a.53.53,0,0,1,1.06,0v4.25A.53.53,0,0,1,1383.41,190.65Zm0-8.49a.53.53,0,0,1-.53-.53V179a3.13,3.13,0,0,1,.58-1.82.54.54,0,0,1,.74-.12.53.53,0,0,1,.12.74,2.06,2.06,0,0,0-.38,1.2v2.64A.53.53,0,0,1,1383.41,182.16Zm8.62-5.23h-4.24a.53.53,0,0,1-.54-.53.54.54,0,0,1,.54-.53H1392a.53.53,0,0,1,.53.53A.53.53,0,0,1,1392,176.93Z"/><path className="cls-31" d="M1284.42,232a.53.53,0,0,1-.53-.53v-1.11a.53.53,0,0,1,.53-.54.54.54,0,0,1,.53.54v1.11A.53.53,0,0,1,1284.42,232Zm0-5.36a.53.53,0,0,1-.53-.53v-4.25a.53.53,0,0,1,.53-.53.53.53,0,0,1,.53.53v4.25A.53.53,0,0,1,1284.42,226.61Zm0-8.49a.53.53,0,0,1-.53-.53v-4.25a.53.53,0,0,1,.53-.53.53.53,0,0,1,.53.53v4.25A.53.53,0,0,1,1284.42,218.12Z"/><path className="cls-32" d="M1199.46,356.82a.52.52,0,0,1-.53-.53v-2.9a.52.52,0,0,1,.53-.53.53.53,0,0,1,.53.53v2.9A.53.53,0,0,1,1199.46,356.82Zm0-7.15a.53.53,0,0,1-.53-.53v-4.25a.53.53,0,0,1,.53-.53.53.53,0,0,1,.53.53v4.25A.53.53,0,0,1,1199.46,349.67Zm0-8.49a.53.53,0,0,1-.53-.53V336.4a.53.53,0,0,1,.53-.53.53.53,0,0,1,.53.53v4.25A.53.53,0,0,1,1199.46,341.18Zm0-8.49a.53.53,0,0,1-.53-.53v-4.25a.53.53,0,0,1,.53-.53.53.53,0,0,1,.53.53v4.25A.53.53,0,0,1,1199.46,332.69Zm0-8.5a.52.52,0,0,1-.53-.53v-4.24a.52.52,0,0,1,.53-.53.53.53,0,0,1,.53.53v4.24A.53.53,0,0,1,1199.46,324.19Zm0-8.49a.53.53,0,0,1-.53-.53v-4.24a.53.53,0,0,1,.53-.54.54.54,0,0,1,.53.54v4.24A.53.53,0,0,1,1199.46,315.7Zm0-8.49a.53.53,0,0,1-.53-.53v-4.25a.53.53,0,0,1,.53-.53.53.53,0,0,1,.53.53v4.25A.53.53,0,0,1,1199.46,307.21Zm0-8.49a.53.53,0,0,1-.53-.53v-4.25a.53.53,0,0,1,.53-.53.53.53,0,0,1,.53.53v4.25A.53.53,0,0,1,1199.46,298.72Zm0-8.49a.53.53,0,0,1-.53-.54v-4.24a.53.53,0,0,1,.53-.53.53.53,0,0,1,.53.53v4.24A.54.54,0,0,1,1199.46,290.23Zm0-8.5a.52.52,0,0,1-.53-.53V277a.52.52,0,0,1,.53-.53.53.53,0,0,1,.53.53v4.24A.53.53,0,0,1,1199.46,281.73Zm0-8.49a.53.53,0,0,1-.53-.53v-4.25a.53.53,0,0,1,.53-.53.53.53,0,0,1,.53.53v4.25A.53.53,0,0,1,1199.46,273.24Zm0-8.49a.53.53,0,0,1-.53-.53V260a.53.53,0,0,1,.53-.53.53.53,0,0,1,.53.53v4.25A.53.53,0,0,1,1199.46,264.75Zm0-8.49a.53.53,0,0,1-.53-.53v-4.25a.53.53,0,0,1,.53-.53.53.53,0,0,1,.53.53v4.25A.53.53,0,0,1,1199.46,256.26Zm0-8.5a.52.52,0,0,1-.53-.53V243a.52.52,0,0,1,.53-.53.53.53,0,0,1,.53.53v4.24A.53.53,0,0,1,1199.46,247.76Zm0-8.49a.52.52,0,0,1-.53-.53V234.5a.53.53,0,0,1,.53-.54.54.54,0,0,1,.53.54v4.24A.53.53,0,0,1,1199.46,239.27Zm0-8.49a.53.53,0,0,1-.53-.53v-2.32a5.16,5.16,0,0,1,.44-2.09.54.54,0,0,1,.7-.27.53.53,0,0,1,.27.7,4.12,4.12,0,0,0-.35,1.66v2.32A.53.53,0,0,1,1199.46,230.78ZM1203,224a.52.52,0,0,1-.51-.41.54.54,0,0,1,.39-.64,5.32,5.32,0,0,1,1.2-.14h3.16a.54.54,0,0,1,0,1.07h-3.16a3.69,3.69,0,0,0-.95.11Zm53.71-.12H1254a.54.54,0,0,1,0-1.07h2.23v-.95a.53.53,0,0,1,.53-.53.53.53,0,0,1,.53.53v1.48A.53.53,0,0,1,1256.71,223.85Zm-7,0h-4.25a.54.54,0,0,1,0-1.07h4.25a.54.54,0,0,1,0,1.07Zm-8.49,0H1237a.54.54,0,0,1,0-1.07h4.25a.54.54,0,0,1,0,1.07Zm-8.49,0h-4.25a.54.54,0,0,1,0-1.07h4.25a.54.54,0,0,1,0,1.07Zm-8.5,0H1220a.54.54,0,0,1,0-1.07h4.24a.54.54,0,0,1,0,1.07Zm-8.49,0h-4.24a.54.54,0,0,1,0-1.07h4.24a.54.54,0,0,1,0,1.07Zm41-5.73a.53.53,0,0,1-.53-.53v-4.25a.53.53,0,0,1,.53-.53.53.53,0,0,1,.53.53v4.25A.53.53,0,0,1,1256.71,218.12Z"/><g className="cls-33"><path className="cls-30" d="M1175.48,412.33a1.91,1.91,0,0,1-1.82-1.34l-1.81-5.72a.81.81,0,0,0-.82-.59,27.3,27.3,0,0,1-6.87-.6.86.86,0,0,0-.91.44l-2.77,5.33a1.89,1.89,0,0,1-2.57.81l-8.24-4.28a1.92,1.92,0,0,1-.82-2.58l2.77-5.32a.85.85,0,0,0-.16-1,27,27,0,0,1-4.44-5.28.83.83,0,0,0-1-.33l-5.72,1.81a1.91,1.91,0,0,1-2.4-1.24l-2.8-8.86a1.9,1.9,0,0,1,.13-1.46,1.87,1.87,0,0,1,1.12-.94l5.72-1.81a.84.84,0,0,0,.59-.82,26.92,26.92,0,0,1,.59-6.87.82.82,0,0,0-.44-.9l-5.32-2.77a1.92,1.92,0,0,1-.82-2.58l4.29-8.24a1.9,1.9,0,0,1,2.57-.81l5.33,2.76a.81.81,0,0,0,1-.16,27.23,27.23,0,0,1,5.28-4.43.83.83,0,0,0,.33-1l-1.8-5.72a1.9,1.9,0,0,1,1.24-2.39l8.86-2.8a1.9,1.9,0,0,1,2.39,1.24l1.81,5.72a.81.81,0,0,0,.82.59,27.3,27.3,0,0,1,6.87.6.84.84,0,0,0,.91-.44l2.77-5.33a1.9,1.9,0,0,1,1.12-.94,1.88,1.88,0,0,1,1.45.13l8.25,4.28a1.91,1.91,0,0,1,.81,2.58l-2.77,5.32a.83.83,0,0,0,.17,1,27.35,27.35,0,0,1,4.43,5.28.84.84,0,0,0,1,.33l5.72-1.81a1.9,1.9,0,0,1,2.39,1.25l2.8,8.86a1.91,1.91,0,0,1-1.24,2.39l-5.72,1.81a.83.83,0,0,0-.6.82,26.92,26.92,0,0,1-.59,6.87.83.83,0,0,0,.44.91l5.32,2.76a1.92,1.92,0,0,1,.82,2.58l-4.29,8.24a1.9,1.9,0,0,1-2.57.81l-5.33-2.76a.82.82,0,0,0-1,.16,27.34,27.34,0,0,1-5.28,4.44.82.82,0,0,0-.33.95l1.81,5.72a1.93,1.93,0,0,1-1.25,2.4l-8.86,2.8A1.88,1.88,0,0,1,1175.48,412.33Zm-4.42-8.71a1.9,1.9,0,0,1,1.8,1.33l1.81,5.72a.83.83,0,0,0,1.06.55l8.86-2.8a.84.84,0,0,0,.55-1.06l-1.8-5.72a1.9,1.9,0,0,1,.76-2.17,25.88,25.88,0,0,0,5.08-4.26,1.88,1.88,0,0,1,2.26-.38l5.33,2.76a.8.8,0,0,0,.64.06.84.84,0,0,0,.5-.42l4.28-8.24a.85.85,0,0,0-.36-1.15l-5.32-2.76a1.91,1.91,0,0,1-1-2.08,26.12,26.12,0,0,0,.57-6.6,1.89,1.89,0,0,1,1.34-1.87l5.72-1.81a.86.86,0,0,0,.55-1.07l-2.8-8.86a.85.85,0,0,0-1.06-.55l-5.73,1.81a1.88,1.88,0,0,1-2.16-.77,26.53,26.53,0,0,0-4.26-5.07,1.9,1.9,0,0,1-.39-2.27l2.77-5.32a.86.86,0,0,0,0-.65.8.8,0,0,0-.41-.49l-8.25-4.29a.84.84,0,0,0-.64-.05.79.79,0,0,0-.5.41l-2.77,5.33a1.89,1.89,0,0,1-2.07,1,26.21,26.21,0,0,0-6.61-.58A1.9,1.9,0,0,1,1167,350l-1.81-5.72a.85.85,0,0,0-1.06-.55l-8.86,2.8a.85.85,0,0,0-.5.41.86.86,0,0,0,0,.65l1.81,5.72a1.92,1.92,0,0,1-.77,2.17,26.17,26.17,0,0,0-5.07,4.26,1.9,1.9,0,0,1-2.27.38l-5.33-2.76a.85.85,0,0,0-1.14.36l-4.28,8.24a.85.85,0,0,0,.36,1.15l5.32,2.76a1.91,1.91,0,0,1,1,2.08,26.12,26.12,0,0,0-.57,6.6,1.89,1.89,0,0,1-1.33,1.87l-5.73,1.81a.85.85,0,0,0-.49.42.82.82,0,0,0-.06.65l2.8,8.86a.86.86,0,0,0,1.07.55l5.72-1.81a1.88,1.88,0,0,1,2.16.77,25.87,25.87,0,0,0,4.27,5.07,1.9,1.9,0,0,1,.38,2.27l-2.77,5.32a.86.86,0,0,0,.37,1.15l8.24,4.28a.89.89,0,0,0,.64.06.84.84,0,0,0,.5-.42l2.77-5.33a1.89,1.89,0,0,1,2.08-1,26.08,26.08,0,0,0,6.6.57Zm-1.08-9.86a16.38,16.38,0,1,1,4.56-.64A16.42,16.42,0,0,1,1170,393.76Zm0-31.73a15.61,15.61,0,0,0-4.27.6,15.34,15.34,0,0,0,8.53,29.47h0A15.34,15.34,0,0,0,1170,362Z"/></g><path className="cls-34" d="M1217.56,231.09l.74-4.6a.7.7,0,0,0-.58-.8l-3-.47a.7.7,0,0,1-.58-.6,13.57,13.57,0,0,0-.78-3.3.69.69,0,0,1,.24-.8l2.44-1.76a.7.7,0,0,0,.16-1l-2.74-3.78a.69.69,0,0,0-1-.15l-2.44,1.77a.69.69,0,0,1-.83,0,12.91,12.91,0,0,0-2.89-1.78.69.69,0,0,1-.39-.73l.48-3a.7.7,0,0,0-.57-.79l-4.61-.74a.69.69,0,0,0-.79.58l-.48,3a.68.68,0,0,1-.6.58,13.14,13.14,0,0,0-3.3.79.7.7,0,0,1-.79-.25l-1.77-2.44a.68.68,0,0,0-1-.15l-3.78,2.73a.7.7,0,0,0-.16,1l1.77,2.44a.69.69,0,0,1,0,.83,12.91,12.91,0,0,0-1.78,2.89.69.69,0,0,1-.74.39l-3-.48a.69.69,0,0,0-.79.58l-.74,4.6a.69.69,0,0,0,.57.79l3,.48a.68.68,0,0,1,.57.6,13.59,13.59,0,0,0,.79,3.3.67.67,0,0,1-.24.79l-2.44,1.77a.7.7,0,0,0-.16,1l2.74,3.77a.69.69,0,0,0,1,.16l2.44-1.77a.68.68,0,0,1,.83,0,14.21,14.21,0,0,0,2.89,1.78.67.67,0,0,1,.39.73l-.47,3a.69.69,0,0,0,.57.8l4.61.73a.69.69,0,0,0,.79-.57l.47-3a.69.69,0,0,1,.6-.58,13.14,13.14,0,0,0,3.3-.79.69.69,0,0,1,.8.25l1.76,2.44a.7.7,0,0,0,1,.15l3.78-2.73a.69.69,0,0,0,.15-1l-1.76-2.44a.69.69,0,0,1,0-.83,13.38,13.38,0,0,0,1.78-2.89.68.68,0,0,1,.73-.39l3,.48A.69.69,0,0,0,1217.56,231.09Zm-18.13,2.77a8,8,0,1,1,9-5.13A8,8,0,0,1,1199.43,233.86Z"/><path className="cls-31" d="M1200.52,244.05h-.2l-4.6-.74a1.23,1.23,0,0,1-1-1.4l.48-3a.16.16,0,0,0-.08-.17,14.08,14.08,0,0,1-3-1.85.17.17,0,0,0-.19,0l-2.44,1.77a1.2,1.2,0,0,1-1.7-.28l-2.74-3.77a1.22,1.22,0,0,1,.27-1.71l2.44-1.77a.14.14,0,0,0,.06-.17,14,14,0,0,1-.81-3.44.19.19,0,0,0-.14-.13l-3-.47a1.23,1.23,0,0,1-1-1.4l.74-4.61a1.26,1.26,0,0,1,.49-.8,1.23,1.23,0,0,1,.91-.21l3,.47a.15.15,0,0,0,.16-.08,14.26,14.26,0,0,1,1.85-3,.17.17,0,0,0,0-.19l-1.77-2.44a1.23,1.23,0,0,1,.28-1.71l3.78-2.73a1.21,1.21,0,0,1,1.7.27l1.77,2.44a.16.16,0,0,0,.18.06,13.85,13.85,0,0,1,3.43-.82.16.16,0,0,0,.13-.13l.47-3a1.23,1.23,0,0,1,1.4-1l4.61.74a1.2,1.2,0,0,1,.8.49,1.17,1.17,0,0,1,.21.91l-.47,3a.16.16,0,0,0,.08.17,13.69,13.69,0,0,1,3,1.85.15.15,0,0,0,.18,0l2.44-1.77a1.23,1.23,0,0,1,1.71.27l2.74,3.78a1.22,1.22,0,0,1,.21.91,1.2,1.2,0,0,1-.49.8l-2.44,1.76a.19.19,0,0,0-.06.18,13.62,13.62,0,0,1,.82,3.43.15.15,0,0,0,.13.13l3,.48a1.22,1.22,0,0,1,1,1.4l-.73,4.61a1.23,1.23,0,0,1-1.4,1l-3-.48a.17.17,0,0,0-.17.09,13.82,13.82,0,0,1-1.84,3,.14.14,0,0,0,0,.19l1.76,2.44a1.22,1.22,0,0,1-.27,1.71l-3.78,2.73a1.23,1.23,0,0,1-1.71-.27l-1.76-2.44a.16.16,0,0,0-.18-.06,14.42,14.42,0,0,1-3.43.82.14.14,0,0,0-.13.13l-.48,3a1.17,1.17,0,0,1-.49.8A1.23,1.23,0,0,1,1200.52,244.05Zm-8.52-8.23a1.25,1.25,0,0,1,.76.26,12.53,12.53,0,0,0,2.77,1.71,1.23,1.23,0,0,1,.7,1.3l-.48,3a.16.16,0,0,0,.13.18l4.61.74a.17.17,0,0,0,.18-.13l.48-3a1.23,1.23,0,0,1,1.07-1,13.31,13.31,0,0,0,3.17-.75,1.21,1.21,0,0,1,1.41.42l1.76,2.44a.16.16,0,0,0,.23,0l3.78-2.73a.16.16,0,0,0,0-.23l-1.76-2.44a1.2,1.2,0,0,1,0-1.47,13.24,13.24,0,0,0,1.71-2.78,1.2,1.2,0,0,1,1.3-.69l3,.47a.18.18,0,0,0,.19-.13l.73-4.61a.16.16,0,0,0-.13-.18l-3-.48a1.2,1.2,0,0,1-1-1.06,12.75,12.75,0,0,0-.76-3.17,1.24,1.24,0,0,1,.43-1.42l2.44-1.76a.14.14,0,0,0,.06-.11.14.14,0,0,0,0-.12l-2.74-3.78a.17.17,0,0,0-.22,0l-2.44,1.76a1.2,1.2,0,0,1-1.48,0,12.56,12.56,0,0,0-2.78-1.7,1.23,1.23,0,0,1-.69-1.31l.48-3a.13.13,0,0,0,0-.12.15.15,0,0,0-.11-.07l-4.6-.73a.18.18,0,0,0-.19.13l-.47,3a1.23,1.23,0,0,1-1.07,1,12.84,12.84,0,0,0-3.17.75,1.21,1.21,0,0,1-1.41-.43l-1.77-2.44a.15.15,0,0,0-.22,0l-3.78,2.73a.2.2,0,0,0,0,.23l1.77,2.44a1.22,1.22,0,0,1,0,1.47,12.84,12.84,0,0,0-1.71,2.78,1.21,1.21,0,0,1-1.3.69l-3-.47a.16.16,0,0,0-.18.13l-.74,4.6a.17.17,0,0,0,.14.19l3,.48a1.21,1.21,0,0,1,1,1.06,12.86,12.86,0,0,0,.76,3.17,1.22,1.22,0,0,1-.43,1.41l-2.44,1.77a.18.18,0,0,0-.07.1.19.19,0,0,0,0,.12l2.74,3.78a.18.18,0,0,0,.1.07.19.19,0,0,0,.12,0l2.44-1.77A1.28,1.28,0,0,1,1192,235.82Zm8.87-1.3a8,8,0,0,1-1.54-.14,8.52,8.52,0,1,1,1.54.14Zm0-15.93a7.44,7.44,0,0,0-1.37,14.75h0a7.44,7.44,0,0,0,2.71-14.63A7.67,7.67,0,0,0,1200.9,218.59Z"/><path className="cls-30" d="M1579.8,134.45a.53.53,0,0,1-.53-.53v-4.25a.53.53,0,0,1,.53-.53.53.53,0,0,1,.53.53v4.25A.53.53,0,0,1,1579.8,134.45Zm0-8.49a.53.53,0,0,1-.53-.54v-4.24a.53.53,0,0,1,.53-.53.53.53,0,0,1,.53.53v4.24A.54.54,0,0,1,1579.8,126Zm-3.08-5.42h-4.25a.53.53,0,1,1,0-1.06h4.25a.53.53,0,0,1,0,1.06Zm-8.49,0H1564a.53.53,0,1,1,0-1.06h4.25a.53.53,0,0,1,0,1.06Zm-8.5,0h-4.24a.53.53,0,1,1,0-1.06h4.24a.53.53,0,1,1,0,1.06Zm-8.49,0H1547a.53.53,0,1,1,0-1.06h4.24a.53.53,0,0,1,0,1.06Zm-8.49,0h-4.25a.53.53,0,1,1,0-1.06h4.25a.53.53,0,0,1,0,1.06Zm-8.49,0H1531a.53.53,0,0,1-.53-.53v-1a.53.53,0,0,1,.53-.53.53.53,0,0,1,.53.53v.5h2.69a.53.53,0,0,1,0,1.06Zm-64.78-2a.54.54,0,0,1-.54-.53v-4.25a.54.54,0,0,1,1.07,0V118A.53.53,0,0,1,1469.48,118.57Zm61.56-3.3a.53.53,0,0,1-.53-.53v-4.25a.53.53,0,0,1,.53-.53.53.53,0,0,1,.53.53v4.25A.53.53,0,0,1,1531,115.27Zm-61.56-5.19a.54.54,0,0,1-.54-.53V105.3a.54.54,0,0,1,1.07,0v4.25A.53.53,0,0,1,1469.48,110.08Zm61.56-3.3a.53.53,0,0,1-.53-.53V102a.53.53,0,0,1,.53-.53.53.53,0,0,1,.53.53v4.25A.53.53,0,0,1,1531,106.78Zm-61.56-5.19a.54.54,0,0,1-.54-.53V98.34a.54.54,0,0,1,.54-.53H1471a.53.53,0,0,1,0,1.06h-1v2.19A.53.53,0,0,1,1469.48,101.59Zm61-2.72h-4.24a.53.53,0,1,1,0-1.06h4.24a.53.53,0,0,1,0,1.06Zm-8.49,0h-4.25a.53.53,0,1,1,0-1.06H1522a.53.53,0,0,1,0,1.06Zm-8.49,0h-4.25a.53.53,0,1,1,0-1.06h4.25a.53.53,0,0,1,0,1.06Zm-8.5,0h-4.24a.53.53,0,1,1,0-1.06H1505a.53.53,0,1,1,0,1.06Zm-8.49,0h-4.24a.53.53,0,1,1,0-1.06h4.24a.53.53,0,0,1,0,1.06Zm-8.49,0h-4.25a.53.53,0,1,1,0-1.06H1488a.53.53,0,0,1,0,1.06Zm-8.49,0h-4.25a.53.53,0,1,1,0-1.06h4.25a.53.53,0,0,1,0,1.06Z"/><path className="cls-32" d="M1456.18,113.58a.53.53,0,0,1-.53-.53V108.8a.53.53,0,0,1,.53-.53.53.53,0,0,1,.53.53v4.25A.53.53,0,0,1,1456.18,113.58Zm0-8.49a.53.53,0,0,1-.53-.53v-4.25a.53.53,0,0,1,.53-.53.53.53,0,0,1,.53.53v4.25A.53.53,0,0,1,1456.18,105.09Z"/><path className="cls-32" d="M1574.38,137.22a.53.53,0,0,1-.53-.53v-4.25a.53.53,0,0,1,1.06,0v4.25A.53.53,0,0,1,1574.38,137.22Zm0-8.49a.53.53,0,0,1-.53-.53V124a.53.53,0,0,1,1.06,0v4.25A.53.53,0,0,1,1574.38,128.73Z"/><path className="cls-30" d="M1684.7,311.9a.53.53,0,0,1-.53-.53v-4.25a.53.53,0,0,1,1.06,0v4.25A.53.53,0,0,1,1684.7,311.9Zm0-8.49a.54.54,0,0,1-.53-.54v-4.24a.53.53,0,0,1,1.06,0v4.24A.54.54,0,0,1,1684.7,303.41Zm29.06-6.55h-1.64a.53.53,0,1,1,0-1.06h1.11v-2.08a.53.53,0,0,1,1.06,0v2.61A.53.53,0,0,1,1713.76,296.86Zm-5.88,0h-4.25a.53.53,0,0,1,0-1.06h4.25a.53.53,0,0,1,0,1.06Zm-8.5,0h-4.24a.53.53,0,0,1,0-1.06h4.24a.53.53,0,1,1,0,1.06Zm-8.49,0h-4.24a.53.53,0,0,1,0-1.06h4.24a.53.53,0,0,1,0,1.06Zm22.87-6.86a.53.53,0,0,1-.53-.53v-4.24a.53.53,0,0,1,1.06,0v4.24A.53.53,0,0,1,1713.76,290Zm0-8.49a.53.53,0,0,1-.53-.53v-4.25a.53.53,0,0,1,1.06,0V281A.53.53,0,0,1,1713.76,281.51Zm0-8.49a.53.53,0,0,1-.53-.53v-4.25a.53.53,0,0,1,1.06,0v4.25A.53.53,0,0,1,1713.76,273Zm0-8.49a.53.53,0,0,1-.53-.53v-4.25a.53.53,0,0,1,1.06,0V264A.53.53,0,0,1,1713.76,264.53Zm0-8.5a.53.53,0,0,1-.53-.53v-4.24a.53.53,0,0,1,1.06,0v4.24A.53.53,0,0,1,1713.76,256Zm-1.55-6.94H1708a.54.54,0,0,1,0-1.07h4.24a.54.54,0,0,1,0,1.07Zm-8.49,0h-4.24a.54.54,0,0,1,0-1.07h4.24a.54.54,0,0,1,0,1.07Z"/><path className="cls-30" d="M1460.61,462.1a.54.54,0,0,1-.53-.54v-2.8a.53.53,0,1,1,1.06,0v2.8A.54.54,0,0,1,1460.61,462.1Zm0-7.05a.53.53,0,0,1-.53-.53v-4.25a.53.53,0,1,1,1.06,0v4.25A.53.53,0,0,1,1460.61,455.05Zm0-8.49a.54.54,0,0,1-.53-.54v-1.2h-2a.53.53,0,0,1,0-1.06h2.51a.53.53,0,0,1,.53.53V446A.54.54,0,0,1,1460.61,446.56Zm-6.76-1.74h-4.25a.53.53,0,0,1,0-1.06h4.25a.53.53,0,1,1,0,1.06Zm-8.49,0h-4.25a.53.53,0,0,1,0-1.06h4.25a.53.53,0,1,1,0,1.06Zm-8.49,0h-4.25a.53.53,0,0,1,0-1.06h4.25a.53.53,0,1,1,0,1.06Zm-8.5,0h-4.24a.53.53,0,1,1,0-1.06h4.24a.53.53,0,1,1,0,1.06Zm-8.49,0h-4.24a.53.53,0,1,1,0-1.06h4.24a.53.53,0,0,1,0,1.06Zm-8.49,0h-.65a.53.53,0,0,1-.53-.53v-3.6a.53.53,0,0,1,.53-.53.53.53,0,0,1,.53.53v3.07h.12a.53.53,0,0,1,0,1.06Zm-.65-7.84a.54.54,0,0,1-.53-.54V432.2a.53.53,0,0,1,.53-.53.53.53,0,0,1,.53.53v4.24A.53.53,0,0,1,1410.74,437Z"/><path className="cls-32" d="M1468.74,461.25a.53.53,0,0,1-.53-.53v-4.25a.53.53,0,0,1,.53-.53.53.53,0,0,1,.53.53v4.25A.53.53,0,0,1,1468.74,461.25Zm0-8.49a.53.53,0,0,1-.53-.53V448a.53.53,0,0,1,.53-.53.53.53,0,0,1,.53.53v4.25A.53.53,0,0,1,1468.74,452.76Zm0-8.49a.53.53,0,0,1-.53-.53v-4.25a.53.53,0,0,1,.53-.53.53.53,0,0,1,.53.53v4.25A.53.53,0,0,1,1468.74,444.27Zm-1.48-7H1463a.53.53,0,1,1,0-1.06h4.24a.53.53,0,0,1,0,1.06Zm-8.49,0h-4.25a.53.53,0,0,1,0-1.06h4.25a.53.53,0,0,1,0,1.06Zm-8.49,0H1446a.53.53,0,0,1,0-1.06h4.25a.53.53,0,0,1,0,1.06Zm-8.49,0h-4.25a.53.53,0,0,1,0-1.06h4.25a.53.53,0,0,1,0,1.06Zm-8.5,0h-4.24a.53.53,0,0,1,0-1.06h4.24a.53.53,0,0,1,0,1.06Zm-8.49,0h-4.25a.53.53,0,0,1,0-1.06h4.25a.53.53,0,0,1,0,1.06Zm-5.93-2.56a.53.53,0,0,1-.53-.53v-4.25a.53.53,0,0,1,1.06,0v4.25A.53.53,0,0,1,1418.87,434.69Z"/><path className="cls-32" d="M1692.58,318.18a.53.53,0,0,1-.53-.53V313.4a.53.53,0,1,1,1.06,0v4.25A.53.53,0,0,1,1692.58,318.18Zm0-8.49a.53.53,0,0,1-.53-.53v-4.25a.53.53,0,1,1,1.06,0v4.25A.53.53,0,0,1,1692.58,309.69Zm24.28-5.44h-4.24a.53.53,0,0,1-.53-.53.52.52,0,0,1,.53-.53h4.24a.52.52,0,0,1,.53.53A.53.53,0,0,1,1716.86,304.25Zm-8.49,0h-4.25a.53.53,0,0,1-.53-.53.53.53,0,0,1,.53-.53h4.25a.53.53,0,0,1,.53.53A.53.53,0,0,1,1708.37,304.25Zm-8.49,0h-4.25a.53.53,0,0,1-.53-.53.53.53,0,0,1,.53-.53h4.25a.53.53,0,0,1,.53.53A.53.53,0,0,1,1699.88,304.25Zm19.79-1.44a.53.53,0,0,1-.53-.53V298a.53.53,0,1,1,1.06,0v4.25A.53.53,0,0,1,1719.67,302.81Zm0-8.49a.54.54,0,0,1-.53-.54v-4.24a.53.53,0,1,1,1.06,0v4.24A.54.54,0,0,1,1719.67,294.32Zm0-8.5a.53.53,0,0,1-.53-.53v-4.24a.53.53,0,1,1,1.06,0v4.24A.53.53,0,0,1,1719.67,285.82Zm0-8.49a.53.53,0,0,1-.53-.53v-4.25a.53.53,0,1,1,1.06,0v4.25A.53.53,0,0,1,1719.67,277.33Zm0-8.49a.53.53,0,0,1-.53-.53v-4.25a.53.53,0,1,1,1.06,0v4.25A.53.53,0,0,1,1719.67,268.84Zm0-8.49a.53.53,0,0,1-.53-.53v-4.25a.53.53,0,1,1,1.06,0v4.25A.53.53,0,0,1,1719.67,260.35Zm0-8.5a.53.53,0,0,1-.53-.53v-4.24a.53.53,0,1,1,1.06,0v4.24A.53.53,0,0,1,1719.67,251.85Z"/><path className="cls-30" d="M1190.22,337.27a.53.53,0,0,1-.53-.53v-4.25a.53.53,0,0,1,.53-.53.53.53,0,0,1,.53.53v4.25A.53.53,0,0,1,1190.22,337.27Zm0-8.49a.53.53,0,0,1-.53-.53V324a.53.53,0,0,1,.53-.53.53.53,0,0,1,.53.53v4.25A.53.53,0,0,1,1190.22,328.78Zm0-8.5a.53.53,0,0,1-.53-.53v-4.24a.53.53,0,0,1,.53-.53.52.52,0,0,1,.53.53v4.24A.52.52,0,0,1,1190.22,320.28Zm0-8.49a.53.53,0,0,1-.53-.53V307a.53.53,0,0,1,.53-.53.53.53,0,0,1,.53.53v4.25A.53.53,0,0,1,1190.22,311.79Zm0-8.49a.53.53,0,0,1-.53-.53v-4.25a.53.53,0,0,1,.53-.53.53.53,0,0,1,.53.53v4.25A.53.53,0,0,1,1190.22,303.3Zm0-8.49a.53.53,0,0,1-.53-.53V290a.53.53,0,0,1,.53-.53.53.53,0,0,1,.53.53v4.25A.53.53,0,0,1,1190.22,294.81Zm0-8.49a.53.53,0,0,1-.53-.53v-4.25a.53.53,0,0,1,.53-.53.53.53,0,0,1,.53.53v4.25A.53.53,0,0,1,1190.22,286.32Zm0-8.5a.53.53,0,0,1-.53-.53v-4.24a.53.53,0,0,1,.53-.53.52.52,0,0,1,.53.53v4.24A.52.52,0,0,1,1190.22,277.82Zm0-8.49a.53.53,0,0,1-.53-.53v-4.25a.53.53,0,0,1,.53-.53.53.53,0,0,1,.53.53v4.25A.53.53,0,0,1,1190.22,269.33Zm0-8.49a.53.53,0,0,1-.53-.53v-4.25a.53.53,0,0,1,.53-.53.53.53,0,0,1,.53.53v4.25A.53.53,0,0,1,1190.22,260.84Zm0-8.49a.53.53,0,0,1-.53-.53v-4.25a.53.53,0,0,1,.53-.53.53.53,0,0,1,.53.53v4.25A.53.53,0,0,1,1190.22,252.35Z"/><path className="cls-30" d="M1212,135.93a.47.47,0,0,1-.47-.28L1209,131l-4.63-2.55a.54.54,0,0,1,0-.93L1209,125l2.55-4.64a.52.52,0,0,1,.47-.27h0a.53.53,0,0,1,.46.28L1215,125l4.63,2.55a.53.53,0,0,1,.27.47.52.52,0,0,1-.27.46L1215,131l-2.55,4.63A.53.53,0,0,1,1212,135.93Zm-6.27-7.94,3.92,2.16a.53.53,0,0,1,.21.21l2.14,3.93,2.16-3.92a.47.47,0,0,1,.21-.21l3.93-2.14-3.92-2.15a.53.53,0,0,1-.21-.21l-2.14-3.93-2.15,3.92a.63.63,0,0,1-.22.21Z"/><path className="cls-30" d="M1297.81,471.93h0a.52.52,0,0,1-.47-.27l-2.61-4.82-4.8-2.63a.53.53,0,0,1-.27-.47.53.53,0,0,1,.27-.47l4.81-2.61,2.64-4.8a.55.55,0,0,1,.47-.27h0a.53.53,0,0,1,.47.28l2.61,4.81,4.8,2.64a.52.52,0,0,1,.27.46.53.53,0,0,1-.28.47l-4.81,2.61-2.64,4.8A.52.52,0,0,1,1297.81,471.93Zm-6.52-8.19,4.08,2.25a.56.56,0,0,1,.22.21l2.22,4.1,2.25-4.09a.53.53,0,0,1,.21-.21l4.09-2.22-4.08-2.25a.53.53,0,0,1-.21-.21l-2.22-4.1-2.25,4.09a.53.53,0,0,1-.21.21Z"/><path className="cls-31" d="M1645.73,122.37h0a.51.51,0,0,1-.46-.28l-1.69-3.09-3.08-1.7a.53.53,0,0,1,0-.93l3.1-1.69,1.69-3.08a.56.56,0,0,1,.47-.28h0a.56.56,0,0,1,.47.28l1.68,3.1,3.09,1.7a.52.52,0,0,1,.27.46.54.54,0,0,1-.28.47L1647.9,119l-1.7,3.09A.53.53,0,0,1,1645.73,122.37Zm-3.87-5.53,2.37,1.3a.6.6,0,0,1,.21.21l1.3,2.38,1.3-2.37a.53.53,0,0,1,.21-.21l2.38-1.29-2.37-1.31a.53.53,0,0,1-.21-.21l-1.29-2.38-1.31,2.37a.53.53,0,0,1-.21.21Z"/><path className="cls-30" d="M1720,386.44h0a.53.53,0,0,1-.47-.27l-2.61-4.81-4.8-2.64a.55.55,0,0,1-.27-.47.56.56,0,0,1,.28-.47l4.81-2.61,2.64-4.8a.52.52,0,0,1,.46-.27h0a.53.53,0,0,1,.47.28l2.61,4.81,4.8,2.64a.5.5,0,0,1,.27.46.52.52,0,0,1-.27.47l-4.81,2.61-2.64,4.8A.55.55,0,0,1,1720,386.44Zm-6.51-8.19,4.08,2.25a.53.53,0,0,1,.21.21l2.22,4.1,2.25-4.09a.6.6,0,0,1,.21-.21l4.1-2.22-4.09-2.25a.53.53,0,0,1-.21-.21l-2.22-4.09-2.25,4.08a.53.53,0,0,1-.21.21Z"/><path className="cls-35" d="M1357.65,108.35a.53.53,0,0,1-.53-.53v-5a.54.54,0,0,1,1.07,0v5A.54.54,0,0,1,1357.65,108.35Z"/><path className="cls-35" d="M1357.65,121.09a.53.53,0,0,1-.53-.53v-5a.54.54,0,0,1,1.07,0v5A.54.54,0,0,1,1357.65,121.09Z"/><path className="cls-35" d="M1366.5,112.24h-5a.53.53,0,1,1,0-1.06h5a.53.53,0,0,1,0,1.06Z"/><path className="cls-35" d="M1353.77,112.24h-5a.53.53,0,1,1,0-1.06h5a.53.53,0,0,1,0,1.06Z"/><line className="cls-28" x1="1351.4" y1="117.97" x2="1354.9" y2="114.46"/><path className="cls-35" d="M1351.4,118.5a.54.54,0,0,1-.38-.91l3.51-3.51a.54.54,0,0,1,.75,0,.54.54,0,0,1,0,.76l-3.51,3.5A.5.5,0,0,1,1351.4,118.5Z"/><line className="cls-28" x1="1360.4" y1="108.96" x2="1363.91" y2="105.45"/><path className="cls-35" d="M1360.4,109.49a.53.53,0,0,1-.37-.15.54.54,0,0,1,0-.76l3.51-3.5a.53.53,0,0,1,.75,0,.54.54,0,0,1,0,.75l-3.51,3.51A.54.54,0,0,1,1360.4,109.49Z"/><line className="cls-28" x1="1351.4" y1="105.45" x2="1354.9" y2="108.96"/><path className="cls-35" d="M1354.9,109.49a.53.53,0,0,1-.37-.15l-3.51-3.51a.53.53,0,0,1,.75-.75l3.51,3.5a.53.53,0,0,1-.38.91Z"/><line className="cls-28" x1="1360.4" y1="114.46" x2="1363.91" y2="117.97"/><path className="cls-35" d="M1363.91,118.5a.5.5,0,0,1-.37-.16l-3.51-3.5a.54.54,0,0,1,0-.76.54.54,0,0,1,.75,0l3.51,3.51a.54.54,0,0,1,0,.75A.52.52,0,0,1,1363.91,118.5Z"/><path className="cls-35" d="M1714.55,191.51a.53.53,0,0,1-.53-.53v-5a.53.53,0,0,1,1.06,0v5A.53.53,0,0,1,1714.55,191.51Z"/><path className="cls-35" d="M1714.55,204.25a.53.53,0,0,1-.53-.53v-5a.53.53,0,0,1,1.06,0v5A.53.53,0,0,1,1714.55,204.25Z"/><path className="cls-35" d="M1723.4,195.4h-5a.52.52,0,0,1-.53-.53.53.53,0,0,1,.53-.53h5a.53.53,0,0,1,.53.53A.53.53,0,0,1,1723.4,195.4Z"/><path className="cls-35" d="M1710.66,195.4h-5a.53.53,0,0,1-.53-.53.53.53,0,0,1,.53-.53h5a.53.53,0,0,1,.53.53A.53.53,0,0,1,1710.66,195.4Z"/><line className="cls-28" x1="1708.29" y1="201.13" x2="1711.8" y2="197.62"/><path className="cls-35" d="M1708.29,201.66a.49.49,0,0,1-.37-.16.53.53,0,0,1,0-.75l3.5-3.5a.53.53,0,0,1,.75.75l-3.5,3.5A.52.52,0,0,1,1708.29,201.66Z"/><line className="cls-28" x1="1717.3" y1="192.12" x2="1720.81" y2="188.61"/><path className="cls-35" d="M1717.3,192.65a.55.55,0,0,1-.38-.15.54.54,0,0,1,0-.75l3.51-3.51a.53.53,0,0,1,.75.75l-3.51,3.51A.53.53,0,0,1,1717.3,192.65Z"/><line className="cls-28" x1="1708.29" y1="188.61" x2="1711.8" y2="192.12"/><path className="cls-35" d="M1711.8,192.65a.55.55,0,0,1-.38-.15l-3.5-3.51a.53.53,0,0,1,.75-.75l3.5,3.51a.53.53,0,0,1,0,.75A.53.53,0,0,1,1711.8,192.65Z"/><line className="cls-28" x1="1717.3" y1="197.62" x2="1720.81" y2="201.13"/><path className="cls-35" d="M1720.81,201.66a.51.51,0,0,1-.38-.16l-3.51-3.5a.54.54,0,0,1,0-.75.53.53,0,0,1,.75,0l3.51,3.5a.53.53,0,0,1,0,.75A.5.5,0,0,1,1720.81,201.66Z"/><path className="cls-30" d="M1172.08,309.2a3.58,3.58,0,1,1,3.57-3.58A3.58,3.58,0,0,1,1172.08,309.2Zm0-6.08a2.51,2.51,0,1,0,2.51,2.5A2.51,2.51,0,0,0,1172.08,303.12Z"/><path className="cls-36" d="M1702.92,137.13a3.58,3.58,0,1,1,3.58-3.57A3.58,3.58,0,0,1,1702.92,137.13Zm0-6.08a2.51,2.51,0,1,0,2.51,2.51A2.51,2.51,0,0,0,1702.92,131.05Z"/><path className="cls-37" d="M1735.43,329.12a3.57,3.57,0,1,1,3.57-3.57A3.57,3.57,0,0,1,1735.43,329.12Zm0-6.08a2.51,2.51,0,1,0,2.51,2.51A2.51,2.51,0,0,0,1735.43,323Z"/><path className="cls-31" d="M1697,429.15a2.31,2.31,0,1,1,2.31-2.31A2.31,2.31,0,0,1,1697,429.15Zm0-3.55a1.25,1.25,0,1,0,1.25,1.24A1.25,1.25,0,0,0,1697,425.6Z"/><path className="cls-32" d="M1586.35,100.67a2.3,2.3,0,0,1-1.69-.74.53.53,0,0,1,0-.75.53.53,0,0,1,.75,0,1.22,1.22,0,0,0,.91.4,1.25,1.25,0,0,0,.09-2.49.53.53,0,0,1-.49-.56.53.53,0,0,1,.57-.49,2.3,2.3,0,0,1-.17,4.6Z"/><path className="cls-31" d="M1154,233.67a2.31,2.31,0,1,1,2.31-2.3A2.3,2.3,0,0,1,1154,233.67Zm0-3.55a1.25,1.25,0,1,0,1.25,1.25A1.25,1.25,0,0,0,1154,230.12Z"/><path className="cls-31" d="M1428.1,104.39a2.31,2.31,0,1,1,2.31-2.31A2.3,2.3,0,0,1,1428.1,104.39Zm0-3.55a1.25,1.25,0,1,0,1.25,1.24A1.25,1.25,0,0,0,1428.1,100.84Z"/><path className="cls-28" d="M1385.24,467.9l12.26-45.07h-60l-12.13,45.09.79,0Z"/><path className="cls-35" d="M1325.38,468.45a.57.57,0,0,1-.44-.2.51.51,0,0,1-.13-.47l12.13-45.09a.53.53,0,0,1,.51-.39h60a.53.53,0,0,1,.42.21.51.51,0,0,1,.09.46L1385.75,468a.52.52,0,0,1-.51.4h-59.13l-.7,0Zm12.48-45.09-11.84,44h58.81l12-44Z"/><path className="cls-35" d="M1423.79,471.17l-.63-.35a24.65,24.65,0,0,0-11.87-2.92h-85.18l-.79,0c-6,.24-11.31,3.25-13.46,7.71l-3.4,7.07h122.78C1431.24,478,1428.33,473.88,1423.79,471.17Z"/><polygon className="cls-38" points="1395.84 428.93 1329.48 453.07 1335.88 428.67 1395.91 428.67 1395.84 428.93"/><path className="cls-28" d="M1508.41,428.67H1241.26a9.37,9.37,0,0,1-9.15-9.57V245.82a9.38,9.38,0,0,1,9.15-9.58h267.15a9.38,9.38,0,0,1,9.16,9.58V419.1A9.37,9.37,0,0,1,1508.41,428.67Z"/><path className="cls-35" d="M1508.41,429.2H1241.26a9.91,9.91,0,0,1-9.68-10.1V245.82a9.91,9.91,0,0,1,9.68-10.11h267.15a9.92,9.92,0,0,1,9.69,10.11V419.1A9.91,9.91,0,0,1,1508.41,429.2ZM1241.26,236.77a8.86,8.86,0,0,0-8.62,9V419.1a8.85,8.85,0,0,0,8.62,9h267.15a8.85,8.85,0,0,0,8.63-9V245.82a8.86,8.86,0,0,0-8.63-9Z"/><path className="cls-35" d="M1232.11,419.1V245.82a9.38,9.38,0,0,1,9-9.57h-9.43a9.38,9.38,0,0,0-9.15,9.59V419.46a9.39,9.39,0,0,0,9.15,9.6h267.16a8.65,8.65,0,0,0,2.55-.39H1241.26A9.37,9.37,0,0,1,1232.11,419.1Z"/><path className="cls-35" d="M1498.86,429.59H1231.7a9.93,9.93,0,0,1-9.68-10.13V245.84a9.92,9.92,0,0,1,9.68-10.12h9.43v1.06a8.88,8.88,0,0,0-8.49,9V419.1a8.85,8.85,0,0,0,8.62,9H1505l-3.4,1A9.43,9.43,0,0,1,1498.86,429.59ZM1231.7,236.78a8.86,8.86,0,0,0-8.62,9.06V419.46a8.87,8.87,0,0,0,8.62,9.07h6.08a10.12,10.12,0,0,1-6.2-9.43V245.82a10.21,10.21,0,0,1,5.38-9Z"/><path className="cls-39" d="M1249.54,288.63v-39a3,3,0,0,1,3-3h246.26a3,3,0,0,1,3,3V394.9H1249.54V356.38"/><path className="cls-35" d="M1501.76,395.43H1249.54a.53.53,0,0,1-.53-.53V356.38a.53.53,0,1,1,1.06,0v38h251.16V249.67a2.45,2.45,0,0,0-2.45-2.45H1252.52a2.45,2.45,0,0,0-2.45,2.45v39a.53.53,0,1,1-1.06,0v-39a3.51,3.51,0,0,1,3.51-3.51h246.26a3.51,3.51,0,0,1,3.51,3.51V394.9A.53.53,0,0,1,1501.76,395.43Z"/><path className="cls-35" d="M1249.54,336a.53.53,0,0,1-.53-.53v-29a.53.53,0,1,1,1.06,0v29A.53.53,0,0,1,1249.54,336Z"/><path className="cls-35" d="M1507.43,427.7h-265a9,9,0,0,1-9.08-8.89V394.9h283.19v23.91A9,9,0,0,1,1507.43,427.7Z"/><path className="cls-28" d="M1507.43,428.24h-265a9.53,9.53,0,0,1-9.61-9.43V394.9a.53.53,0,0,1,.53-.53h283.19a.53.53,0,0,1,.53.53v23.91A9.53,9.53,0,0,1,1507.43,428.24Zm-273.58-32.81v23.38a8.46,8.46,0,0,0,8.55,8.36h265a8.47,8.47,0,0,0,8.55-8.36V395.43Z"/><path className="cls-28" d="M1381.89,412.05a7.74,7.74,0,1,1-7.73-7.73A7.74,7.74,0,0,1,1381.89,412.05Z"/><path className="cls-35" d="M1374.15,420.32a8.27,8.27,0,1,1,8.27-8.27A8.28,8.28,0,0,1,1374.15,420.32Zm0-15.47a7.21,7.21,0,1,0,7.21,7.2A7.21,7.21,0,0,0,1374.15,404.85Z"/><path className="cls-39" d="M1378.72,412.05a4.57,4.57,0,1,1-4.56-4.56A4.56,4.56,0,0,1,1378.72,412.05Z"/><path className="cls-35" d="M1374.15,417.14a5.09,5.09,0,1,1,5.1-5.09A5.1,5.1,0,0,1,1374.15,417.14Zm0-9.12a4,4,0,1,0,4,4A4,4,0,0,0,1374.15,408Z"/><path className="cls-39" d="M1374.16,243.16h0a1.79,1.79,0,0,1-1.8-1.79h0a1.79,1.79,0,0,1,1.8-1.8h0a1.79,1.79,0,0,1,1.79,1.8h0A1.79,1.79,0,0,1,1374.16,243.16Z"/><path className="cls-35" d="M1374.15,243.69a2.33,2.33,0,1,1,2.33-2.32A2.32,2.32,0,0,1,1374.15,243.69Zm0-3.59a1.27,1.27,0,1,0,1.27,1.27A1.27,1.27,0,0,0,1374.15,240.1Z"/><path className="cls-31" d="M1284.78,310.28a.53.53,0,0,1-.53-.53V297.19a.54.54,0,0,1,1.07,0v12.56A.54.54,0,0,1,1284.78,310.28Z"/><path className="cls-31" d="M1329.48,356.64a.53.53,0,0,1-.53-.53V340.22a.53.53,0,1,1,1.06,0v15.89A.53.53,0,0,1,1329.48,356.64Z"/><path className="cls-31" d="M1372.14,310.28a.53.53,0,0,1-.53-.53V297.19a.53.53,0,0,1,.53-.53.53.53,0,0,1,.53.53v12.56A.53.53,0,0,1,1372.14,310.28Z"/><path className="cls-40" d="M1328.93,310.28a.53.53,0,0,1-.53-.53V297.19a.53.53,0,0,1,.53-.53.53.53,0,0,1,.53.53v12.56A.53.53,0,0,1,1328.93,310.28Z"/><path className="cls-40" d="M1372,356.94a.53.53,0,0,1-.53-.53V340a.53.53,0,1,1,1.06,0v16.37A.53.53,0,0,1,1372,356.94Z"/><path className="cls-40" d="M1310.83,368.64h-12.56a.53.53,0,0,1,0-1.06h12.56a.53.53,0,0,1,0,1.06Z"/><rect className="cls-40" x="1270.26" y="266.98" width="118.59" height="30.04" rx="1.06"/><path className="cls-35" d="M1387.72,297.56H1271.39a1.66,1.66,0,0,1-1.66-1.66V268.11a1.66,1.66,0,0,1,1.66-1.66h116.33a1.67,1.67,0,0,1,1.66,1.66V295.9A1.67,1.67,0,0,1,1387.72,297.56Zm-116.33-30a.59.59,0,0,0-.6.59V295.9a.6.6,0,0,0,.6.6h116.33a.6.6,0,0,0,.6-.6V268.11a.59.59,0,0,0-.6-.59Z"/><rect className="cls-28" x="1270.52" y="309.97" width="29.52" height="29.52" rx="1.06"/><path className="cls-35" d="M1298.91,340h-27.26a1.66,1.66,0,0,1-1.66-1.65V311.09a1.66,1.66,0,0,1,1.66-1.65h27.26a1.65,1.65,0,0,1,1.66,1.65v27.27A1.65,1.65,0,0,1,1298.91,340Zm-27.26-29.51a.6.6,0,0,0-.6.59v27.27a.6.6,0,0,0,.6.59h27.26a.6.6,0,0,0,.6-.59V311.09a.6.6,0,0,0-.6-.59Z"/><rect className="cls-31" x="1314.8" y="309.97" width="29.52" height="29.52" rx="1.06"/><path className="cls-35" d="M1343.18,340h-27.26a1.66,1.66,0,0,1-1.66-1.65V311.09a1.66,1.66,0,0,1,1.66-1.65h27.26a1.65,1.65,0,0,1,1.66,1.65v27.27A1.65,1.65,0,0,1,1343.18,340Zm-27.26-29.51a.59.59,0,0,0-.59.59v27.27a.59.59,0,0,0,.59.59h27.26a.6.6,0,0,0,.6-.59V311.09a.6.6,0,0,0-.6-.59Z"/><rect className="cls-28" x="1358.15" y="309.97" width="29.52" height="29.52" rx="1.06"/><path className="cls-35" d="M1386.54,340h-27.27a1.65,1.65,0,0,1-1.65-1.65V311.09a1.65,1.65,0,0,1,1.65-1.65h27.27a1.65,1.65,0,0,1,1.65,1.65v27.27A1.65,1.65,0,0,1,1386.54,340Zm-27.27-29.51a.6.6,0,0,0-.59.59v27.27a.6.6,0,0,0,.59.59h27.27a.59.59,0,0,0,.59-.59V311.09a.59.59,0,0,0-.59-.59Z"/><rect className="cls-28" x="1311.11" y="356.88" width="75.9" height="22.66" rx="10.67"/><path className="cls-35" d="M1375.67,380.07h-53.23a11.87,11.87,0,0,1,0-23.73h53.23a11.87,11.87,0,0,1,0,23.73Zm-53.23-22.66a10.8,10.8,0,1,0,0,21.6h53.23a10.8,10.8,0,0,0,0-21.6Z"/><path className="cls-28" d="M1437.89,333.77h-24.56a.54.54,0,0,1,0-1.07h24.56a.54.54,0,1,1,0,1.07Z"/><path className="cls-28" d="M1477.83,333.77H1448a.54.54,0,0,1,0-1.07h29.83a.54.54,0,1,1,0,1.07Z"/><path className="cls-28" d="M1458.16,373.25h-44.83a.53.53,0,1,1,0-1.06h44.83a.53.53,0,0,1,0,1.06Z"/><path className="cls-28" d="M1483.88,347.44h-70.55a.53.53,0,0,1-.53-.53.53.53,0,0,1,.53-.53h70.55a.53.53,0,0,1,.53.53A.53.53,0,0,1,1483.88,347.44Z"/><path className="cls-28" d="M1435.68,360.45h-22.35a.53.53,0,1,1,0-1.06h22.35a.53.53,0,0,1,0,1.06Z"/><path className="cls-28" d="M1483.26,360.45h-40.7a.53.53,0,1,1,0-1.06h40.7a.53.53,0,1,1,0,1.06Z"/><path className="cls-31" d="M1412.32,266.29h74.46a0,0,0,0,1,0,0v7.39a1.55,1.55,0,0,1-1.55,1.55h-70.9a2,2,0,0,1-2-2v-6.94A0,0,0,0,1,1412.32,266.29Z" transform="translate(2899.09 541.51) rotate(180)"/><path className="cls-28" d="M1422.1,272.56a1.91,1.91,0,1,1,1.9-1.91A1.91,1.91,0,0,1,1422.1,272.56Zm0-2.75a.85.85,0,1,0,.84.84A.85.85,0,0,0,1422.1,269.81Z"/><path className="cls-28" d="M1427.46,272.56a1.91,1.91,0,1,1,1.91-1.91A1.91,1.91,0,0,1,1427.46,272.56Zm0-2.75a.85.85,0,1,0,.84.84A.85.85,0,0,0,1427.46,269.81Z"/><path className="cls-28" d="M1416.77,272.56a1.91,1.91,0,1,1,1.91-1.91A1.91,1.91,0,0,1,1416.77,272.56Zm0-2.75a.85.85,0,1,0,.84.84A.85.85,0,0,0,1416.77,269.81Z"/><rect className="cls-28" x="1412.28" y="275.23" width="74.47" height="43.76" rx="0.23" transform="translate(2899.03 594.21) rotate(180)"/><path className="cls-31" d="M1477,286.37h-33.47a.53.53,0,0,1-.53-.53.53.53,0,0,1,.53-.53H1477a.52.52,0,0,1,.53.53A.53.53,0,0,1,1477,286.37Z"/><path className="cls-40" d="M1455.33,291.45h-11.76a.54.54,0,0,1,0-1.07h11.76a.54.54,0,0,1,0,1.07Z"/><path className="cls-31" d="M1474.44,291.45h-14.27a.54.54,0,1,1,0-1.07h14.27a.54.54,0,0,1,0,1.07Z"/><path className="cls-40" d="M1465,306.86h-21.45a.53.53,0,0,1-.53-.53.53.53,0,0,1,.53-.53H1465a.53.53,0,0,1,.54.53A.54.54,0,0,1,1465,306.86Z"/><path className="cls-40" d="M1477.34,296.78h-33.77a.53.53,0,0,1-.53-.53.53.53,0,0,1,.53-.53h33.77a.53.53,0,0,1,.53.53A.53.53,0,0,1,1477.34,296.78Z"/><path className="cls-31" d="M1454.27,301.86h-10.7a.53.53,0,1,1,0-1.06h10.7a.53.53,0,0,1,0,1.06Z"/><path className="cls-40" d="M1477,301.86h-19.48a.53.53,0,1,1,0-1.06H1477a.53.53,0,0,1,0,1.06Z"/><path className="cls-40" d="M1420.61,295.33a8.41,8.41,0,0,1,6.93-8.27l-.32-1.93a10.35,10.35,0,0,0-8.47,11.92l2-.33A8.08,8.08,0,0,1,1420.61,295.33Z"/><path className="cls-28" d="M1439.28,295.69a10.55,10.55,0,0,0-.14-2.09h0A10.55,10.55,0,0,1,1439.28,295.69Z"/><path className="cls-39" d="M1429,303.73a8.4,8.4,0,0,1-8.28-7l-2,.33a10.35,10.35,0,0,0,11.92,8.47l-.32-1.91A8.43,8.43,0,0,1,1429,303.73Z"/><path className="cls-31" d="M1439.14,293.6h0a10.35,10.35,0,0,0-11.92-8.47l.32,1.93a8,8,0,0,1,1.48-.14,8.4,8.4,0,0,1,1.33,16.69l.32,1.91a10.36,10.36,0,0,0,8.34-7.82,11.18,11.18,0,0,0,.27-2A10.55,10.55,0,0,0,1439.14,293.6Z"/><g className="cls-41"><path className="cls-42" d="M1704.34,241.31l-4.66-14.73a2.28,2.28,0,0,0-2.87-1.49l-9.52,3a2.25,2.25,0,0,1-2.59-.91,44.51,44.51,0,0,0-7.23-8.61,2.25,2.25,0,0,1-.46-2.71l4.6-8.86a2.29,2.29,0,0,0-1-3.09l-13.72-7.12a2.29,2.29,0,0,0-3.09,1l-4.6,8.86a2.28,2.28,0,0,1-2.48,1.19,44,44,0,0,0-11.2-1,2.28,2.28,0,0,1-2.24-1.6l-3-9.52a2.29,2.29,0,0,0-2.87-1.49l-14.74,4.65a2.3,2.3,0,0,0-1.49,2.88l3,9.51a2.28,2.28,0,0,1-.92,2.6,44.1,44.1,0,0,0-8.6,7.23,2.28,2.28,0,0,1-2.72.46l-8.85-4.6a2.28,2.28,0,0,0-3.09,1l-7.13,13.71a2.29,2.29,0,0,0,1,3.09l8.85,4.6a2.27,2.27,0,0,1,1.19,2.49,44,44,0,0,0-1,11.2,2.28,2.28,0,0,1-1.6,2.24l-9.51,3a2.3,2.3,0,0,0-1.5,2.88l4.66,14.73a2.29,2.29,0,0,0,2.87,1.5l9.52-3a2.27,2.27,0,0,1,2.59.91,43.91,43.91,0,0,0,7.24,8.61,2.28,2.28,0,0,1,.45,2.72l-4.6,8.85a2.29,2.29,0,0,0,1,3.09l13.71,7.13a2.3,2.3,0,0,0,3.09-1l4.6-8.86a2.26,2.26,0,0,1,2.48-1.18,44.51,44.51,0,0,0,11.2,1,2.27,2.27,0,0,1,2.24,1.6l3,9.51a2.29,2.29,0,0,0,2.87,1.5l14.74-4.66a2.3,2.3,0,0,0,1.49-2.88l-3-9.51a2.29,2.29,0,0,1,.92-2.6,43.75,43.75,0,0,0,8.6-7.23,2.28,2.28,0,0,1,2.72-.45l8.85,4.6a2.3,2.3,0,0,0,3.09-1l7.13-13.71a2.29,2.29,0,0,0-1-3.09l-8.85-4.6a2.26,2.26,0,0,1-1.19-2.48,44.09,44.09,0,0,0,1-11.21,2.27,2.27,0,0,1,1.6-2.23l9.52-3A2.3,2.3,0,0,0,1704.34,241.31ZM1654.76,275a26.39,26.39,0,1,1,18.88-28.49A26.4,26.4,0,0,1,1654.76,275Z"/></g><path className="cls-39" d="M1704.34,238.15l-4.66-14.73a2.28,2.28,0,0,0-2.87-1.49l-9.52,3a2.25,2.25,0,0,1-2.59-.91,44.51,44.51,0,0,0-7.23-8.61,2.25,2.25,0,0,1-.46-2.71l4.6-8.86a2.29,2.29,0,0,0-1-3.09l-13.72-7.12a2.29,2.29,0,0,0-3.09,1l-4.6,8.86a2.28,2.28,0,0,1-2.48,1.19,44.51,44.51,0,0,0-11.2-1,2.26,2.26,0,0,1-2.24-1.59l-3-9.52a2.28,2.28,0,0,0-2.87-1.49l-14.74,4.65a2.3,2.3,0,0,0-1.49,2.88l3,9.51a2.28,2.28,0,0,1-.92,2.6,44.1,44.1,0,0,0-8.6,7.23,2.28,2.28,0,0,1-2.72.46l-8.85-4.61a2.3,2.3,0,0,0-3.09,1l-7.13,13.71a2.29,2.29,0,0,0,1,3.09l8.85,4.6a2.27,2.27,0,0,1,1.19,2.49,44,44,0,0,0-1,11.2,2.28,2.28,0,0,1-1.6,2.24l-9.51,3a2.3,2.3,0,0,0-1.5,2.88l4.66,14.73a2.29,2.29,0,0,0,2.87,1.5l9.52-3a2.27,2.27,0,0,1,2.59.91,44.21,44.21,0,0,0,7.24,8.61,2.28,2.28,0,0,1,.45,2.72l-4.6,8.85a2.29,2.29,0,0,0,1,3.09l13.71,7.13a2.3,2.3,0,0,0,3.09-1l4.6-8.86a2.26,2.26,0,0,1,2.48-1.18,44.51,44.51,0,0,0,11.2,1,2.27,2.27,0,0,1,2.24,1.6l3,9.51a2.29,2.29,0,0,0,2.87,1.5l14.74-4.66a2.3,2.3,0,0,0,1.49-2.88l-3-9.51a2.29,2.29,0,0,1,.92-2.6,43.75,43.75,0,0,0,8.6-7.23,2.28,2.28,0,0,1,2.72-.45l8.85,4.6a2.3,2.3,0,0,0,3.09-1l7.13-13.71a2.29,2.29,0,0,0-1-3.09L1692,260a2.26,2.26,0,0,1-1.19-2.48,44.09,44.09,0,0,0,1-11.21,2.27,2.27,0,0,1,1.6-2.23l9.52-3A2.3,2.3,0,0,0,1704.34,238.15Zm-49.58,33.64a26.39,26.39,0,1,1,18.88-28.49A26.4,26.4,0,0,1,1654.76,271.79Z"/><path className="cls-40" d="M1704.59,232.63l-4.66-14.73a2.3,2.3,0,0,0-2.88-1.5l-9.51,3a2.27,2.27,0,0,1-2.6-.91,43.81,43.81,0,0,0-7.23-8.61,2.26,2.26,0,0,1-.45-2.71l4.6-8.86a2.3,2.3,0,0,0-1-3.09l-13.71-7.12a2.29,2.29,0,0,0-3.09,1l-4.6,8.86a2.29,2.29,0,0,1-2.48,1.19,44.55,44.55,0,0,0-11.21-1,2.24,2.24,0,0,1-2.23-1.59l-3-9.52a2.29,2.29,0,0,0-2.88-1.49l-14.73,4.65a2.28,2.28,0,0,0-1.49,2.88l3,9.51a2.26,2.26,0,0,1-.91,2.6,44.16,44.16,0,0,0-8.61,7.23,2.27,2.27,0,0,1-2.71.46l-8.86-4.61a2.3,2.3,0,0,0-3.09,1L1593.15,223a2.29,2.29,0,0,0,1,3.09l8.86,4.6a2.29,2.29,0,0,1,1.19,2.49,44,44,0,0,0-1,11.2,2.28,2.28,0,0,1-1.6,2.24l-9.52,3a2.3,2.3,0,0,0-1.49,2.88l4.65,14.73a2.3,2.3,0,0,0,2.88,1.5l9.51-3a2.28,2.28,0,0,1,2.6.91,44.16,44.16,0,0,0,7.23,8.61,2.28,2.28,0,0,1,.46,2.72l-4.61,8.85a2.3,2.3,0,0,0,1,3.09L1628,297a2.3,2.3,0,0,0,3.09-1l4.6-8.86a2.28,2.28,0,0,1,2.49-1.18,44.47,44.47,0,0,0,11.2,1,2.27,2.27,0,0,1,2.24,1.6l3,9.51a2.29,2.29,0,0,0,2.88,1.49l14.73-4.65a2.3,2.3,0,0,0,1.5-2.88l-3-9.51a2.28,2.28,0,0,1,.91-2.6,43.52,43.52,0,0,0,8.61-7.23,2.28,2.28,0,0,1,2.72-.45l8.85,4.6a2.3,2.3,0,0,0,3.09-1l7.13-13.71a2.3,2.3,0,0,0-1-3.09l-8.86-4.6A2.27,2.27,0,0,1,1691,252a44.55,44.55,0,0,0,1-11.21,2.25,2.25,0,0,1,1.6-2.23l9.51-3A2.3,2.3,0,0,0,1704.59,232.63ZM1655,267.75a26.39,26.39,0,1,1,18.87-28.49A26.4,26.4,0,0,1,1655,267.75Z"/><path className="cls-35" d="M1656.81,300.18a2.82,2.82,0,0,1-2.69-2l-3-9.51a1.71,1.71,0,0,0-1.71-1.23,45,45,0,0,1-11.34-1,1.74,1.74,0,0,0-1.89.92l-4.61,8.85a2.74,2.74,0,0,1-1.65,1.39,2.82,2.82,0,0,1-2.15-.18l-13.71-7.13a2.77,2.77,0,0,1-1.39-1.65,2.84,2.84,0,0,1,.18-2.16l4.61-8.85a1.74,1.74,0,0,0-.35-2.08,44.88,44.88,0,0,1-7.32-8.71,1.73,1.73,0,0,0-2-.69l-9.51,3a2.82,2.82,0,0,1-3.54-1.84l-4.66-14.73a2.83,2.83,0,0,1,1.84-3.54l9.52-3a1.72,1.72,0,0,0,1.22-1.71,45,45,0,0,1,1-11.34,1.74,1.74,0,0,0-.92-1.9l-8.85-4.6a2.81,2.81,0,0,1-1.2-3.8L1599.8,209a2.84,2.84,0,0,1,3.81-1.21l8.85,4.6a1.73,1.73,0,0,0,2.08-.34,44.88,44.88,0,0,1,8.71-7.32,1.73,1.73,0,0,0,.7-2l-3-9.51a2.78,2.78,0,0,1,.19-2.15,2.74,2.74,0,0,1,1.65-1.39l14.73-4.66a2.82,2.82,0,0,1,3.54,1.84l3,9.52a1.75,1.75,0,0,0,1.71,1.22,45,45,0,0,1,11.34,1,1.74,1.74,0,0,0,1.9-.92l4.6-8.85a2.83,2.83,0,0,1,3.81-1.2l13.71,7.12a2.83,2.83,0,0,1,1.2,3.81l-4.6,8.85a1.73,1.73,0,0,0,.34,2.08,44.88,44.88,0,0,1,7.32,8.71,1.75,1.75,0,0,0,2,.7l9.51-3a2.8,2.8,0,0,1,2.16.19,2.76,2.76,0,0,1,1.38,1.65l4.66,14.73a2.81,2.81,0,0,1-1.84,3.54l-9.51,3a1.73,1.73,0,0,0-1.23,1.71,44.52,44.52,0,0,1-1,11.34,1.76,1.76,0,0,0,.92,1.9l8.85,4.6a2.82,2.82,0,0,1,1.21,3.8l-7.13,13.72a2.81,2.81,0,0,1-3.8,1.2l-8.86-4.6a1.73,1.73,0,0,0-2.08.34,44.88,44.88,0,0,1-8.71,7.32,1.73,1.73,0,0,0-.69,2l3,9.51a2.81,2.81,0,0,1-1.84,3.54l-14.73,4.66A2.79,2.79,0,0,1,1656.81,300.18Zm-7.34-13.78a2.8,2.8,0,0,1,2.65,2l3,9.51a1.76,1.76,0,0,0,2.21,1.15l14.73-4.66a1.76,1.76,0,0,0,1.15-2.21l-3-9.51a2.8,2.8,0,0,1,1.14-3.2,44.05,44.05,0,0,0,8.5-7.15,2.81,2.81,0,0,1,3.35-.57l8.86,4.61a1.73,1.73,0,0,0,1.34.11,1.76,1.76,0,0,0,1-.86l7.13-13.71a1.77,1.77,0,0,0-.76-2.38l-8.85-4.6a2.8,2.8,0,0,1-1.46-3.07,43.72,43.72,0,0,0,1-11.06,2.8,2.8,0,0,1,2-2.77l9.51-3a1.76,1.76,0,0,0,1.15-2.21h0l-4.66-14.73a1.73,1.73,0,0,0-.86-1,1.76,1.76,0,0,0-1.35-.12l-9.51,3a2.8,2.8,0,0,1-3.2-1.13,43.82,43.82,0,0,0-7.15-8.51,2.79,2.79,0,0,1-.56-3.35l4.6-8.85a1.77,1.77,0,0,0-.75-2.38l-13.71-7.12a1.77,1.77,0,0,0-2.38.75l-4.6,8.85a2.82,2.82,0,0,1-3.07,1.47,43.73,43.73,0,0,0-11.06-1,2.8,2.8,0,0,1-2.77-2l-3-9.52a1.77,1.77,0,0,0-2.21-1.15l-14.73,4.66a1.77,1.77,0,0,0-1.15,2.21l3,9.51a2.82,2.82,0,0,1-1.13,3.21,43.42,43.42,0,0,0-8.51,7.14,2.81,2.81,0,0,1-3.35.57l-8.85-4.6a1.76,1.76,0,0,0-2.38.75l-7.12,13.71a1.75,1.75,0,0,0,.75,2.37l8.85,4.6a2.82,2.82,0,0,1,1.47,3.07,43.31,43.31,0,0,0-1,11.07,2.8,2.8,0,0,1-2,2.76l-9.52,3a1.77,1.77,0,0,0-1.15,2.21l4.66,14.73a1.76,1.76,0,0,0,2.21,1.15l9.51-3a2.82,2.82,0,0,1,3.21,1.14,43.65,43.65,0,0,0,7.14,8.5,2.81,2.81,0,0,1,.57,3.35l-4.6,8.85a1.76,1.76,0,0,0-.12,1.35,1.74,1.74,0,0,0,.87,1l13.71,7.12a1.75,1.75,0,0,0,2.37-.75l4.6-8.85a2.8,2.8,0,0,1,3.07-1.46,43.8,43.8,0,0,0,11.07,1Zm-1.8-17.09a26.89,26.89,0,1,1,7.48-1.05l-.14-.51.14.51A27.35,27.35,0,0,1,1647.67,269.31Zm0-52.77a25.86,25.86,0,1,0,14.28,4.3A26.06,26.06,0,0,0,1647.68,216.54Z"/><path className="cls-30" d="M1652.34,188.06a.82.82,0,0,1-.22,0l-5.95-.95a1.39,1.39,0,0,1-.93-.57,1.42,1.42,0,0,1-.25-1.06l.61-3.84a.34.34,0,0,0-.19-.38,17.49,17.49,0,0,1-3.85-2.37.38.38,0,0,0-.43,0l-3.15,2.28a1.41,1.41,0,0,1-2-.32l-3.53-4.87a1.43,1.43,0,0,1-.25-1.06,1.39,1.39,0,0,1,.57-.93l3.15-2.28a.37.37,0,0,0,.13-.41,18,18,0,0,1-1-4.4.35.35,0,0,0-.3-.3l-3.84-.61a1.47,1.47,0,0,1-.93-.58,1.41,1.41,0,0,1-.25-1.06l1-5.94a1.42,1.42,0,0,1,1.63-1.18l3.84.61a.35.35,0,0,0,.38-.2,17.66,17.66,0,0,1,2.37-3.84.35.35,0,0,0,0-.43l-2.28-3.15a1.42,1.42,0,0,1,.32-2l4.88-3.53a1.42,1.42,0,0,1,2,.32l2.28,3.15a.36.36,0,0,0,.41.13,17.46,17.46,0,0,1,4.39-1.05.35.35,0,0,0,.3-.3l.62-3.84a1.39,1.39,0,0,1,.57-.93,1.42,1.42,0,0,1,1.06-.25l5.95,1a1.43,1.43,0,0,1,1.18,1.63l-.62,3.84a.36.36,0,0,0,.2.38,17.73,17.73,0,0,1,3.85,2.37.33.33,0,0,0,.42,0l3.16-2.28a1.41,1.41,0,0,1,1.06-.25,1.39,1.39,0,0,1,.92.57l3.54,4.88a1.41,1.41,0,0,1,.25,1.06,1.44,1.44,0,0,1-.57.93l-3.15,2.28a.34.34,0,0,0-.13.4,18.07,18.07,0,0,1,1,4.4.35.35,0,0,0,.31.3l3.84.62a1.43,1.43,0,0,1,1.18,1.63l-.95,5.95a1.41,1.41,0,0,1-.58.92,1.38,1.38,0,0,1-1.06.26l-3.84-.62a.38.38,0,0,0-.38.2,17.73,17.73,0,0,1-2.37,3.85.36.36,0,0,0,0,.42l2.28,3.15a1.43,1.43,0,0,1-.31,2l-4.88,3.53a1.42,1.42,0,0,1-2-.31l-2.28-3.15a.34.34,0,0,0-.41-.13,17.89,17.89,0,0,1-4.39,1,.36.36,0,0,0-.31.3l-.61,3.84a1.42,1.42,0,0,1-1.41,1.2Zm-11-10.32a1.39,1.39,0,0,1,.88.31,16.53,16.53,0,0,0,3.61,2.22,1.42,1.42,0,0,1,.81,1.52l-.61,3.84a.35.35,0,0,0,.3.41l5.94,1a.36.36,0,0,0,.27-.07.36.36,0,0,0,.15-.23l.61-3.84a1.4,1.4,0,0,1,1.24-1.19,16.6,16.6,0,0,0,4.13-1,1.43,1.43,0,0,1,1.65.5l2.28,3.15a.36.36,0,0,0,.51.08l4.87-3.53a.36.36,0,0,0,.08-.5l-2.28-3.15a1.43,1.43,0,0,1,0-1.72,16.6,16.6,0,0,0,2.22-3.62,1.44,1.44,0,0,1,1.52-.81l3.84.62a.37.37,0,0,0,.27-.07.36.36,0,0,0,.15-.23h0l1-6a.38.38,0,0,0-.3-.42l-3.84-.61a1.42,1.42,0,0,1-1.19-1.24,16.37,16.37,0,0,0-1-4.13,1.42,1.42,0,0,1,.51-1.64l3.15-2.28a.4.4,0,0,0,.14-.24.36.36,0,0,0-.06-.27l-3.54-4.88a.31.31,0,0,0-.23-.14.33.33,0,0,0-.27.06l-3.15,2.28a1.41,1.41,0,0,1-1.72,0,16.6,16.6,0,0,0-3.62-2.22,1.4,1.4,0,0,1-.8-1.52l.61-3.84a.36.36,0,0,0-.3-.41l-6-.95a.35.35,0,0,0-.41.3l-.62,3.84a1.42,1.42,0,0,1-1.24,1.19,16.8,16.8,0,0,0-4.13,1,1.42,1.42,0,0,1-1.64-.5l-2.28-3.15a.37.37,0,0,0-.51-.08l-4.88,3.53a.38.38,0,0,0-.08.51l2.28,3.15a1.41,1.41,0,0,1,0,1.71,16.88,16.88,0,0,0-2.23,3.62,1.42,1.42,0,0,1-1.51.81l-3.85-.62a.33.33,0,0,0-.26.07.33.33,0,0,0-.15.23l-1,5.95a.36.36,0,0,0,.06.27.38.38,0,0,0,.24.15l3.84.61a1.42,1.42,0,0,1,1.19,1.24,16.8,16.8,0,0,0,1,4.13,1.41,1.41,0,0,1-.5,1.65l-3.15,2.28a.31.31,0,0,0-.14.23.32.32,0,0,0,.06.27l3.53,4.88a.36.36,0,0,0,.51.08l3.15-2.28A1.43,1.43,0,0,1,1641.35,177.74Zm11.44-2a10.8,10.8,0,0,1-2-.18h0a10.83,10.83,0,1,1,2,.18Zm-1.75-1.23a9.75,9.75,0,1,0-6.69-4.74,9.81,9.81,0,0,0,6.69,4.74Z"/><path className="cls-35" d="M1633.13,244.1l-.06,0a1.28,1.28,0,0,1-.66-1.11,1.26,1.26,0,0,1,.66-1.09l7.46-3.89a1.21,1.21,0,0,1,.6-.15,1.27,1.27,0,0,1,1.24,1.27,1.22,1.22,0,0,1-.63,1.06L1636.3,243l5.39,2.92a1.19,1.19,0,0,1,.66,1.09,1.25,1.25,0,0,1-1.22,1.26,1.26,1.26,0,0,1-.59-.15Z"/><path className="cls-35" d="M1643.56,250.77a1.77,1.77,0,0,1,.08-.46l5.3-16.48a1.58,1.58,0,0,1,1.49-1.07,1.6,1.6,0,0,1,1.53,1.7,1.93,1.93,0,0,1-.07.49l-5.31,16.31a1.56,1.56,0,0,1-1.48,1.07,1.74,1.74,0,0,1-.45-.06A1.63,1.63,0,0,1,1643.56,250.77Z"/><path className="cls-35" d="M1653.44,240.15a1.2,1.2,0,0,1-.63-1.06,1.26,1.26,0,0,1,1.24-1.27,1.21,1.21,0,0,1,.6.15l7.46,3.89a1.29,1.29,0,0,1,.66,1.11,1.27,1.27,0,0,1-.66,1.09l-.08,0-7.4,4a1.19,1.19,0,0,1-.58.15,1.25,1.25,0,0,1-1.23-1.26,1.21,1.21,0,0,1,.66-1.09l5.38-2.92Z"/><path className="cls-28" d="M1612.46,235.71h-.1a.53.53,0,0,1-.42-.63,36.5,36.5,0,0,1,35.74-29.16h0a.53.53,0,0,1,0,1.06,35.45,35.45,0,0,0-34.7,28.32A.53.53,0,0,1,1612.46,235.71Z"/><path className="cls-28" d="M1647.67,278.87a36.5,36.5,0,0,1-36.22-32.14.53.53,0,0,1,.46-.59.54.54,0,0,1,.6.46,35.42,35.42,0,1,0,45.71-38,.54.54,0,0,1-.35-.67.53.53,0,0,1,.66-.35,36.48,36.48,0,0,1-10.86,71.31Z"/><path className="cls-28" d="M1647.67,272.66a30.27,30.27,0,1,1,8.41-1.19A30.27,30.27,0,0,1,1647.67,272.66Zm0-59.73a29.47,29.47,0,1,0,8.18,57.78h0a29.47,29.47,0,0,0-8.18-57.78Z"/><rect className="cls-35" x="1623.47" y="176.46" width="4.78" height="20.69" rx="2.02"/><path className="cls-35" d="M1626.11,197.68h-.49a2.69,2.69,0,0,1-2.68-2.68V178.6a2.68,2.68,0,0,1,2.68-2.67h.49a2.68,2.68,0,0,1,2.67,2.67V195A2.68,2.68,0,0,1,1626.11,197.68Zm-.49-20.69a1.61,1.61,0,0,0-1.61,1.61V195a1.61,1.61,0,0,0,1.61,1.61h.49a1.61,1.61,0,0,0,1.61-1.61V178.6a1.61,1.61,0,0,0-1.61-1.61Z"/><path className="cls-35" d="M1529.83,300.8V155.24a14.68,14.68,0,0,1,14.68-14.68h-5a14.76,14.76,0,0,0-14.76,14.76V300.73a14.76,14.76,0,0,0,14.76,14.76h5A14.69,14.69,0,0,1,1529.83,300.8Z"/><path className="cls-35" d="M1544.51,316h-5a15.31,15.31,0,0,1-15.29-15.29V155.32A15.31,15.31,0,0,1,1539.52,140h5v1.06a14.17,14.17,0,0,0-14.15,14.15V300.8A14.16,14.16,0,0,0,1544.51,315ZM1538.9,141.1a14.25,14.25,0,0,0-13.61,14.22V300.73a14.25,14.25,0,0,0,13.61,14.21,15.23,15.23,0,0,1-9.6-14.14V155.24A15.23,15.23,0,0,1,1538.9,141.1Z"/><path className="cls-39" d="M1527.45,184.3h0a1.25,1.25,0,0,1-1.25-1.25V164.87a1.25,1.25,0,0,1,1.25-1.25h0a1.25,1.25,0,0,1,1.25,1.25v18.18A1.25,1.25,0,0,1,1527.45,184.3Z"/><path className="cls-35" d="M1527.45,184.83a1.78,1.78,0,0,1-1.78-1.78V164.87a1.78,1.78,0,0,1,3.56,0v18.18A1.78,1.78,0,0,1,1527.45,184.83Zm0-20.68a.72.72,0,0,0-.72.72v18.18a.72.72,0,1,0,1.44,0V164.87A.72.72,0,0,0,1527.45,164.15Z"/><path className="cls-39" d="M1527.45,211.69h0a1.24,1.24,0,0,1-1.25-1.25V192.26a1.25,1.25,0,0,1,1.25-1.25h0a1.25,1.25,0,0,1,1.25,1.25v18.18A1.24,1.24,0,0,1,1527.45,211.69Z"/><path className="cls-35" d="M1527.45,212.23a1.79,1.79,0,0,1-1.78-1.79V192.26a1.78,1.78,0,0,1,3.56,0v18.18A1.79,1.79,0,0,1,1527.45,212.23Zm0-20.69a.72.72,0,0,0-.72.72v18.18a.72.72,0,0,0,1.44,0V192.26A.72.72,0,0,0,1527.45,191.54Z"/><path className="cls-39" d="M1610.87,140.56h-66.36a14.68,14.68,0,0,0-14.68,14.68V300.8a14.69,14.69,0,0,0,14.68,14.69h66.36a14.69,14.69,0,0,0,14.68-14.69V155.24A14.68,14.68,0,0,0,1610.87,140.56Z"/><path className="cls-35" d="M1610.87,316h-66.36a15.24,15.24,0,0,1-15.21-15.22V155.24A15.23,15.23,0,0,1,1544.51,140h66.36a15.22,15.22,0,0,1,15.21,15.21V300.8A15.23,15.23,0,0,1,1610.87,316Zm-66.36-174.93a14.17,14.17,0,0,0-14.15,14.15V300.8A14.16,14.16,0,0,0,1544.51,315h66.36A14.16,14.16,0,0,0,1625,300.8V155.24a14.17,14.17,0,0,0-14.15-14.15Z"/><path className="cls-28" d="M1577.69,152.9a2.5,2.5,0,1,1,2.5-2.5A2.5,2.5,0,0,1,1577.69,152.9Zm0-4.2a1.7,1.7,0,1,0,1.7,1.7A1.7,1.7,0,0,0,1577.69,148.7Z"/><path className="cls-28" d="M1570.83,151.74H1561a1.31,1.31,0,1,1,0-2.62h9.79a1.31,1.31,0,0,1,0,2.62Zm-9.79-1.82a.51.51,0,1,0,0,1h9.79a.51.51,0,0,0,0-1Z"/><path className="cls-28" d="M1594.56,151.74h-9.78a1.31,1.31,0,1,1,0-2.62h9.78a1.31,1.31,0,1,1,0,2.62Zm-9.78-1.82a.51.51,0,1,0,0,1h9.78a.51.51,0,1,0,0-1Z"/><rect className="cls-28" x="1537.3" y="157.08" width="80.78" height="143.6"/><path className="cls-35" d="M1618.08,301.21H1537.3a.53.53,0,0,1-.53-.53V157.08a.53.53,0,0,1,.53-.53h80.78a.53.53,0,0,1,.53.53v143.6A.53.53,0,0,1,1618.08,301.21Zm-80.25-1.06h79.72V157.61h-79.72Z"/><rect className="cls-31" x="1537.86" y="157.61" width="79.68" height="11.03"/><path className="cls-28" d="M1598,164.86a1.79,1.79,0,1,1,1.78-1.79A1.79,1.79,0,0,1,1598,164.86Zm0-2.77a1,1,0,1,0,1,1A1,1,0,0,0,1598,162.09Z"/><path className="cls-28" d="M1605.23,164.86a1.79,1.79,0,1,1,1.79-1.79A1.79,1.79,0,0,1,1605.23,164.86Zm0-2.77a1,1,0,1,0,1,1A1,1,0,0,0,1605.23,162.09Z"/><path className="cls-28" d="M1612.56,164.86a1.79,1.79,0,1,1,1.78-1.79A1.79,1.79,0,0,1,1612.56,164.86Zm0-2.77a1,1,0,1,0,1,1A1,1,0,0,0,1612.56,162.09Z"/><path className="cls-40" d="M1575.21,185.62h-24.55a.53.53,0,0,1-.53-.53.53.53,0,0,1,.53-.53h24.55a.53.53,0,0,1,.53.53A.53.53,0,0,1,1575.21,185.62Z"/><path className="cls-31" d="M1590.11,185.62h-8.77a.52.52,0,0,1-.53-.53.53.53,0,0,1,.53-.53h8.77a.53.53,0,0,1,.53.53A.53.53,0,0,1,1590.11,185.62Z"/><path className="cls-31" d="M1605.15,185.62h-8a.53.53,0,0,1-.53-.53.53.53,0,0,1,.53-.53h8a.54.54,0,0,1,.54.53A.53.53,0,0,1,1605.15,185.62Z"/><path className="cls-40" d="M1605.15,204.62h-24.54a.53.53,0,0,1-.53-.53.53.53,0,0,1,.53-.53h24.54a.54.54,0,0,1,.54.53A.53.53,0,0,1,1605.15,204.62Z"/><path className="cls-31" d="M1574.48,204.62h-8.77a.53.53,0,0,1-.53-.53.53.53,0,0,1,.53-.53h8.77a.53.53,0,0,1,.53.53A.52.52,0,0,1,1574.48,204.62Z"/><path className="cls-31" d="M1558.7,204.62h-8a.53.53,0,0,1-.53-.53.53.53,0,0,1,.53-.53h8a.53.53,0,0,1,.53.53A.53.53,0,0,1,1558.7,204.62Z"/><path className="cls-40" d="M1563.3,195h-12.64a.53.53,0,0,1-.53-.53.53.53,0,0,1,.53-.53h12.64a.53.53,0,0,1,.53.53A.53.53,0,0,1,1563.3,195Z"/><path className="cls-31" d="M1590.11,195h-21.44a.53.53,0,0,1-.53-.53.53.53,0,0,1,.53-.53h21.44a.53.53,0,0,1,.53.53A.53.53,0,0,1,1590.11,195Z"/><path className="cls-40" d="M1605.15,195h-8a.53.53,0,0,1-.53-.53.53.53,0,0,1,.53-.53h8a.53.53,0,0,1,.54.53A.54.54,0,0,1,1605.15,195Z"/><path className="cls-40" d="M1575.21,213.07h-24.55a.53.53,0,0,1-.53-.53.53.53,0,0,1,.53-.53h24.55a.53.53,0,0,1,.53.53A.53.53,0,0,1,1575.21,213.07Z"/><path className="cls-31" d="M1590.11,213.07h-8.77a.53.53,0,0,1-.53-.53.52.52,0,0,1,.53-.53h8.77a.53.53,0,0,1,.53.53A.53.53,0,0,1,1590.11,213.07Z"/><path className="cls-40" d="M1575.21,243.52h-24.55a.53.53,0,1,1,0-1.06h24.55a.53.53,0,0,1,0,1.06Z"/><path className="cls-31" d="M1590.11,243.52h-8.77a.53.53,0,1,1,0-1.06h8.77a.53.53,0,0,1,0,1.06Z"/><path className="cls-31" d="M1605.15,213.07h-8a.53.53,0,0,1-.53-.53.53.53,0,0,1,.53-.53h8a.53.53,0,0,1,.54.53A.54.54,0,0,1,1605.15,213.07Z"/><path className="cls-40" d="M1605.15,232.07h-24.54a.53.53,0,1,1,0-1.06h24.54a.53.53,0,1,1,0,1.06Z"/><path className="cls-31" d="M1574.48,232.07h-8.77a.53.53,0,1,1,0-1.06h8.77a.53.53,0,0,1,0,1.06Z"/><path className="cls-31" d="M1558.7,232.07h-8a.53.53,0,1,1,0-1.06h8a.53.53,0,0,1,0,1.06Z"/><path className="cls-40" d="M1574.48,253.82h-8.77a.53.53,0,1,1,0-1.06h8.77a.53.53,0,0,1,0,1.06Z"/><path className="cls-40" d="M1558.7,253.82h-8a.53.53,0,1,1,0-1.06h8a.53.53,0,0,1,0,1.06Z"/><path className="cls-40" d="M1563.3,222.47h-12.64a.53.53,0,0,1-.53-.53.53.53,0,0,1,.53-.53h12.64a.53.53,0,0,1,.53.53A.53.53,0,0,1,1563.3,222.47Z"/><path className="cls-31" d="M1590.11,222.47h-21.44a.53.53,0,0,1-.53-.53.53.53,0,0,1,.53-.53h21.44a.53.53,0,0,1,.53.53A.53.53,0,0,1,1590.11,222.47Z"/><path className="cls-40" d="M1605.15,222.47h-8a.53.53,0,0,1-.53-.53.53.53,0,0,1,.53-.53h8a.54.54,0,0,1,.54.53A.53.53,0,0,1,1605.15,222.47Z"/><path className="cls-31" d="M1571.94,263.93H1550.5a.53.53,0,1,1,0-1.06h21.44a.53.53,0,0,1,0,1.06Z"/><path className="cls-40" d="M1558.58,273.4h-8a.54.54,0,0,1-.54-.53.53.53,0,0,1,.54-.53h8a.53.53,0,0,1,.53.53A.53.53,0,0,1,1558.58,273.4Z"/><rect className="cls-39" x="1157.72" y="372.72" width="116.39" height="82.94" rx="2.03" transform="translate(2431.83 828.37) rotate(180)"/><path className="cls-43" d="M1159.75,455.65h112.33a2,2,0,0,0,2-2V374.75a2,2,0,0,0-2-2H1159.75a2,2,0,0,0-2,2v78.87A2,2,0,0,0,1159.75,455.65Z"/><path className="cls-40" d="M1164.24,366.43h116.37a0,0,0,0,1,0,0V378a2.42,2.42,0,0,1-2.42,2.42H1167.37a3.13,3.13,0,0,1-3.13-3.13V366.43A0,0,0,0,1,1164.24,366.43Z" transform="translate(2444.86 746.84) rotate(180)"/><path className="cls-35" d="M1281.15,380.94H1163.71V369a3.1,3.1,0,0,1,3.1-3.11h110.48a3.86,3.86,0,0,1,3.86,3.86Zm-116.38-1.06h115.32V369.76a2.81,2.81,0,0,0-2.8-2.8H1166.81a2.05,2.05,0,0,0-2,2.05Z"/><path className="cls-28" d="M1179.54,375.94a2.69,2.69,0,1,1,2.67-2.68A2.68,2.68,0,0,1,1179.54,375.94Zm0-4.3a1.62,1.62,0,1,0,1.61,1.62A1.61,1.61,0,0,0,1179.54,371.64Z"/><path className="cls-28" d="M1187.91,375.94a2.69,2.69,0,1,1,2.68-2.68A2.68,2.68,0,0,1,1187.91,375.94Zm0-4.3a1.62,1.62,0,1,0,1.62,1.62A1.61,1.61,0,0,0,1187.91,371.64Z"/><path className="cls-28" d="M1171.21,375.94a2.69,2.69,0,1,1,2.68-2.68A2.68,2.68,0,0,1,1171.21,375.94Zm0-4.3a1.62,1.62,0,1,0,1.61,1.62A1.62,1.62,0,0,0,1171.21,371.64Z"/><rect className="cls-28" x="1164.19" y="380.41" width="116.39" height="68.39" rx="0.35" transform="translate(2444.78 829.21) rotate(180)"/><path className="cls-35" d="M1280.21,449.33H1164.57a.91.91,0,0,1-.91-.91V380.79a.91.91,0,0,1,.91-.91h115.64a.9.9,0,0,1,.9.91v67.63A.9.9,0,0,1,1280.21,449.33Zm-115.48-1.06h115.32V380.94H1164.73Z"/><path className="cls-31" d="M1265.41,397.52h-52.32a.53.53,0,0,1-.53-.53.53.53,0,0,1,.53-.53h52.32a.53.53,0,0,1,.53.53A.53.53,0,0,1,1265.41,397.52Z"/><path className="cls-40" d="M1231.47,405.46h-18.38a.53.53,0,0,1-.53-.53.53.53,0,0,1,.53-.53h18.38a.53.53,0,0,1,.53.53A.53.53,0,0,1,1231.47,405.46Z"/><path className="cls-31" d="M1261.35,405.46H1239a.53.53,0,0,1-.53-.53.53.53,0,0,1,.53-.53h22.32a.53.53,0,0,1,.53.53A.53.53,0,0,1,1261.35,405.46Z"/><path className="cls-40" d="M1246.63,429.55h-33.54a.53.53,0,0,1-.53-.53.53.53,0,0,1,.53-.53h33.54a.53.53,0,0,1,.53.53A.53.53,0,0,1,1246.63,429.55Z"/><path className="cls-40" d="M1265.87,413.8h-52.78a.53.53,0,0,1-.53-.53.53.53,0,0,1,.53-.53h52.78a.53.53,0,0,1,.53.53A.53.53,0,0,1,1265.87,413.8Z"/><path className="cls-31" d="M1229.81,421.74h-16.72a.53.53,0,0,1-.53-.53.53.53,0,0,1,.53-.53h16.72a.53.53,0,0,1,.54.53A.54.54,0,0,1,1229.81,421.74Z"/><path className="cls-40" d="M1265.41,421.74H1235a.53.53,0,0,1-.53-.53.53.53,0,0,1,.53-.53h30.45a.53.53,0,0,1,.53.53A.53.53,0,0,1,1265.41,421.74Z"/><path className="cls-40" d="M1177.21,411.82A13.13,13.13,0,0,1,1188,398.9l-.51-3a16.16,16.16,0,0,0-13.23,18.63l3.11-.53A12.87,12.87,0,0,1,1177.21,411.82Z"/><path className="cls-28" d="M1206.38,412.39a15.78,15.78,0,0,0-.22-3.27h0A15.78,15.78,0,0,1,1206.38,412.39Z"/><path className="cls-39" d="M1190.35,425a13.12,13.12,0,0,1-12.94-11l-3.11.53a16.15,16.15,0,0,0,18.63,13.23l-.5-3A13,13,0,0,1,1190.35,425Z"/><path className="cls-31" d="M1206.16,409.12h0a16.15,16.15,0,0,0-18.63-13.23l.51,3a13.5,13.5,0,0,1,2.31-.21,13.13,13.13,0,0,1,2.08,26.09l.5,3a16.17,16.17,0,0,0,13-12.21,16.19,16.19,0,0,0,.2-6.42Z"/><circle className="cls-35" cx="1276.34" cy="373.08" r="19.07"/><path className="cls-35" d="M1276.34,392.69A19.61,19.61,0,1,1,1296,373.08,19.63,19.63,0,0,1,1276.34,392.69Zm0-38.15a18.54,18.54,0,1,0,18.55,18.54A18.56,18.56,0,0,0,1276.34,354.54Z"/><circle className="cls-31" cx="1278.06" cy="371.23" r="19.07"/><path className="cls-35" d="M1278.06,390.83a19.61,19.61,0,1,1,19.6-19.6A19.63,19.63,0,0,1,1278.06,390.83Zm0-38.15a18.55,18.55,0,1,0,18.54,18.55A18.57,18.57,0,0,0,1278.06,352.68Z"/><path className="cls-28" d="M1286.84,380.11a9,9,0,1,0-18,0S1286.84,380.16,1286.84,380.11Z"/><path className="cls-35" d="M1278.82,380.67H1272c-3.71,0-3.71,0-3.71-.55a9.52,9.52,0,0,1,19,0C1287.37,380.67,1287.37,380.67,1278.82,380.67Zm8-.56h0Zm-17.41-.52c2.62,0,14.3,0,16.88,0a8.46,8.46,0,0,0-16.88,0Z"/><path className="cls-28" d="M1272.8,364.78a5.11,5.11,0,1,0,5.11-5.11A5.1,5.1,0,0,0,1272.8,364.78Z"/><path className="cls-35" d="M1277.91,370.41a5.64,5.64,0,1,1,5.63-5.63A5.64,5.64,0,0,1,1277.91,370.41Zm0-10.21a4.58,4.58,0,1,0,4.57,4.58A4.59,4.59,0,0,0,1277.91,360.2Z"/><rect className="cls-28" x="1398.07" y="150.3" width="86.07" height="56.25"/><path className="cls-35" d="M1484.14,207.08h-86.07a.53.53,0,0,1-.53-.53V150.3a.53.53,0,0,1,.53-.53h86.07a.53.53,0,0,1,.53.53v56.25A.53.53,0,0,1,1484.14,207.08ZM1398.6,206h85V150.83h-85Z"/><rect className="cls-35" x="1395.23" y="120.94" width="108.37" height="31.47" rx="4.94"/><path className="cls-35" d="M1498.36,152.94h-97.89a5.78,5.78,0,0,1-5.77-5.77v-21a5.78,5.78,0,0,1,5.77-5.77h97.89a5.78,5.78,0,0,1,5.77,5.77v21A5.78,5.78,0,0,1,1498.36,152.94Zm-97.89-31.47a4.71,4.71,0,0,0-4.71,4.71v21a4.71,4.71,0,0,0,4.71,4.71h97.89a4.72,4.72,0,0,0,4.71-4.71v-21a4.72,4.72,0,0,0-4.71-4.71Z"/><rect className="cls-35" x="1395.23" y="155.32" width="108.37" height="31.47" rx="4.94"/><path className="cls-35" d="M1498.36,187.32h-97.89a5.78,5.78,0,0,1-5.77-5.77v-21a5.78,5.78,0,0,1,5.77-5.77h97.89a5.78,5.78,0,0,1,5.77,5.77v21A5.78,5.78,0,0,1,1498.36,187.32Zm-97.89-31.47a4.71,4.71,0,0,0-4.71,4.71v21a4.71,4.71,0,0,0,4.71,4.71h97.89a4.72,4.72,0,0,0,4.71-4.71v-21a4.72,4.72,0,0,0-4.71-4.71Z"/><rect className="cls-35" x="1395.23" y="190.45" width="108.37" height="31.47" rx="4.94"/><path className="cls-35" d="M1498.36,222.46h-97.89a5.78,5.78,0,0,1-5.77-5.77v-21a5.78,5.78,0,0,1,5.77-5.77h97.89a5.78,5.78,0,0,1,5.77,5.77v21A5.78,5.78,0,0,1,1498.36,222.46ZM1400.47,191a4.71,4.71,0,0,0-4.71,4.7v21a4.72,4.72,0,0,0,4.71,4.71h97.89a4.72,4.72,0,0,0,4.71-4.71v-21a4.72,4.72,0,0,0-4.71-4.7Z"/><rect className="cls-28" x="1412.59" y="120.94" width="95.93" height="31.47" rx="4.64"/><path className="cls-35" d="M1503.6,152.94h-86.08a5.47,5.47,0,0,1-5.46-5.46V125.87a5.47,5.47,0,0,1,5.46-5.46h86.08a5.47,5.47,0,0,1,5.46,5.46v21.61A5.47,5.47,0,0,1,1503.6,152.94Zm-86.08-31.47a4.4,4.4,0,0,0-4.39,4.4v21.61a4.4,4.4,0,0,0,4.39,4.4h86.08a4.4,4.4,0,0,0,4.39-4.4V125.87a4.4,4.4,0,0,0-4.39-4.4Z"/><path className="cls-28" d="M1432.31,136.68a4.84,4.84,0,1,1-4.83-4.84A4.83,4.83,0,0,1,1432.31,136.68Z"/><path className="cls-35" d="M1427.48,142a5.37,5.37,0,1,1,5.36-5.37A5.38,5.38,0,0,1,1427.48,142Zm0-9.67a4.31,4.31,0,1,0,4.3,4.3A4.31,4.31,0,0,0,1427.48,132.37Z"/><rect className="cls-28" x="1442.36" y="130.42" width="56.88" height="12.51" rx="0.61"/><path className="cls-35" d="M1498.59,143.46H1443a1.18,1.18,0,0,1-1.18-1.18V131.07a1.18,1.18,0,0,1,1.18-1.18h55.58a1.18,1.18,0,0,1,1.18,1.18v11.21A1.18,1.18,0,0,1,1498.59,143.46ZM1443,131a.12.12,0,0,0-.12.12v11.21a.12.12,0,0,0,.12.12h55.58a.11.11,0,0,0,.11-.12V131.07a.11.11,0,0,0-.11-.12Z"/><path className="cls-31" d="M1466.63,135.09h-18.77a.53.53,0,0,1-.53-.53.52.52,0,0,1,.53-.53h18.77a.53.53,0,0,1,.53.53A.53.53,0,0,1,1466.63,135.09Z"/><path className="cls-40" d="M1481.6,135.09h-11.24a.54.54,0,0,1-.54-.53.53.53,0,0,1,.54-.53h11.24a.52.52,0,0,1,.53.53A.53.53,0,0,1,1481.6,135.09Z"/><path className="cls-40" d="M1460.65,139.16h-11.24a.53.53,0,0,1-.54-.53.54.54,0,0,1,.54-.53h11.24a.54.54,0,0,1,.54.53A.53.53,0,0,1,1460.65,139.16Z"/><path className="cls-31" d="M1492.76,135.09h-6.61a.53.53,0,0,1-.53-.53.53.53,0,0,1,.53-.53h6.61a.53.53,0,0,1,.53.53A.53.53,0,0,1,1492.76,135.09Z"/><path className="cls-31" d="M1476.45,139.51h-6.6a.53.53,0,0,1-.53-.53.53.53,0,0,1,.53-.53h6.6a.53.53,0,0,1,.53.53A.52.52,0,0,1,1476.45,139.51Z"/><rect className="cls-28" x="1412.59" y="155.32" width="95.93" height="31.47" rx="4.64"/><path className="cls-35" d="M1503.6,187.32h-86.08a5.47,5.47,0,0,1-5.46-5.46V160.25a5.47,5.47,0,0,1,5.46-5.46h86.08a5.47,5.47,0,0,1,5.46,5.46v21.61A5.47,5.47,0,0,1,1503.6,187.32Zm-86.08-31.47a4.4,4.4,0,0,0-4.39,4.4v21.61a4.4,4.4,0,0,0,4.39,4.4h86.08a4.4,4.4,0,0,0,4.39-4.4V160.25a4.4,4.4,0,0,0-4.39-4.4Z"/><path className="cls-28" d="M1432.31,171.05a4.84,4.84,0,1,1-4.83-4.83A4.84,4.84,0,0,1,1432.31,171.05Z"/><path className="cls-35" d="M1427.48,176.42a5.37,5.37,0,1,1,5.36-5.37A5.38,5.38,0,0,1,1427.48,176.42Zm0-9.67a4.31,4.31,0,1,0,4.3,4.3A4.31,4.31,0,0,0,1427.48,166.75Z"/><rect className="cls-28" x="1442.36" y="164.8" width="56.88" height="12.51" rx="0.61"/><path className="cls-35" d="M1498.59,177.84H1443a1.18,1.18,0,0,1-1.18-1.18V165.44a1.17,1.17,0,0,1,1.18-1.17h55.58a1.17,1.17,0,0,1,1.18,1.17v11.22A1.18,1.18,0,0,1,1498.59,177.84ZM1443,165.33a.11.11,0,0,0-.12.11v11.22a.12.12,0,0,0,.12.12h55.58a.11.11,0,0,0,.11-.12V165.44a.11.11,0,0,0-.11-.11Z"/><path className="cls-31" d="M1466.63,169.47h-18.77a.53.53,0,0,1-.53-.53.52.52,0,0,1,.53-.53h18.77a.53.53,0,0,1,.53.53A.53.53,0,0,1,1466.63,169.47Z"/><path className="cls-40" d="M1481.6,169.47h-11.24a.54.54,0,0,1-.54-.53.53.53,0,0,1,.54-.53h11.24a.52.52,0,0,1,.53.53A.53.53,0,0,1,1481.6,169.47Z"/><path className="cls-40" d="M1460.65,173.54h-11.24a.53.53,0,0,1-.54-.53.54.54,0,0,1,.54-.53h11.24a.54.54,0,0,1,.54.53A.53.53,0,0,1,1460.65,173.54Z"/><path className="cls-31" d="M1492.76,169.47h-6.61a.53.53,0,0,1-.53-.53.53.53,0,0,1,.53-.53h6.61a.53.53,0,0,1,.53.53A.53.53,0,0,1,1492.76,169.47Z"/><path className="cls-31" d="M1476.45,173.89h-6.6a.53.53,0,1,1,0-1.06h6.6a.53.53,0,0,1,0,1.06Z"/><rect className="cls-35" x="1417.52" y="152.41" width="86.07" height="2.91"/><path className="cls-35" d="M1503.6,155.85h-86.08a.53.53,0,0,1-.53-.53v-2.91a.53.53,0,0,1,.53-.53h86.08a.53.53,0,0,1,.53.53v2.91A.53.53,0,0,1,1503.6,155.85Zm-85.55-1.06h85v-1.85h-85Z"/><rect className="cls-28" x="1412.59" y="190.45" width="95.93" height="31.47" rx="4.64"/><path className="cls-35" d="M1503.6,222.46h-86.08a5.47,5.47,0,0,1-5.46-5.46V195.38a5.47,5.47,0,0,1,5.46-5.46h86.08a5.47,5.47,0,0,1,5.46,5.46V217A5.47,5.47,0,0,1,1503.6,222.46ZM1417.52,191a4.4,4.4,0,0,0-4.39,4.39V217a4.4,4.4,0,0,0,4.39,4.4h86.08A4.4,4.4,0,0,0,1508,217V195.38a4.4,4.4,0,0,0-4.39-4.39Z"/><path className="cls-28" d="M1432.31,206.19a4.84,4.84,0,1,1-4.83-4.83A4.83,4.83,0,0,1,1432.31,206.19Z"/><path className="cls-35" d="M1427.48,211.56a5.37,5.37,0,1,1,5.36-5.37A5.38,5.38,0,0,1,1427.48,211.56Zm0-9.67a4.3,4.3,0,1,0,4.3,4.3A4.31,4.31,0,0,0,1427.48,201.89Z"/><rect className="cls-28" x="1442.36" y="199.93" width="56.88" height="12.51" rx="0.61"/><path className="cls-35" d="M1498.59,213H1443a1.18,1.18,0,0,1-1.18-1.18V200.58a1.18,1.18,0,0,1,1.18-1.18h55.58a1.18,1.18,0,0,1,1.18,1.18V211.8A1.18,1.18,0,0,1,1498.59,213ZM1443,200.46a.12.12,0,0,0-.12.12V211.8a.12.12,0,0,0,.12.12h55.58a.12.12,0,0,0,.11-.12V200.58a.12.12,0,0,0-.11-.12Z"/><path className="cls-31" d="M1466.63,204.6h-18.77a.52.52,0,0,1-.53-.53.53.53,0,0,1,.53-.53h18.77a.53.53,0,0,1,.53.53A.53.53,0,0,1,1466.63,204.6Z"/><path className="cls-40" d="M1481.6,204.6h-11.24a.53.53,0,0,1-.54-.53.54.54,0,0,1,.54-.53h11.24a.53.53,0,0,1,.53.53A.52.52,0,0,1,1481.6,204.6Z"/><path className="cls-40" d="M1460.65,208.68h-11.24a.53.53,0,1,1,0-1.06h11.24a.53.53,0,1,1,0,1.06Z"/><path className="cls-31" d="M1492.76,204.6h-6.61a.53.53,0,0,1-.53-.53.53.53,0,0,1,.53-.53h6.61a.53.53,0,0,1,.53.53A.53.53,0,0,1,1492.76,204.6Z"/><path className="cls-31" d="M1476.45,209h-6.6a.53.53,0,0,1-.53-.53.53.53,0,0,1,.53-.53h6.6a.52.52,0,0,1,.53.53A.53.53,0,0,1,1476.45,209Z"/><rect className="cls-35" x="1417.52" y="187.55" width="86.07" height="2.91"/><path className="cls-35" d="M1503.6,191h-86.08a.54.54,0,0,1-.53-.54v-2.9a.53.53,0,0,1,.53-.53h86.08a.53.53,0,0,1,.53.53v2.9A.54.54,0,0,1,1503.6,191Zm-85.55-1.07h85v-1.84h-85Z"/><polygon className="cls-30" points="1190.76 197.62 1171.59 197.62 1171.59 181.39 1172.65 181.39 1172.65 196.56 1189.69 196.56 1189.69 181.57 1190.76 181.57 1190.76 197.62"/><rect className="cls-30" x="1182.28" y="181.04" width="22.16" height="1.06"/><rect className="cls-30" x="1182.28" y="170.52" width="22.16" height="1.06"/><path className="cls-30" d="M1172.17,182.11a2.52,2.52,0,1,1,2.52-2.52A2.52,2.52,0,0,1,1172.17,182.11Zm0-4a1.46,1.46,0,1,0,1.45,1.46A1.46,1.46,0,0,0,1172.17,178.13Z"/><path className="cls-30" d="M1180.39,184.11a2.52,2.52,0,1,1,2.52-2.52A2.52,2.52,0,0,1,1180.39,184.11Zm0-4a1.45,1.45,0,1,0,1.45,1.45A1.46,1.46,0,0,0,1180.39,180.14Z"/><path className="cls-30" d="M1180.39,173.55a2.52,2.52,0,1,1,2.52-2.52A2.52,2.52,0,0,1,1180.39,173.55Zm0-4a1.46,1.46,0,1,0,1.45,1.45A1.46,1.46,0,0,0,1180.39,169.58Z"/><path className="cls-39" d="M1365,176.15c0-.33,0-.67,0-1-.32-17.83-15.74-32.42-33.41-32.42a33.41,33.41,0,0,0-8.89,1.21,45.38,45.38,0,0,0-87.33,16h-7.61A25.06,25.06,0,0,0,1202.72,185v.33a25.06,25.06,0,0,0,25.06,25.07H1335C1353.94,210.39,1366.25,192.41,1365,176.15Z"/><g className="cls-44"><path className="cls-38" d="M1365,176.15c0-.33,0-.67,0-1-.32-17.83-15.74-32.42-33.41-32.42a33.41,33.41,0,0,0-8.89,1.21,45.38,45.38,0,0,0-87.33,16h-7.61A25.06,25.06,0,0,0,1202.72,185v.33a25.06,25.06,0,0,0,25.06,25.07H1335C1353.94,210.39,1366.25,192.41,1365,176.15Z"/></g><path className="cls-31" d="M1365.26,170c0-.34,0-.68,0-1-.31-17.83-15.74-32.42-33.4-32.41a33.54,33.54,0,0,0-8.9,1.2,45.38,45.38,0,0,0-87.32,16H1228A25.06,25.06,0,0,0,1203,178.83v.34A25.06,25.06,0,0,0,1228,204.23h107.19C1354.19,204.23,1366.5,186.25,1365.26,170Z"/><path className="cls-35" d="M1335.22,204.76H1228a25.62,25.62,0,0,1-25.59-25.59v-.34A25.62,25.62,0,0,1,1228,153.24h7.09a45.91,45.91,0,0,1,88.15-16.09,34.2,34.2,0,0,1,8.59-1.11c18.08,0,33.62,15.09,33.93,32.94,0,.14,0,.28,0,.42s0,.37,0,.56a34,34,0,0,1-9,25.22A29.21,29.21,0,0,1,1335.22,204.76ZM1228,154.3a24.55,24.55,0,0,0-24.53,24.53v.34A24.56,24.56,0,0,0,1228,203.7h107.19a28.15,28.15,0,0,0,20.81-9.24,32.94,32.94,0,0,0,8.7-24.42c0-.23,0-.45,0-.67V169c-.3-17.29-15.36-31.89-32.87-31.89a33.32,33.32,0,0,0-8.76,1.18.53.53,0,0,1-.63-.31,44.85,44.85,0,0,0-86.3,15.8.54.54,0,0,1-.53.52Z"/><path className="cls-28" d="M1269.45,203.67a.53.53,0,0,1-.53-.53V172.65a.53.53,0,0,1,1.06,0v30.49A.53.53,0,0,1,1269.45,203.67Z"/><path className="cls-28" d="M1269.27,186.68h-12.84a.53.53,0,0,1-.53-.53V175a.52.52,0,0,1,.53-.53.53.53,0,0,1,.53.53v10.61h12.31a.53.53,0,0,1,0,1.06Z"/><path className="cls-28" d="M1256.46,175.41a2.16,2.16,0,1,1,2.16-2.16A2.16,2.16,0,0,1,1256.46,175.41Zm0-3.26a1.1,1.1,0,1,0,1.1,1.1A1.1,1.1,0,0,0,1256.46,172.15Z"/><path className="cls-28" d="M1283.93,203.78a.53.53,0,0,1-.53-.53V158a.53.53,0,0,1,1.06,0v45.29A.53.53,0,0,1,1283.93,203.78Z"/><path className="cls-28" d="M1269.43,172.88a3.27,3.27,0,1,1,3.26-3.27A3.27,3.27,0,0,1,1269.43,172.88Zm0-5.47a2.21,2.21,0,1,0,2.2,2.2A2.21,2.21,0,0,0,1269.43,167.41Z"/><path className="cls-28" d="M1298.87,203.67a.54.54,0,0,1-.54-.53V172.65a.54.54,0,0,1,1.07,0v30.49A.53.53,0,0,1,1298.87,203.67Z"/><path className="cls-28" d="M1311.89,186.68H1299a.53.53,0,1,1,0-1.06h12.32V175a.53.53,0,0,1,1.06,0v11.14A.53.53,0,0,1,1311.89,186.68Z"/><path className="cls-28" d="M1311.86,175.41a2.16,2.16,0,1,1,2.16-2.16A2.16,2.16,0,0,1,1311.86,175.41Zm0-3.26a1.1,1.1,0,1,0,1.1,1.1A1.1,1.1,0,0,0,1311.86,172.15Z"/><path className="cls-28" d="M1298.89,172.88a3.27,3.27,0,1,1,3.26-3.27A3.28,3.28,0,0,1,1298.89,172.88Zm0-5.47a2.21,2.21,0,1,0,2.2,2.2A2.2,2.2,0,0,0,1298.89,167.41Z"/><path className="cls-28" d="M1284,158.13a3.77,3.77,0,1,1,3.78-3.77A3.78,3.78,0,0,1,1284,158.13Zm0-6.48a2.71,2.71,0,1,0,2.71,2.71A2.71,2.71,0,0,0,1284,151.65Z"/><path className="cls-35" d="M1480.79,327.14h191.62a4.93,4.93,0,0,1,4.93,4.93V464.7a1.72,1.72,0,0,1-1.72,1.72h-198a1.72,1.72,0,0,1-1.72-1.72V332.07A4.93,4.93,0,0,1,1480.79,327.14Z"/><path className="cls-34" d="M1675.51,467H1477.69a2.36,2.36,0,0,1-2.36-2.36V332.37a5.76,5.76,0,0,1,5.76-5.76h191a5.77,5.77,0,0,1,5.76,5.76V464.6A2.36,2.36,0,0,1,1675.51,467ZM1481.09,327.67a4.71,4.71,0,0,0-4.7,4.7V464.6a1.3,1.3,0,0,0,1.3,1.3h197.82a1.3,1.3,0,0,0,1.3-1.3V332.37a4.71,4.71,0,0,0-4.7-4.7Z"/><rect className="cls-28" x="1490.59" y="340.5" width="172.01" height="112.56"/><path className="cls-35" d="M1662.61,453.59h-172a.53.53,0,0,1-.53-.53V340.5a.53.53,0,0,1,.53-.53h172a.53.53,0,0,1,.53.53V453.06A.53.53,0,0,1,1662.61,453.59Zm-171.49-1.06h171V341h-171Z"/><path className="cls-28" d="M1576.6,336a2.07,2.07,0,1,1,2.07-2.07A2.07,2.07,0,0,1,1576.6,336Zm0-3.08a1,1,0,1,0,1,1A1,1,0,0,0,1576.6,333Z"/><path className="cls-39" d="M1442.88,465.37h267.43a0,0,0,0,1,0,0v11.41a6.62,6.62,0,0,1-6.62,6.62H1449.5a6.62,6.62,0,0,1-6.62-6.62V465.37A0,0,0,0,1,1442.88,465.37Z"/><path className="cls-35" d="M1703.28,483.94H1449.91a7.58,7.58,0,0,1-7.56-7.56v-11a.54.54,0,0,1,.54-.53h267.42a.53.53,0,0,1,.53.53v11A7.57,7.57,0,0,1,1703.28,483.94Zm-259.86-18v10.48a6.5,6.5,0,0,0,6.49,6.49h253.37a6.5,6.5,0,0,0,6.5-6.49V465.9Z"/><path className="cls-35" d="M1707.76,479.71H1445.44a.53.53,0,0,1,0-1.06h262.32a.53.53,0,0,1,0,1.06Z"/><rect className="cls-28" x="1551.08" y="466.5" width="51.04" height="5.64"/><path className="cls-35" d="M1602.12,472.67h-51a.53.53,0,0,1-.53-.54V466.5a.53.53,0,0,1,.53-.53h51a.53.53,0,0,1,.53.53v5.63A.54.54,0,0,1,1602.12,472.67Zm-50.51-1.07h50V467h-50Z"/><rect className="cls-39" x="1517.29" y="359.66" width="107.81" height="78.67" rx="1.9" transform="translate(3142.39 797.99) rotate(180)"/><path className="cls-40" d="M1523.33,353.71h107.79a0,0,0,0,1,0,0v11a2.27,2.27,0,0,1-2.27,2.27H1526.27a2.93,2.93,0,0,1-2.93-2.93V353.71A0,0,0,0,1,1523.33,353.71Z" transform="translate(3154.46 720.66) rotate(180)"/><path className="cls-35" d="M1631.66,367.49H1522.8V356.12a3,3,0,0,1,2.94-2.95H1628a3.66,3.66,0,0,1,3.65,3.65Zm-107.8-1.06H1630.6v-9.61a2.59,2.59,0,0,0-2.59-2.58H1525.74a1.88,1.88,0,0,0-1.88,1.88Z"/><path className="cls-28" d="M1538,362.75a2.57,2.57,0,1,1,2.57-2.57A2.58,2.58,0,0,1,1538,362.75Zm0-4.08a1.51,1.51,0,1,0,1.51,1.51A1.51,1.51,0,0,0,1538,358.67Z"/><path className="cls-28" d="M1545.93,362.75a2.57,2.57,0,1,1,2.57-2.57A2.57,2.57,0,0,1,1545.93,362.75Zm0-4.08a1.51,1.51,0,1,0,1.5,1.51A1.52,1.52,0,0,0,1545.93,358.67Z"/><path className="cls-28" d="M1530.08,362.75a2.57,2.57,0,1,1,2.57-2.57A2.57,2.57,0,0,1,1530.08,362.75Zm0-4.08a1.51,1.51,0,1,0,1.51,1.51A1.51,1.51,0,0,0,1530.08,358.67Z"/><rect className="cls-28" x="1523.29" y="366.96" width="107.81" height="64.87" rx="0.33" transform="translate(3154.38 798.79) rotate(180)"/><path className="cls-35" d="M1630.74,432.36h-107.1a.88.88,0,0,1-.88-.88V367.31a.88.88,0,0,1,.88-.88h107.1a.89.89,0,0,1,.89.88v64.17A.89.89,0,0,1,1630.74,432.36Zm-106.92-1.06h106.74V367.49H1523.82Z"/><path className="cls-28" d="M1597.31,380.06h23.49a.16.16,0,0,1,.16.16v36.46a.16.16,0,0,1-.16.16h-23.49a.16.16,0,0,1-.16-.16V380.22A.17.17,0,0,1,1597.31,380.06Z"/><path className="cls-39" d="M1620.79,417.38h-23.47a.71.71,0,0,1-.71-.71V380.24a.71.71,0,0,1,.71-.71h23.47a.71.71,0,0,1,.71.71v36.43A.71.71,0,0,1,1620.79,417.38Zm-23.12-1.06h22.77V380.59h-22.77Z"/><line className="cls-28" x1="1597.73" y1="380.76" x2="1620.73" y2="416.38"/><path className="cls-39" d="M1620.73,416.91a.54.54,0,0,1-.44-.24l-23-35.62a.53.53,0,0,1,.16-.74.54.54,0,0,1,.73.16l23,35.62a.53.53,0,0,1-.16.74A.6.6,0,0,1,1620.73,416.91Z"/><line className="cls-28" x1="1620.27" y1="380.64" x2="1597.32" y2="416.85"/><path className="cls-39" d="M1597.32,417.38a.52.52,0,0,1-.29-.09.53.53,0,0,1-.16-.73l23-36.2a.53.53,0,1,1,.89.57l-22.94,36.2A.54.54,0,0,1,1597.32,417.38Z"/><path className="cls-31" d="M1587.2,383.22h-49.62a.53.53,0,1,1,0-1.06h49.62a.53.53,0,0,1,0,1.06Z"/><path className="cls-40" d="M1555,390.75h-17.43a.53.53,0,0,1-.53-.53.52.52,0,0,1,.53-.53H1555a.53.53,0,0,1,.53.53A.53.53,0,0,1,1555,390.75Z"/><path className="cls-31" d="M1583.35,390.75h-21.17a.53.53,0,0,1-.53-.53.52.52,0,0,1,.53-.53h21.17a.53.53,0,0,1,.53.53A.53.53,0,0,1,1583.35,390.75Z"/><path className="cls-40" d="M1569.38,413.59h-31.8a.52.52,0,0,1-.53-.53.53.53,0,0,1,.53-.53h31.8a.53.53,0,0,1,.53.53A.52.52,0,0,1,1569.38,413.59Z"/><path className="cls-40" d="M1587.64,398.66h-50.06a.53.53,0,1,1,0-1.06h50.06a.53.53,0,0,1,0,1.06Z"/><path className="cls-31" d="M1553.44,406.19h-15.86a.53.53,0,0,1-.53-.53.52.52,0,0,1,.53-.53h15.86a.53.53,0,0,1,.53.53A.53.53,0,0,1,1553.44,406.19Z"/><path className="cls-40" d="M1587.2,406.19h-28.88a.53.53,0,0,1-.53-.53.52.52,0,0,1,.53-.53h28.88a.53.53,0,0,1,.53.53A.53.53,0,0,1,1587.2,406.19Z"/><path className="cls-28" d="M1563.45,397.29a16.17,16.17,0,0,0-.21-3.09h0A16.17,16.17,0,0,1,1563.45,397.29Z"/><path className="cls-39" d="M1702.73,330.54c-20-.76-26.4-12.49-27.3-14.39h-.14c-.91,1.9-7.27,13.63-27.3,14.39,0,0-4.25,41.26,26.76,48.67H1676C1707,371.8,1702.73,330.54,1702.73,330.54Z"/><path className="cls-39" d="M1676,379.74l-1.41,0c-31.1-7.43-27.2-48.82-27.16-49.24l0-.46.46,0c19.53-.73,25.78-11.86,26.84-14.08l.14-.3h.81l.14.3c1.06,2.22,7.31,13.35,26.85,14.08l.46,0,0,.46c0,.42,3.94,41.81-27.16,49.24Zm-1.22-1.06h1.1c28.4-6.84,26.66-43.13,26.33-47.63-18.06-.85-25-10.46-26.88-13.88-1.9,3.42-8.83,13-26.88,13.88C1648.15,335.55,1646.42,371.84,1674.81,378.68Z"/><path className="cls-45" d="M1702.73,330.54c-20-.76-26.4-12.49-27.3-14.39h-.14c-.91,1.9-7.27,13.63-27.3,14.39,0,0-4.25,41.26,26.76,48.67H1676C1707,371.8,1702.73,330.54,1702.73,330.54Z"/><path className="cls-31" d="M1700.61,326.63c-20.08-.76-26.45-12.51-27.35-14.42h-.14c-.91,1.91-7.28,13.66-27.35,14.42,0,0-4.26,41.33,26.81,48.75h1.22C1704.86,368,1700.61,326.63,1700.61,326.63Z"/><path className="cls-35" d="M1673.8,375.91h-1.35c-31.15-7.45-27.25-48.91-27.21-49.33a.54.54,0,0,1,.51-.47c19.57-.74,25.83-11.89,26.89-14.12a.55.55,0,0,1,.48-.3h.14a.55.55,0,0,1,.48.3c1,2.23,7.31,13.38,26.89,14.12a.52.52,0,0,1,.5.47c0,.42,3.95,41.88-27.21,49.33Zm-1.16-1.06h1.1c28.44-6.85,26.71-43.2,26.38-47.71-18.1-.85-25-10.48-26.93-13.91-1.9,3.43-8.84,13.06-26.93,13.91C1645.93,331.65,1644.2,368,1672.64,374.85Z"/><path className="cls-31" d="M1654.37,353.43c3,7.1,8.49,13.64,18.32,16h1c25.19-6,21.74-39.55,21.74-39.55-16.28-.62-21.45-10.14-22.19-11.69h-.11a19.35,19.35,0,0,1-8.1,8.07"/><path className="cls-28" d="M1673.69,370h-1l-.12,0c-8.69-2.07-15-7.55-18.68-16.29a.53.53,0,0,1,.28-.7.53.53,0,0,1,.69.28c3.57,8.39,9.58,13.66,17.89,15.67h.87c22.81-5.51,21.6-34.51,21.32-38.51-14.4-.7-20.09-8.26-21.75-11.17a20.73,20.73,0,0,1-7.9,7.51.54.54,0,0,1-.73-.21.53.53,0,0,1,.21-.72,19,19,0,0,0,7.88-7.84.54.54,0,0,1,.48-.31h.11a.52.52,0,0,1,.48.31c.85,1.79,5.91,10.79,21.73,11.39a.54.54,0,0,1,.51.47c0,.34,3.2,34.06-22.15,40.12Z"/><path className="cls-31" d="M1656.3,329.3a38.34,38.34,0,0,1-5.35.57,56.2,56.2,0,0,0,.34,11.78"/><path className="cls-28" d="M1651.29,342.18a.55.55,0,0,1-.53-.47,56.7,56.7,0,0,1-.34-11.9.53.53,0,0,1,.51-.47,38.3,38.3,0,0,0,5.28-.56.53.53,0,1,1,.19,1,39,39,0,0,1-5,.56,57.74,57.74,0,0,0,.38,11.2.54.54,0,0,1-.46.59Z"/><circle className="cls-31" cx="1673.19" cy="346.63" r="12.8"/><path className="cls-28" d="M1673.19,359.82a13.2,13.2,0,1,1,13.19-13.19A13.21,13.21,0,0,1,1673.19,359.82Zm0-25.59a12.4,12.4,0,1,0,12.4,12.4A12.41,12.41,0,0,0,1673.19,334.23Z"/><circle className="cls-28" cx="1673.19" cy="346.63" r="9.32"/><path className="cls-35" d="M1673.19,356.48a9.85,9.85,0,1,1,9.85-9.85A9.86,9.86,0,0,1,1673.19,356.48Zm0-18.64a8.79,8.79,0,1,0,8.79,8.79A8.8,8.8,0,0,0,1673.19,337.84Z"/><path className="cls-35" d="M1673.37,350.6a1.47,1.47,0,0,1-1.06-.44l-3.94-3.94a1.5,1.5,0,1,1,2.12-2.13l2.88,2.88,8.49-8.48a1.5,1.5,0,1,1,2.12,2.12l-9.55,9.55A1.45,1.45,0,0,1,1673.37,350.6Z"/></svg>