<svg id="Layer_1" data-name="Layer 1" xmlns="http://www.w3.org/2000/svg" viewBox="0 0 780.01 124.47"><defs><style>.cls-1{fill:#fff;}.cls-2{fill:none;}.cls-3{fill:#00aced;}</style></defs><title>Artboard 20 copy 2</title><path class="cls-1" d="M90.85,50.2v.44l.4-.44Z"/><path class="cls-2" d="M39.47,95a16.93,16.93,0,0,0,7.25-1.37,9.12,9.12,0,0,0,4.36-4.31,18.18,18.18,0,0,0,1.57-7.7c.13-2,.22-3.71.25-5.27s0-3.11,0-4.66-.12-3.28-.25-5.17q-.18-6.19-3-9.39A94.84,94.84,0,0,0,29.91,95Z"/><path class="cls-1" d="M49.69,57.13q2.78,3.19,3,9.39c.13,1.89.22,3.62.25,5.17s0,3.11,0,4.66-.12,3.31-.25,5.27a18.18,18.18,0,0,1-1.57,7.7,9.12,9.12,0,0,1-4.36,4.31A16.93,16.93,0,0,1,39.47,95H29.91a85.34,85.34,0,0,0-2.39,14.59H40q9.93,0,16.77-3a21.84,21.84,0,0,0,10.44-9.17q3.6-6.18,4-15.61.11-4.35.11-7.7t-.11-7.8q-.3-9-4-15.15a22.86,22.86,0,0,0-5.4-6.07A103,103,0,0,0,49.69,57.13Z"/><path class="cls-3" d="M40.93,38.68A121.33,121.33,0,0,0,10.59,75.35v31.71a2.43,2.43,0,0,0,2.54,2.53H25.74a84.1,84.1,0,0,1,3-18.37,95.24,95.24,0,0,1,19.1-35.74A105.15,105.15,0,0,1,59.65,43.6,108.24,108.24,0,0,1,69,36.46c27.55-19,52-28.14,95.4-11.71,4.06,1.54,8.14,3.29,12.24,5.29C119.08-2.95,78.36,8.11,40.93,38.68ZM28.73,53.77v-.52h.48Z"/><path class="cls-1" d="M161,40a.94.94,0,0,0,.33-.23l7.51-8a.85.85,0,0,0,0-1.19.86.86,0,0,0-1.19,0l-7.51,8A.85.85,0,0,0,161,40Z"/><path class="cls-1" d="M143.79,29.21c-6.22,5.9-15.41,14.4-28.76,21.8l6.79,19.76a136.78,136.78,0,0,1,36.09-.5Z"/><path class="cls-1" d="M173.17,41.16l-10,3.45a.86.86,0,0,0-.52,1.08.85.85,0,0,0,1.07.52l10-3.45a.84.84,0,0,0,.52-1.07A.85.85,0,0,0,173.17,41.16Z"/><path class="cls-1" d="M176,52.83l-10.83-1.67a.83.83,0,1,0-.25,1.64l10.82,1.67a.81.81,0,0,0,.41,0,.86.86,0,0,0,.56-.66A.85.85,0,0,0,176,52.83Z"/><path class="cls-1" d="M153.24,40.75l-4.76-13.83a1.73,1.73,0,0,0-2.21-1.08l-.16.05A1.74,1.74,0,0,0,145,28.1l14.53,42.27a1.75,1.75,0,0,0,2.22,1.08l.15-.06A1.74,1.74,0,0,0,163,69.18l-4.76-13.83c2.15-1.9,3-5.38,1.78-8.78S156.11,40.93,153.24,40.75Z"/><path class="cls-1" d="M114.79,51.15l6.76,19.66.27,0L115,51Z"/><path class="cls-1" d="M147.17,111.47,123.46,46.41a4.12,4.12,0,0,0-1.27-2,3.89,3.89,0,0,0-2.68-.86h-7.08v18.6l9,25.28H102.58l9-25.83v-18h-7.08a3.93,3.93,0,0,0-2.69.86,4.1,4.1,0,0,0-1.26,2L76.74,111.47a3.62,3.62,0,0,0-.1.91,2.27,2.27,0,0,0,2.13,2.13H91.23a3.24,3.24,0,0,0,2.44-.76,4.09,4.09,0,0,0,.91-1.37L98.43,102h27.06l4,10.34a3.66,3.66,0,0,0,1,1.37,3.09,3.09,0,0,0,2.28.76h12.47a2.16,2.16,0,0,0,1.57-.66,2,2,0,0,0,.66-1.47A1.94,1.94,0,0,0,147.17,111.47Z"/><path class="cls-1" d="M201.28,93.43a1.24,1.24,0,0,1-1.3-1.3v-34a1.25,1.25,0,0,1,1.3-1.31h13.6a20.92,20.92,0,0,1,8.73,1.65,12.26,12.26,0,0,1,5.54,4.81,15.82,15.82,0,0,1,2.09,7.81c0,1.54,0,2.88,0,4s0,2.47,0,4a17.29,17.29,0,0,1-2.07,8,11.22,11.22,0,0,1-5.38,4.73,21.56,21.56,0,0,1-8.65,1.54Zm8.06-7.52h5.54a8.71,8.71,0,0,0,3.73-.71A4.67,4.67,0,0,0,220.86,83a9.24,9.24,0,0,0,.81-4c.07-1,.12-1.92.13-2.72s0-1.61,0-2.41-.06-1.69-.13-2.66q-.1-3.56-1.85-5.21a7.37,7.37,0,0,0-5.2-1.64h-5.28Z"/><path class="cls-1" d="M236.66,93.43a1.25,1.25,0,0,1-1.31-1.3v-34a1.27,1.27,0,0,1,1.31-1.31h7a1.25,1.25,0,0,1,.94.37,1.24,1.24,0,0,1,.37.94v34a1.27,1.27,0,0,1-.37.94,1.28,1.28,0,0,1-.94.36Z"/><path class="cls-1" d="M264.31,94a20.31,20.31,0,0,1-8.55-1.65,12.47,12.47,0,0,1-5.54-4.81,15.76,15.76,0,0,1-2.17-7.71c0-1.5-.05-3.09-.05-4.78s0-3.31.05-4.84a15,15,0,0,1,2.19-7.53,12.66,12.66,0,0,1,5.6-4.7,20.51,20.51,0,0,1,8.47-1.62,23,23,0,0,1,6.95,1,16.29,16.29,0,0,1,5.1,2.59,11.9,11.9,0,0,1,3.13,3.56,8.32,8.32,0,0,1,1.13,3.81.89.89,0,0,1-.29.79,1.16,1.16,0,0,1-.81.31h-7.63a1.69,1.69,0,0,1-.87-.18,1.56,1.56,0,0,1-.49-.55A8.48,8.48,0,0,0,269.46,66a6,6,0,0,0-1.94-1.49,7.06,7.06,0,0,0-3.21-.62,6.65,6.65,0,0,0-4.68,1.56q-1.69,1.57-1.86,5-.15,4.5,0,9.1c.11,2.44.75,4.2,1.94,5.28a6.7,6.7,0,0,0,4.7,1.62,8.72,8.72,0,0,0,3.53-.68,5.27,5.27,0,0,0,2.43-2.12,6.91,6.91,0,0,0,.89-3.68V79h-4.91A1.33,1.33,0,0,1,265,77.59V73.73a1.33,1.33,0,0,1,1.36-1.36h13.17a1.23,1.23,0,0,1,.94.39,1.38,1.38,0,0,1,.37,1v6a14,14,0,0,1-2,7.68A13.07,13.07,0,0,1,273,92.26,20.87,20.87,0,0,1,264.31,94Z"/><path class="cls-1" d="M288.14,93.43a1.24,1.24,0,0,1-1.3-1.3v-34a1.25,1.25,0,0,1,1.3-1.31h7a1.25,1.25,0,0,1,.94.37,1.27,1.27,0,0,1,.37.94v34a1.31,1.31,0,0,1-.37.94,1.28,1.28,0,0,1-.94.36Z"/><path class="cls-1" d="M313.13,93.43a1.28,1.28,0,0,1-.94-.36,1.3,1.3,0,0,1-.36-.94V65.05h-9.31a1.23,1.23,0,0,1-.94-.39,1.35,1.35,0,0,1-.37-.92V58.15a1.27,1.27,0,0,1,.37-.94,1.25,1.25,0,0,1,.94-.37h28.13a1.25,1.25,0,0,1,1.3,1.31v5.59a1.33,1.33,0,0,1-.36.92,1.24,1.24,0,0,1-.94.39h-9.31V92.13a1.25,1.25,0,0,1-1.31,1.3Z"/><path class="cls-1" d="M330.91,93.43a1,1,0,0,1-.76-.34,1,1,0,0,1-.34-.75,2.19,2.19,0,0,1,.05-.47L342.15,58.3a2.1,2.1,0,0,1,.65-1,2,2,0,0,1,1.38-.44h7.74a2.05,2.05,0,0,1,1.39.44,2.1,2.1,0,0,1,.65,1l12.23,33.57a1,1,0,0,1,.11.47,1,1,0,0,1-.34.75,1.1,1.1,0,0,1-.81.34h-6.43a1.61,1.61,0,0,1-1.18-.39,2,2,0,0,1-.5-.7L355,87h-14l-2,5.34a2.08,2.08,0,0,1-.47.7,1.66,1.66,0,0,1-1.25.39Zm12.28-14h9.73L348,65.68Z"/><path class="cls-1" d="M371.73,93.43a1.24,1.24,0,0,1-1.3-1.3v-34a1.25,1.25,0,0,1,1.3-1.31h6.91a1.28,1.28,0,0,1,.91.37,1.21,1.21,0,0,1,.39.94V85.54h15.79a1.33,1.33,0,0,1,1.36,1.36v5.23a1.24,1.24,0,0,1-.39.94,1.39,1.39,0,0,1-1,.36Z"/><path class="cls-1" d="M412,93.43a1.17,1.17,0,0,1-1.09-1.09,1.7,1.7,0,0,1,.05-.47L423.21,58.3a2.2,2.2,0,0,1,.66-1,2,2,0,0,1,1.38-.44H433a2,2,0,0,1,1.38.44,2.12,2.12,0,0,1,.66,1l12.23,33.57a1,1,0,0,1,.11.47,1,1,0,0,1-.34.75,1.1,1.1,0,0,1-.81.34h-6.43a1.6,1.6,0,0,1-1.18-.39,2,2,0,0,1-.5-.7l-2-5.34H422.12l-2,5.34a2.08,2.08,0,0,1-.47.7,1.68,1.68,0,0,1-1.26.39Zm12.29-14H434l-4.91-13.8Z"/><path class="cls-1" d="M465.82,94a20.31,20.31,0,0,1-8.55-1.65,12.47,12.47,0,0,1-5.54-4.81,15.76,15.76,0,0,1-2.17-7.71c0-1.5-.05-3.09-.05-4.78s0-3.31.05-4.84a14.93,14.93,0,0,1,2.2-7.53,12.58,12.58,0,0,1,5.59-4.7,20.51,20.51,0,0,1,8.47-1.62,23,23,0,0,1,6.95,1,16.29,16.29,0,0,1,5.1,2.59A12.09,12.09,0,0,1,481,63.43a8.43,8.43,0,0,1,1.12,3.81.89.89,0,0,1-.29.79,1.14,1.14,0,0,1-.81.31H473.4a1.64,1.64,0,0,1-.86-.18,1.49,1.49,0,0,1-.5-.55A8,8,0,0,0,471,66,6,6,0,0,0,469,64.47a7.06,7.06,0,0,0-3.21-.62,6.65,6.65,0,0,0-4.68,1.56q-1.69,1.57-1.86,5-.15,4.5,0,9.1c.11,2.44.75,4.2,1.94,5.28a6.7,6.7,0,0,0,4.7,1.62,8.72,8.72,0,0,0,3.53-.68,5.27,5.27,0,0,0,2.43-2.12,6.82,6.82,0,0,0,.89-3.68V79h-4.91a1.33,1.33,0,0,1-1.36-1.36V73.73a1.33,1.33,0,0,1,1.36-1.36H481a1.23,1.23,0,0,1,.94.39,1.34,1.34,0,0,1,.37,1v6a14,14,0,0,1-2,7.68,13.07,13.07,0,0,1-5.78,4.89A20.87,20.87,0,0,1,465.82,94Z"/><path class="cls-1" d="M489.66,93.43a1.25,1.25,0,0,1-1.31-1.3v-34a1.27,1.27,0,0,1,1.31-1.31h24.41a1.25,1.25,0,0,1,.94.37,1.27,1.27,0,0,1,.37.94v4.91A1.27,1.27,0,0,1,515,64a1.25,1.25,0,0,1-.94.37H497.39v7.06h15.53a1.23,1.23,0,0,1,.94.39,1.37,1.37,0,0,1,.37,1v4.55a1.33,1.33,0,0,1-.37.92,1.23,1.23,0,0,1-.94.39H497.39v7.27h17.1a1.28,1.28,0,0,1,.94.36,1.31,1.31,0,0,1,.37.94v4.92a1.31,1.31,0,0,1-.37.94,1.28,1.28,0,0,1-.94.36Z"/><path class="cls-1" d="M523.06,93.43a1.28,1.28,0,0,1-.94-.36,1.31,1.31,0,0,1-.37-.94v-34a1.27,1.27,0,0,1,.37-.94,1.25,1.25,0,0,1,.94-.37h5.54a1.77,1.77,0,0,1,1.28.39,2.54,2.54,0,0,1,.5.6L543.14,78V58.15a1.25,1.25,0,0,1,1.3-1.31h6.28a1.25,1.25,0,0,1,1.3,1.31v34a1.29,1.29,0,0,1-.36.91,1.24,1.24,0,0,1-.94.39h-5.6a1.62,1.62,0,0,1-1.23-.41,5.09,5.09,0,0,1-.49-.58L530.64,73.1v19a1.24,1.24,0,0,1-1.3,1.3Z"/><path class="cls-1" d="M571.26,94a20.3,20.3,0,0,1-8.5-1.62,12.45,12.45,0,0,1-5.49-4.76,15.9,15.9,0,0,1-2.17-7.79c0-1.43-.05-3-.05-4.6s0-3.21.05-4.71a15.56,15.56,0,0,1,2.2-7.71A12.7,12.7,0,0,1,562.84,58a20,20,0,0,1,8.42-1.64,22.73,22.73,0,0,1,6.38.86,15.79,15.79,0,0,1,5.12,2.51,11.9,11.9,0,0,1,3.42,4,11.45,11.45,0,0,1,1.28,5.26.87.87,0,0,1-.28.78,1.16,1.16,0,0,1-.81.31h-7.06a1.68,1.68,0,0,1-1-.28,2.25,2.25,0,0,1-.62-1.07,6.07,6.07,0,0,0-2.38-3.8,7.65,7.65,0,0,0-4-1,6.32,6.32,0,0,0-4.55,1.59Q565,67,564.83,70.75q-.17,4.27,0,8.78.15,3.7,1.83,5.3a6.28,6.28,0,0,0,4.55,1.6,7.49,7.49,0,0,0,4.07-1.05,5.85,5.85,0,0,0,2.36-3.76,1.84,1.84,0,0,1,.6-1.07,1.77,1.77,0,0,1,1.07-.29h7.06a1.16,1.16,0,0,1,.81.31.88.88,0,0,1,.28.79,11.44,11.44,0,0,1-1.28,5.25,11.93,11.93,0,0,1-3.42,4,16,16,0,0,1-5.12,2.5A22.37,22.37,0,0,1,571.26,94Z"/><path class="cls-1" d="M599.54,93.43a1.32,1.32,0,0,1-.92-.36,1.24,1.24,0,0,1-.39-.94V80.89L586.1,58.51c0-.1-.07-.2-.1-.28a.72.72,0,0,1-.06-.29,1.08,1.08,0,0,1,.34-.76,1.1,1.1,0,0,1,.81-.34h6.54a1.81,1.81,0,0,1,1.23.39,1.86,1.86,0,0,1,.55.71l7.52,13.49,7.53-13.49a2.72,2.72,0,0,1,.6-.71,1.81,1.81,0,0,1,1.23-.39h6.54a1,1,0,0,1,.78.34,1.09,1.09,0,0,1,.31.76,1.37,1.37,0,0,1,0,.29c0,.08,0,.18-.08.28L607.64,80.89V92.13a1.25,1.25,0,0,1-1.31,1.3Z"/><path class="cls-1" d="M633.24,93.43a1.31,1.31,0,0,1-1-.36,1.28,1.28,0,0,1-.36-.94v-34a1.25,1.25,0,0,1,1.31-1.31h14.63a19.64,19.64,0,0,1,7.56,1.33,11.07,11.07,0,0,1,5,4,11.82,11.82,0,0,1,1.8,6.75,11.48,11.48,0,0,1-1.8,6.64,10.61,10.61,0,0,1-5,3.86,20.68,20.68,0,0,1-7.56,1.26h-6.22V92.13a1.23,1.23,0,0,1-.39.94,1.37,1.37,0,0,1-1,.36Zm8.26-20h6.11a5.27,5.27,0,0,0,3.58-1.15,4.36,4.36,0,0,0,1.34-3.5,5,5,0,0,0-1.15-3.34,4.69,4.69,0,0,0-3.77-1.36H641.5Z"/><path class="cls-1" d="M663.24,93.43a1.17,1.17,0,0,1-1.09-1.09,1.7,1.7,0,0,1,.05-.47L674.48,58.3a2.12,2.12,0,0,1,.66-1,2,2,0,0,1,1.38-.44h7.74a2,2,0,0,1,1.38.44,2.2,2.2,0,0,1,.66,1l12.23,33.57a1,1,0,0,1,.1.47,1,1,0,0,1-.33.75,1.11,1.11,0,0,1-.82.34h-6.43a1.59,1.59,0,0,1-1.17-.39,2,2,0,0,1-.5-.7l-2-5.34h-14l-2,5.34a2.08,2.08,0,0,1-.47.7,1.68,1.68,0,0,1-1.26.39Zm12.29-14h9.72l-4.91-13.8Z"/><path class="cls-1" d="M704.07,93.43a1.25,1.25,0,0,1-1.31-1.3v-34a1.27,1.27,0,0,1,.37-.94,1.25,1.25,0,0,1,.94-.37h14.22q6.75,0,10.64,3.11a10.64,10.64,0,0,1,3.89,8.81A10.62,10.62,0,0,1,731,75a11.28,11.28,0,0,1-4.73,3.87l7.21,12.86a1.24,1.24,0,0,1,.16.58,1,1,0,0,1-.34.75,1.1,1.1,0,0,1-.81.34h-6.9a1.92,1.92,0,0,1-1.46-.49,3.53,3.53,0,0,1-.68-.92l-6-11.5h-5.39V92.13a1.28,1.28,0,0,1-.36.94,1.3,1.3,0,0,1-.94.36Zm8-20.28h6.07a5.08,5.08,0,0,0,3.68-1.2,4.39,4.39,0,0,0,1.23-3.29,4.62,4.62,0,0,0-1.18-3.3,4.92,4.92,0,0,0-3.73-1.25h-6.07Z"/><path class="cls-1" d="M740.19,93.43a1.3,1.3,0,0,1-.94-.36,1.28,1.28,0,0,1-.36-.94v-34a1.25,1.25,0,0,1,1.3-1.31h6.59a1.25,1.25,0,0,1,.94.37,1.24,1.24,0,0,1,.37.94v11.6l9.67-11.92a2.71,2.71,0,0,1,.71-.65,2.28,2.28,0,0,1,1.33-.34h7.53a1,1,0,0,1,.78.34,1.09,1.09,0,0,1,.31.76,1.05,1.05,0,0,1-.2.63l-12.5,15.78,13.49,17.36a.86.86,0,0,1,.21.63,1.17,1.17,0,0,1-1.1,1.09h-7.79a2.17,2.17,0,0,1-1.44-.41,4.38,4.38,0,0,1-.65-.63L748.09,79.48V92.13a1.25,1.25,0,0,1-.37.94,1.28,1.28,0,0,1-.94.36Z"/><path class="cls-1" d="M209.11,105.74h3.78a5.35,5.35,0,0,1,2.45.54A3.85,3.85,0,0,1,217,107.8a4.64,4.64,0,0,1,0,4.53,4,4,0,0,1-1.67,1.52,5.35,5.35,0,0,1-2.45.53h-3.78Zm3.7,7.29a3.54,3.54,0,0,0,1.67-.37,2.57,2.57,0,0,0,1.12-1,3.31,3.31,0,0,0,0-3.12,2.63,2.63,0,0,0-1.12-1,3.67,3.67,0,0,0-1.67-.36h-2.1V113Z"/><path class="cls-1" d="M226.1,105.74h1.61v8.64H226.1Z"/><path class="cls-1" d="M242.73,110h1.52v3.45a4.86,4.86,0,0,1-1.55.81,6,6,0,0,1-1.83.29,4.82,4.82,0,0,1-2.38-.58,4.24,4.24,0,0,1-1.67-1.58,4.43,4.43,0,0,1-.61-2.29,4.37,4.37,0,0,1,.61-2.28,4.19,4.19,0,0,1,1.67-1.59,5,5,0,0,1,2.4-.57,5.41,5.41,0,0,1,2,.35,3.88,3.88,0,0,1,1.49,1l-1,1a3.24,3.24,0,0,0-2.38-1,3.36,3.36,0,0,0-1.63.39,2.79,2.79,0,0,0-1.11,1.07,3.17,3.17,0,0,0-.4,1.58,3.12,3.12,0,0,0,.4,1.56,3,3,0,0,0,1.11,1.09,3.32,3.32,0,0,0,1.62.39,3.52,3.52,0,0,0,1.77-.44Z"/><path class="cls-1" d="M253.16,105.74h1.6v8.64h-1.6Z"/><path class="cls-1" d="M265.64,107.1h-2.86v-1.36h7.33v1.36h-2.86v7.28h-1.61Z"/><path class="cls-1" d="M283.29,112.38H279l-.85,2h-1.66l3.89-8.64h1.58l3.9,8.64h-1.68Zm-.53-1.26-1.63-3.77-1.62,3.77Z"/><path class="cls-1" d="M293.73,105.74h1.6V113h4.52v1.35h-6.12Z"/><path class="cls-1" d="M326.06,114.38l0-5.73-2.84,4.75h-.71l-2.84-4.67v5.65h-1.53v-8.64h1.32l3.43,5.73,3.37-5.73h1.32l0,8.64Z"/><path class="cls-1" d="M342.31,112.38H338l-.86,2h-1.65l3.89-8.64H341l3.9,8.64h-1.68Zm-.53-1.26-1.63-3.77-1.62,3.77Z"/><path class="cls-1" d="M358.4,114.38l-1.77-2.53-.33,0h-1.95v2.51h-1.61v-8.64h3.56a4.76,4.76,0,0,1,2,.37,2.92,2.92,0,0,1,1.28,1.06,3,3,0,0,1,.44,1.64,2.89,2.89,0,0,1-.48,1.68,2.79,2.79,0,0,1-1.36,1.05l2,2.84Zm-.58-6.84a2.49,2.49,0,0,0-1.59-.44h-1.88v3.44h1.88a2.43,2.43,0,0,0,1.59-.45,1.78,1.78,0,0,0,0-2.55Z"/><path class="cls-1" d="M371.54,110.77l-1.37,1.4v2.21h-1.61v-8.64h1.61v4.43l4.27-4.43h1.8l-3.63,3.87,3.86,4.77h-1.88Z"/><path class="cls-1" d="M390.84,113v1.34h-6.48v-8.64h6.31v1.35H386v2.24h4.18v1.32H386V113Z"/><path class="cls-1" d="M401.18,107.1h-2.87v-1.36h7.34v1.36h-2.87v7.28h-1.6Z"/><path class="cls-1" d="M413.65,105.74h1.61v8.64h-1.61Z"/><path class="cls-1" d="M432.06,105.74v8.64h-1.32L426,108.53v5.85h-1.6v-8.64h1.32l4.77,5.85v-5.85Z"/><path class="cls-1" d="M447.08,110h1.52v3.45a4.81,4.81,0,0,1-1.56.81,5.92,5.92,0,0,1-1.82.29,4.89,4.89,0,0,1-2.39-.58,4.21,4.21,0,0,1-1.66-1.58,4.34,4.34,0,0,1-.61-2.29,4.28,4.28,0,0,1,.61-2.28,4.19,4.19,0,0,1,1.67-1.59,5,5,0,0,1,2.4-.57,5.45,5.45,0,0,1,2,.35,3.88,3.88,0,0,1,1.49,1l-1,1a3.25,3.25,0,0,0-2.39-1,3.32,3.32,0,0,0-1.62.39,2.79,2.79,0,0,0-1.11,1.07,3.07,3.07,0,0,0-.4,1.58,3,3,0,0,0,.4,1.56,3,3,0,0,0,1.11,1.09,3.28,3.28,0,0,0,1.61.39,3.53,3.53,0,0,0,1.78-.44Z"/><path class="cls-1" d="M473.31,112.38H469l-.85,2h-1.66l3.89-8.64H472l3.91,8.64h-1.68Zm-.53-1.26-1.63-3.77-1.62,3.77Z"/><path class="cls-1" d="M489.53,110h1.52v3.45a5,5,0,0,1-1.56.81,5.94,5.94,0,0,1-1.83.29,4.85,4.85,0,0,1-2.38-.58,4.24,4.24,0,0,1-1.67-1.58,4.42,4.42,0,0,1-.6-2.29,4.36,4.36,0,0,1,.6-2.28,4.19,4.19,0,0,1,1.67-1.59,5.07,5.07,0,0,1,2.41-.57,5.4,5.4,0,0,1,2,.35,4,4,0,0,1,1.5,1l-1,1a3.24,3.24,0,0,0-2.38-1,3.29,3.29,0,0,0-1.62.39,2.75,2.75,0,0,0-1.12,1.07,3.17,3.17,0,0,0-.4,1.58,3.12,3.12,0,0,0,.4,1.56,2.93,2.93,0,0,0,1.12,1.09,3.28,3.28,0,0,0,1.61.39,3.56,3.56,0,0,0,1.78-.44Z"/><path class="cls-1" d="M506.43,113v1.34H500v-8.64h6.31v1.35h-4.71v2.24h4.18v1.32h-4.18V113Z"/><path class="cls-1" d="M522.7,105.74v8.64h-1.32l-4.77-5.85v5.85H515v-8.64h1.32l4.76,5.85v-5.85Z"/><path class="cls-1" d="M533.45,113.93a4.21,4.21,0,0,1-1.66-1.58,4.42,4.42,0,0,1-.6-2.29,4.28,4.28,0,0,1,.61-2.28,4.23,4.23,0,0,1,1.66-1.59,5.21,5.21,0,0,1,4.3-.2,3.9,3.9,0,0,1,1.49,1.07l-1,1a3,3,0,0,0-2.31-1,3.2,3.2,0,0,0-1.59.39,2.79,2.79,0,0,0-1.1,1.08,3.08,3.08,0,0,0-.4,1.57,3,3,0,0,0,.4,1.57,2.79,2.79,0,0,0,1.1,1.08,3.2,3.2,0,0,0,1.59.39,3,3,0,0,0,2.31-1l1,1a4,4,0,0,1-1.49,1.08,5.13,5.13,0,0,1-2,.37A4.77,4.77,0,0,1,533.45,113.93Z"/><path class="cls-1" d="M551.19,111.33v3h-1.61v-3l-3.39-5.62h1.71l2.53,4.21,2.56-4.21h1.58Z"/><path class="cls-1" d="M572.61,105.74h1.61v8.64h-1.61Z"/><path class="cls-1" d="M591,105.74v8.64h-1.32l-4.77-5.85v5.85h-1.59v-8.64h1.32l4.76,5.85v-5.85Z"/><path class="cls-1" d="M617.6,110.67A2.21,2.21,0,0,1,618,112a2,2,0,0,1-.86,1.73,4.34,4.34,0,0,1-2.52.61h-4.3v-8.64h4a4,4,0,0,1,2.36.6,1.93,1.93,0,0,1,.83,1.65,2.12,2.12,0,0,1-.3,1.13,2.07,2.07,0,0,1-.81.77A2.36,2.36,0,0,1,617.6,110.67ZM612,107v2.38h2.27a2.32,2.32,0,0,0,1.29-.3,1,1,0,0,0,.45-.88,1,1,0,0,0-.45-.9,2.32,2.32,0,0,0-1.29-.3Zm4.45,4.88c0-.83-.62-1.25-1.86-1.25H612v2.5h2.59C615.78,113.13,616.4,112.71,616.4,111.88Z"/><path class="cls-1" d="M632.14,112.38h-4.32l-.86,2h-1.65l3.89-8.64h1.58l3.9,8.64H633Zm-.53-1.26L630,107.35l-1.62,3.77Z"/><path class="cls-1" d="M650.25,105.74v8.64h-1.32l-4.76-5.85v5.85h-1.6v-8.64h1.32l4.77,5.85v-5.85Z"/><path class="cls-1" d="M665.27,110h1.52v3.45a4.81,4.81,0,0,1-1.56.81,5.92,5.92,0,0,1-1.82.29,4.89,4.89,0,0,1-2.39-.58,4.28,4.28,0,0,1-1.66-1.58,4.34,4.34,0,0,1-.61-2.29,4.28,4.28,0,0,1,.61-2.28,4.19,4.19,0,0,1,1.67-1.59,5,5,0,0,1,2.4-.57,5.45,5.45,0,0,1,2,.35,3.88,3.88,0,0,1,1.49,1l-1,1a3.24,3.24,0,0,0-2.38-1,3.36,3.36,0,0,0-1.63.39,2.79,2.79,0,0,0-1.11,1.07,3.07,3.07,0,0,0-.4,1.58,3,3,0,0,0,.4,1.56,3,3,0,0,0,1.11,1.09,3.31,3.31,0,0,0,1.61.39,3.53,3.53,0,0,0,1.78-.44Z"/><path class="cls-1" d="M675.69,105.74h1.61V113h4.52v1.35h-6.13Z"/><path class="cls-1" d="M695.55,112.38h-4.32l-.85,2h-1.66l3.89-8.64h1.58l3.91,8.64h-1.68Zm-.53-1.26-1.63-3.77-1.62,3.77Z"/><path class="cls-1" d="M706,105.74h3.78a5.35,5.35,0,0,1,2.45.54,3.85,3.85,0,0,1,1.67,1.52,4.64,4.64,0,0,1,0,4.53,4,4,0,0,1-1.67,1.52,5.35,5.35,0,0,1-2.45.53H706Zm3.7,7.29a3.61,3.61,0,0,0,1.68-.37,2.6,2.6,0,0,0,1.11-1,3.32,3.32,0,0,0,0-3.12,2.66,2.66,0,0,0-1.11-1,3.74,3.74,0,0,0-1.68-.36h-2.1V113Z"/><path class="cls-1" d="M729.46,113v1.34H723v-8.64h6.31v1.35h-4.7v2.24h4.17v1.32h-4.17V113Z"/><path class="cls-1" d="M738.79,114.22a4.05,4.05,0,0,1-1.47-.75l.55-1.25a4.5,4.5,0,0,0,1.31.69,4.63,4.63,0,0,0,1.55.26,2.76,2.76,0,0,0,1.44-.3,1,1,0,0,0,.47-.82.8.8,0,0,0-.26-.61,1.94,1.94,0,0,0-.68-.38c-.27-.09-.64-.19-1.11-.31a11.46,11.46,0,0,1-1.6-.47,2.56,2.56,0,0,1-1-.73,2,2,0,0,1-.44-1.35,2.34,2.34,0,0,1,.39-1.31,2.62,2.62,0,0,1,1.18-.93,4.75,4.75,0,0,1,1.92-.34,6.27,6.27,0,0,1,1.55.19,4.7,4.7,0,0,1,1.32.57l-.5,1.25a5.41,5.41,0,0,0-1.19-.51A4.63,4.63,0,0,0,741,107a2.53,2.53,0,0,0-1.41.32,1,1,0,0,0-.46.85.8.8,0,0,0,.26.61,1.84,1.84,0,0,0,.68.37c.27.09.64.19,1.11.31a12.11,12.11,0,0,1,1.58.46,2.68,2.68,0,0,1,1,.74,1.89,1.89,0,0,1,.44,1.33,2.29,2.29,0,0,1-.39,1.3,2.67,2.67,0,0,1-1.18.92,4.77,4.77,0,0,1-1.92.35A6.65,6.65,0,0,1,738.79,114.22Z"/><path class="cls-1" d="M760.29,105.74v8.64h-1.61v-3.7h-4.47v3.7h-1.6v-8.64h1.6v3.57h4.47v-3.57Z"/></svg>