<svg id="Layer_1" data-name="Layer 1" xmlns="http://www.w3.org/2000/svg" viewBox="0 0 800 124.47"><defs><style>.cls-1{fill:#2b398e;}.cls-2{fill:none;}.cls-3{fill:#052128;}.cls-4{fill:#00aced;}</style></defs><title>Artboard 20 copy 2</title><path class="cls-1" d="M100.85,50.2v.44l.4-.44Z"/><path class="cls-2" d="M49.47,90.41A17,17,0,0,0,56.72,89a9.14,9.14,0,0,0,4.35-4.31A18,18,0,0,0,62.64,77c.14-2,.22-3.71.26-5.27s0-3.1,0-4.66-.12-3.27-.26-5.17q-.18-6.19-3-9.39A94.84,94.84,0,0,0,39.91,90.41Z"/><path class="cls-3" d="M59.69,52.54q2.76,3.2,3,9.39c.14,1.9.22,3.62.26,5.17s0,3.11,0,4.66-.12,3.31-.26,5.27a18,18,0,0,1-1.57,7.7A9.14,9.14,0,0,1,56.72,89a17,17,0,0,1-7.25,1.37H39.91A83.42,83.42,0,0,0,37.52,105H50q9.93,0,16.77-3a21.84,21.84,0,0,0,10.44-9.17q3.59-6.18,4-15.6c.06-2.91.1-5.48.1-7.71s0-4.83-.1-7.8a30.67,30.67,0,0,0-4-15.15,23,23,0,0,0-5.4-6.07A102.18,102.18,0,0,0,59.69,52.54Z"/><path class="cls-4" d="M50.93,34.09A121,121,0,0,0,20.59,70.76v31.71A2.43,2.43,0,0,0,23.12,105H35.73a84.22,84.22,0,0,1,3-18.37A95.06,95.06,0,0,1,57.83,50.9,103.48,103.48,0,0,1,69.64,39,108.41,108.41,0,0,1,79,31.87c27.55-19,52-28.14,95.39-11.71,4.06,1.54,8.15,3.29,12.24,5.29C129.07-7.54,88.35,3.52,50.93,34.09ZM38.73,49.18v-.52h.48Z"/><path class="cls-3" d="M171,35.44a.71.71,0,0,0,.33-.23l7.51-8a.84.84,0,0,0,0-1.18.85.85,0,0,0-1.19,0l-7.5,8a.85.85,0,0,0,.88,1.38Z"/><path class="cls-3" d="M153.78,24.62C147.56,30.52,138.37,39,125,46.42l6.79,19.77a136.42,136.42,0,0,1,36.09-.51Z"/><path class="cls-3" d="M183.16,36.58l-10,3.44a.86.86,0,0,0-.53,1.08.85.85,0,0,0,1.08.52l10-3.45a.84.84,0,1,0-.55-1.59Z"/><path class="cls-3" d="M186,48.24l-10.84-1.67a.83.83,0,1,0-.25,1.64l10.83,1.67a.77.77,0,0,0,.4,0,.88.88,0,0,0,.56-.66A.84.84,0,0,0,186,48.24Z"/><path class="cls-3" d="M163.23,36.16l-4.75-13.83a1.74,1.74,0,0,0-2.22-1.08l-.15.05A1.73,1.73,0,0,0,155,23.51l14.53,42.27a1.74,1.74,0,0,0,2.21,1.08l.16,0A1.75,1.75,0,0,0,173,64.59l-4.76-13.83c2.16-1.9,3-5.38,1.79-8.78S166.1,36.34,163.23,36.16Z"/><path class="cls-3" d="M124.78,46.56l6.76,19.66.27,0L125,46.42A1.88,1.88,0,0,1,124.78,46.56Z"/><path class="cls-3" d="M157.17,106.88,133.45,41.82a4.1,4.1,0,0,0-1.26-2A3.93,3.93,0,0,0,129.5,39h-7.07v18.6l9,25.28H112.58l9-25.83V39H114.5a3.89,3.89,0,0,0-2.68.86,4.12,4.12,0,0,0-1.27,2L86.74,106.88a3.62,3.62,0,0,0-.1.91,2.25,2.25,0,0,0,2.12,2.13h12.47a3.2,3.2,0,0,0,2.43-.76,3.94,3.94,0,0,0,.91-1.37l3.85-10.33h27.06l4,10.33a3.83,3.83,0,0,0,1,1.37,3.06,3.06,0,0,0,2.28.76h12.46a2.14,2.14,0,0,0,1.57-.66,2,2,0,0,0,.66-1.47A2.06,2.06,0,0,0,157.17,106.88Z"/><path class="cls-3" d="M211.28,88.85a1.29,1.29,0,0,1-.94-.37,1.25,1.25,0,0,1-.37-.94v-34a1.27,1.27,0,0,1,1.31-1.31h13.59a20.86,20.86,0,0,1,8.73,1.65,12.26,12.26,0,0,1,5.54,4.81,15.71,15.71,0,0,1,2.09,7.81c0,1.54.06,2.88.06,4s0,2.47-.06,4a17.3,17.3,0,0,1-2.06,8,11.19,11.19,0,0,1-5.39,4.73,21.51,21.51,0,0,1-8.65,1.55Zm8.05-7.53h5.54a8.72,8.72,0,0,0,3.74-.71,4.75,4.75,0,0,0,2.25-2.22,9.51,9.51,0,0,0,.81-4c.07-1,.11-1.92.13-2.72s0-1.6,0-2.41-.06-1.69-.13-2.66c-.07-2.37-.69-4.11-1.86-5.2a7.33,7.33,0,0,0-5.2-1.65h-5.28Z"/><path class="cls-3" d="M246.65,88.85a1.27,1.27,0,0,1-1.31-1.31v-34a1.29,1.29,0,0,1,.37-.94,1.25,1.25,0,0,1,.94-.37h7a1.27,1.27,0,0,1,.94.37,1.28,1.28,0,0,1,.36.94v34a1.28,1.28,0,0,1-.36.94,1.31,1.31,0,0,1-.94.37Z"/><path class="cls-3" d="M274.3,89.37a20.31,20.31,0,0,1-8.55-1.65,12.53,12.53,0,0,1-5.54-4.81A15.87,15.87,0,0,1,258,75.2c0-1.5-.05-3.09-.05-4.78s0-3.3.05-4.84a14.93,14.93,0,0,1,2.2-7.53,12.63,12.63,0,0,1,5.59-4.7,20.55,20.55,0,0,1,8.47-1.62,22.66,22.66,0,0,1,6.95,1,16.07,16.07,0,0,1,5.1,2.58,12,12,0,0,1,3.14,3.56,8.31,8.31,0,0,1,1.12,3.82.86.86,0,0,1-.29.78,1.12,1.12,0,0,1-.81.31h-7.63a1.64,1.64,0,0,1-.86-.18,1.5,1.5,0,0,1-.5-.55,8,8,0,0,0-1.07-1.65,6.11,6.11,0,0,0-1.93-1.49,7.21,7.21,0,0,0-3.22-.62,6.61,6.61,0,0,0-4.68,1.57q-1.69,1.56-1.85,5-.16,4.5,0,9.1c.1,2.44.75,4.2,1.93,5.28a6.72,6.72,0,0,0,4.71,1.62,8.67,8.67,0,0,0,3.52-.68A5.35,5.35,0,0,0,280.37,79a6.89,6.89,0,0,0,.88-3.68v-1h-4.91a1.33,1.33,0,0,1-1-.39,1.3,1.3,0,0,1-.39-1V69.14a1.31,1.31,0,0,1,.39-1,1.33,1.33,0,0,1,1-.39h13.17a1.25,1.25,0,0,1,.95.39,1.37,1.37,0,0,1,.36,1v6a13.92,13.92,0,0,1-2,7.68A13,13,0,0,1,283,87.67,21,21,0,0,1,274.3,89.37Z"/><path class="cls-3" d="M298.14,88.85a1.29,1.29,0,0,1-.94-.37,1.25,1.25,0,0,1-.37-.94v-34a1.27,1.27,0,0,1,1.31-1.31h7a1.24,1.24,0,0,1,.94.37,1.25,1.25,0,0,1,.37.94v34a1.25,1.25,0,0,1-.37.94,1.27,1.27,0,0,1-.94.37Z"/><path class="cls-3" d="M323.13,88.85a1.27,1.27,0,0,1-.94-.37,1.25,1.25,0,0,1-.37-.94V60.46h-9.31a1.24,1.24,0,0,1-.94-.39,1.32,1.32,0,0,1-.36-.92V53.56a1.28,1.28,0,0,1,.36-.94,1.27,1.27,0,0,1,.94-.37h28.13a1.25,1.25,0,0,1,.94.37,1.29,1.29,0,0,1,.37.94v5.59a1.33,1.33,0,0,1-.37.92,1.23,1.23,0,0,1-.94.39h-9.31V87.54a1.28,1.28,0,0,1-.36.94,1.31,1.31,0,0,1-.94.37Z"/><path class="cls-3" d="M340.9,88.85a1.17,1.17,0,0,1-1.1-1.1,1.68,1.68,0,0,1,.06-.47l12.28-33.56a2,2,0,0,1,2-1.47h7.74a2,2,0,0,1,1.38.45,2,2,0,0,1,.65,1l12.24,33.56a1,1,0,0,1,.1.47,1,1,0,0,1-.34.76,1.11,1.11,0,0,1-.81.34h-6.43a1.55,1.55,0,0,1-1.17-.4,1.84,1.84,0,0,1-.5-.7l-2-5.33H351l-2,5.33a2.08,2.08,0,0,1-.47.7,1.66,1.66,0,0,1-1.26.4Zm12.29-14h9.72L358,61.09Z"/><path class="cls-3" d="M381.73,88.85a1.29,1.29,0,0,1-.94-.37,1.25,1.25,0,0,1-.37-.94v-34a1.27,1.27,0,0,1,1.31-1.31h6.9a1.26,1.26,0,0,1,.91.37,1.2,1.2,0,0,1,.4.94V81h15.78a1.31,1.31,0,0,1,1,.39,1.34,1.34,0,0,1,.39,1v5.23a1.23,1.23,0,0,1-.39.94,1.38,1.38,0,0,1-1,.37Z"/><path class="cls-3" d="M422,88.85a1.08,1.08,0,0,1-.76-.34,1,1,0,0,1-.34-.76,2.19,2.19,0,0,1,.05-.47l12.29-33.56a2,2,0,0,1,.65-1,2,2,0,0,1,1.39-.45H443a2,2,0,0,1,1.39.45,2,2,0,0,1,.65,1l12.24,33.56a1.16,1.16,0,0,1,.1.47,1,1,0,0,1-.34.76,1.14,1.14,0,0,1-.81.34h-6.43a1.58,1.58,0,0,1-1.18-.4,1.91,1.91,0,0,1-.49-.7l-2-5.33h-14l-2,5.33a1.94,1.94,0,0,1-.47.7,1.62,1.62,0,0,1-1.25.4Zm12.28-14H444l-4.92-13.8Z"/><path class="cls-3" d="M475.81,89.37a20.23,20.23,0,0,1-8.54-1.65,12.5,12.5,0,0,1-5.55-4.81,15.87,15.87,0,0,1-2.17-7.71c0-1.5-.05-3.09-.05-4.78s0-3.3.05-4.84a15,15,0,0,1,2.2-7.53,12.63,12.63,0,0,1,5.59-4.7,20.55,20.55,0,0,1,8.47-1.62,22.77,22.77,0,0,1,7,1,15.91,15.91,0,0,1,5.09,2.58A12,12,0,0,1,491,58.84a8.31,8.31,0,0,1,1.12,3.82.87.87,0,0,1-.28.78,1.16,1.16,0,0,1-.81.31h-7.64a1.64,1.64,0,0,1-.86-.18A1.5,1.5,0,0,1,482,63,8,8,0,0,0,481,61.37,6,6,0,0,0,479,59.88a7.21,7.21,0,0,0-3.22-.62,6.64,6.64,0,0,0-4.68,1.57q-1.69,1.56-1.85,5-.16,4.5,0,9.1c.1,2.44.75,4.2,1.93,5.28a6.74,6.74,0,0,0,4.71,1.62,8.75,8.75,0,0,0,3.53-.68A5.37,5.37,0,0,0,481.88,79a6.89,6.89,0,0,0,.89-3.68v-1h-4.92a1.34,1.34,0,0,1-1-.39,1.3,1.3,0,0,1-.39-1V69.14a1.31,1.31,0,0,1,.39-1,1.34,1.34,0,0,1,1-.39H491a1.24,1.24,0,0,1,.94.39,1.37,1.37,0,0,1,.36,1v6a13.92,13.92,0,0,1-2,7.68,13,13,0,0,1-5.77,4.89A20.92,20.92,0,0,1,475.81,89.37Z"/><path class="cls-3" d="M499.65,88.85a1.27,1.27,0,0,1-1.31-1.31v-34a1.29,1.29,0,0,1,.37-.94,1.25,1.25,0,0,1,.94-.37h24.41a1.25,1.25,0,0,1,1.31,1.31v4.91a1.25,1.25,0,0,1-1.31,1.31H507.39v7.06h15.52a1.25,1.25,0,0,1,1,.39,1.37,1.37,0,0,1,.36,1v4.54a1.32,1.32,0,0,1-.36.92,1.25,1.25,0,0,1-1,.39H507.39v7.27h17.09a1.25,1.25,0,0,1,1.31,1.31v4.91a1.25,1.25,0,0,1-.37.94,1.27,1.27,0,0,1-.94.37Z"/><path class="cls-3" d="M533.06,88.85a1.31,1.31,0,0,1-.95-.37,1.28,1.28,0,0,1-.36-.94v-34a1.25,1.25,0,0,1,1.31-1.31h5.54a1.77,1.77,0,0,1,1.28.39,2.94,2.94,0,0,1,.49.61l12.76,20.12V53.56a1.25,1.25,0,0,1,.37-.94,1.24,1.24,0,0,1,.94-.37h6.27A1.27,1.27,0,0,1,562,53.56v34a1.26,1.26,0,0,1-.37.91,1.2,1.2,0,0,1-.94.4h-5.59a1.61,1.61,0,0,1-1.23-.42,5.58,5.58,0,0,1-.5-.58L540.64,68.51v19a1.27,1.27,0,0,1-1.31,1.31Z"/><path class="cls-3" d="M581.25,89.37a20.22,20.22,0,0,1-8.49-1.62A12.35,12.35,0,0,1,567.27,83a15.8,15.8,0,0,1-2.17-7.79c0-1.43-.05-3-.05-4.6s0-3.2.05-4.7a15.6,15.6,0,0,1,2.19-7.71,12.6,12.6,0,0,1,5.55-4.81,19.78,19.78,0,0,1,8.41-1.65,22.68,22.68,0,0,1,6.38.86,16,16,0,0,1,5.12,2.51,11.82,11.82,0,0,1,3.43,4,11.64,11.64,0,0,1,1.28,5.26.88.88,0,0,1-.29.78,1.17,1.17,0,0,1-.81.32H589.3a1.65,1.65,0,0,1-1-.29,2.17,2.17,0,0,1-.63-1.07,6,6,0,0,0-2.38-3.79,7.56,7.56,0,0,0-4-1,6.34,6.34,0,0,0-4.55,1.59c-1.11,1.07-1.72,2.83-1.83,5.31-.1,2.86-.1,5.78,0,8.78.11,2.48.72,4.24,1.83,5.31a6.34,6.34,0,0,0,4.55,1.59,7.55,7.55,0,0,0,4.08-1A5.84,5.84,0,0,0,587.63,77a1.9,1.9,0,0,1,.6-1.07,1.79,1.79,0,0,1,1.07-.29h7.06a1.17,1.17,0,0,1,.81.32.88.88,0,0,1,.29.78A11.57,11.57,0,0,1,596.18,82a11.85,11.85,0,0,1-3.43,4,16.2,16.2,0,0,1-5.12,2.51A22.68,22.68,0,0,1,581.25,89.37Z"/><path class="cls-3" d="M609.53,88.85a1.3,1.3,0,0,1-.91-.37,1.2,1.2,0,0,1-.4-.94V76.3L596.1,53.92c0-.1-.07-.2-.11-.28a.93.93,0,0,1,0-.29,1,1,0,0,1,.34-.76,1.13,1.13,0,0,1,.81-.34h6.53a1.78,1.78,0,0,1,1.23.39,1.84,1.84,0,0,1,.55.71l7.53,13.49,7.53-13.49a2.5,2.5,0,0,1,.6-.71,1.78,1.78,0,0,1,1.23-.39h6.53a1.07,1.07,0,0,1,.79.34,1.14,1.14,0,0,1,.31.76,1.36,1.36,0,0,1,0,.29,2.05,2.05,0,0,1-.08.28L617.63,76.3V87.54a1.28,1.28,0,0,1-.36.94,1.31,1.31,0,0,1-.94.37Z"/><path class="cls-3" d="M643.23,88.85a1.29,1.29,0,0,1-.94-.37,1.25,1.25,0,0,1-.37-.94v-34a1.27,1.27,0,0,1,1.31-1.31h14.64a19.58,19.58,0,0,1,7.55,1.34,10.93,10.93,0,0,1,5,4,11.82,11.82,0,0,1,1.8,6.75,11.45,11.45,0,0,1-1.8,6.64,10.64,10.64,0,0,1-5,3.87,20.84,20.84,0,0,1-7.55,1.25h-6.22V87.54a1.2,1.2,0,0,1-.4.94,1.37,1.37,0,0,1-1,.37Zm8.26-20h6.12a5.34,5.34,0,0,0,3.58-1.15,4.39,4.39,0,0,0,1.33-3.51,5,5,0,0,0-1.15-3.34,4.66,4.66,0,0,0-3.76-1.36h-6.12Z"/><path class="cls-3" d="M673.24,88.85a1.08,1.08,0,0,1-.76-.34,1,1,0,0,1-.34-.76,2.26,2.26,0,0,1,.05-.47l12.29-33.56a2,2,0,0,1,.65-1,2,2,0,0,1,1.39-.45h7.73a2,2,0,0,1,1.39.45,2,2,0,0,1,.65,1l12.23,33.56a1,1,0,0,1-.23,1.23,1.14,1.14,0,0,1-.81.34h-6.43a1.58,1.58,0,0,1-1.18-.4,1.91,1.91,0,0,1-.49-.7l-2-5.33h-14l-2,5.33a1.94,1.94,0,0,1-.47.7,1.62,1.62,0,0,1-1.25.4Zm12.28-14h9.73l-4.92-13.8Z"/><path class="cls-3" d="M714.07,88.85a1.31,1.31,0,0,1-1-.37,1.28,1.28,0,0,1-.36-.94v-34a1.25,1.25,0,0,1,1.31-1.31h14.21q6.75,0,10.64,3.11a10.63,10.63,0,0,1,3.9,8.81A10.53,10.53,0,0,1,741,70.44a11.28,11.28,0,0,1-4.73,3.87l7.22,12.86a1.39,1.39,0,0,1,.15.58,1,1,0,0,1-.34.76,1.11,1.11,0,0,1-.81.34h-6.9a1.92,1.92,0,0,1-1.46-.5,4.06,4.06,0,0,1-.68-.92l-6-11.5h-5.38V87.54a1.27,1.27,0,0,1-1.31,1.31Zm8-20.29h6.06a5.09,5.09,0,0,0,3.69-1.2,4.42,4.42,0,0,0,1.22-3.29,4.66,4.66,0,0,0-1.17-3.3,5,5,0,0,0-3.74-1.25h-6.06Z"/><path class="cls-3" d="M750.19,88.85a1.29,1.29,0,0,1-.94-.37,1.25,1.25,0,0,1-.37-.94v-34a1.27,1.27,0,0,1,1.31-1.31h6.59a1.27,1.27,0,0,1,.94.37,1.28,1.28,0,0,1,.36.94v11.6l9.67-11.91a2.71,2.71,0,0,1,.71-.66,2.36,2.36,0,0,1,1.33-.34h7.53a1,1,0,0,1,.78.34,1.1,1.1,0,0,1,.32.76,1,1,0,0,1-.21.63l-12.5,15.79L779.2,87.12a.86.86,0,0,1,.21.63,1,1,0,0,1-.34.76,1.07,1.07,0,0,1-.76.34h-7.79a2.16,2.16,0,0,1-1.43-.42,5.25,5.25,0,0,1-.66-.63L758.08,74.89V87.54a1.28,1.28,0,0,1-.36.94,1.31,1.31,0,0,1-.94.37Z"/><path class="cls-3" d="M219.1,101.15h3.78a5.43,5.43,0,0,1,2.46.54,3.94,3.94,0,0,1,1.66,1.52,4.58,4.58,0,0,1,0,4.53,4,4,0,0,1-1.66,1.52,5.43,5.43,0,0,1-2.46.54H219.1Zm3.71,7.29a3.57,3.57,0,0,0,1.67-.37,2.64,2.64,0,0,0,1.11-1,3.34,3.34,0,0,0,0-3.13,2.66,2.66,0,0,0-1.11-1,3.7,3.7,0,0,0-1.67-.36h-2.1v5.93Z"/><path class="cls-3" d="M236.09,101.15h1.61v8.65h-1.61Z"/><path class="cls-3" d="M252.73,105.38h1.52v3.44a4.84,4.84,0,0,1-1.56.82,5.93,5.93,0,0,1-1.83.28,5,5,0,0,1-2.38-.57,4.51,4.51,0,0,1-1.67-6.16,4.29,4.29,0,0,1,1.68-1.59,5,5,0,0,1,2.4-.57,5.2,5.2,0,0,1,2,.36,3.84,3.84,0,0,1,1.5,1l-1,1a3.49,3.49,0,0,0-4-.6,2.72,2.72,0,0,0-1.11,1.07,3.07,3.07,0,0,0-.4,1.58,3,3,0,0,0,.4,1.56,2.91,2.91,0,0,0,1.11,1.09,3.28,3.28,0,0,0,1.61.39,3.53,3.53,0,0,0,1.78-.44Z"/><path class="cls-3" d="M263.15,101.15h1.61v8.65h-1.61Z"/><path class="cls-3" d="M275.64,102.51h-2.87v-1.36h7.34v1.36h-2.87v7.29h-1.6Z"/><path class="cls-3" d="M293.28,107.8H289l-.85,2h-1.66l3.9-8.65h1.58l3.9,8.65h-1.68Zm-.53-1.26-1.63-3.78-1.61,3.78Z"/><path class="cls-3" d="M303.72,101.15h1.61v7.29h4.52v1.36h-6.13Z"/><path class="cls-3" d="M336.05,109.8v-5.73l-2.84,4.74h-.72l-2.84-4.67v5.66h-1.53v-8.65h1.32l3.43,5.73,3.38-5.73h1.32v8.65Z"/><path class="cls-3" d="M352.3,107.8H348l-.85,2h-1.66l3.89-8.65h1.58l3.91,8.65h-1.68Zm-.53-1.26-1.63-3.78-1.62,3.78Z"/><path class="cls-3" d="M368.39,109.8l-1.76-2.54-.34,0h-2v2.52h-1.6v-8.65h3.55a4.73,4.73,0,0,1,2,.37,2.87,2.87,0,0,1,1.28,1.06,3,3,0,0,1,.44,1.65,2.91,2.91,0,0,1-.47,1.68,2.82,2.82,0,0,1-1.37,1l2,2.84Zm-.58-6.85a2.49,2.49,0,0,0-1.59-.44h-1.88V106h1.88a2.38,2.38,0,0,0,1.59-.46,1.75,1.75,0,0,0,0-2.55Z"/><path class="cls-3" d="M381.53,106.18l-1.37,1.41v2.21h-1.6v-8.65h1.6v4.44l4.28-4.44h1.8L382.61,105l3.85,4.78h-1.88Z"/><path class="cls-3" d="M400.84,108.45v1.35h-6.49v-8.65h6.31v1.35H396v2.25h4.17v1.32H396v2.38Z"/><path class="cls-3" d="M411.17,102.51h-2.86v-1.36h7.33v1.36h-2.86v7.29h-1.61Z"/><path class="cls-3" d="M423.65,101.15h1.6v8.65h-1.6Z"/><path class="cls-3" d="M442.06,101.15v8.65h-1.32L436,103.94v5.86h-1.59v-8.65h1.32l4.77,5.86v-5.86Z"/><path class="cls-3" d="M457.08,105.38h1.51v3.44a4.69,4.69,0,0,1-1.55.82,5.93,5.93,0,0,1-1.83.28,4.93,4.93,0,0,1-2.38-.57,4.33,4.33,0,0,1-1.67-1.59,4.58,4.58,0,0,1,0-4.57,4.26,4.26,0,0,1,1.67-1.59,5.07,5.07,0,0,1,2.41-.57,5.2,5.2,0,0,1,2,.36,4,4,0,0,1,1.5,1l-1,1a3.48,3.48,0,0,0-4-.6,2.75,2.75,0,0,0-1.12,1.07,3.17,3.17,0,0,0-.4,1.58,3.12,3.12,0,0,0,.4,1.56,2.93,2.93,0,0,0,1.12,1.09,3.28,3.28,0,0,0,1.61.39,3.59,3.59,0,0,0,1.78-.44Z"/><path class="cls-3" d="M483.31,107.8H479l-.85,2h-1.65l3.89-8.65H482l3.9,8.65h-1.68Zm-.54-1.26-1.63-3.78-1.61,3.78Z"/><path class="cls-3" d="M499.52,105.38H501v3.44a4.74,4.74,0,0,1-1.56.82,5.91,5.91,0,0,1-1.82.28,5,5,0,0,1-2.39-.57,4.51,4.51,0,0,1-1.67-6.16,4.36,4.36,0,0,1,1.68-1.59,5,5,0,0,1,2.4-.57,5.29,5.29,0,0,1,2,.36,3.88,3.88,0,0,1,1.49,1l-1,1a3.49,3.49,0,0,0-4-.6,2.79,2.79,0,0,0-1.11,1.07,3.07,3.07,0,0,0-.4,1.58A3,3,0,0,0,495,107a3,3,0,0,0,1.11,1.09,3.28,3.28,0,0,0,1.61.39,3.53,3.53,0,0,0,1.78-.44Z"/><path class="cls-3" d="M516.43,108.45v1.35h-6.49v-8.65h6.31v1.35h-4.7v2.25h4.17v1.32h-4.17v2.38Z"/><path class="cls-3" d="M532.69,101.15v8.65h-1.32l-4.77-5.86v5.86H525v-8.65h1.32L531.1,107v-5.86Z"/><path class="cls-3" d="M543.44,109.35a4.35,4.35,0,0,1-1.65-1.59,4.65,4.65,0,0,1,0-4.57,4.37,4.37,0,0,1,1.66-1.59,5.24,5.24,0,0,1,4.31-.2,4,4,0,0,1,1.48,1.07l-1,1a3,3,0,0,0-2.31-1,3.34,3.34,0,0,0-1.59.38,2.75,2.75,0,0,0-1.1,1.09,3.34,3.34,0,0,0,0,3.13,2.79,2.79,0,0,0,1.1,1.08,3.23,3.23,0,0,0,1.59.39,3,3,0,0,0,2.31-1l1,1a4,4,0,0,1-1.49,1.08,5.24,5.24,0,0,1-4.31-.2Z"/><path class="cls-3" d="M561.18,106.75v3h-1.6v-3l-3.4-5.62h1.72l2.53,4.21,2.55-4.21h1.59Z"/><path class="cls-3" d="M582.61,101.15h1.6v8.65h-1.6Z"/><path class="cls-3" d="M601,101.15v8.65H599.7l-4.77-5.86v5.86h-1.59v-8.65h1.32l4.77,5.86v-5.86Z"/><path class="cls-3" d="M627.6,106.08a2.21,2.21,0,0,1,.42,1.37,2,2,0,0,1-.87,1.74,4.38,4.38,0,0,1-2.52.61h-4.29v-8.65h4a3.94,3.94,0,0,1,2.35.6,1.91,1.91,0,0,1,.83,1.65,2.25,2.25,0,0,1-.29,1.14,2.07,2.07,0,0,1-.82.76A2.34,2.34,0,0,1,627.6,106.08Zm-5.66-3.67v2.38h2.27a2.32,2.32,0,0,0,1.29-.3,1,1,0,0,0,.45-.88,1,1,0,0,0-.45-.9,2.32,2.32,0,0,0-1.29-.3Zm4.46,4.88c0-.83-.62-1.25-1.87-1.25h-2.59v2.5h2.59C625.78,108.54,626.4,108.12,626.4,107.29Z"/><path class="cls-3" d="M642.13,107.8h-4.32l-.85,2H635.3l3.89-8.65h1.58l3.91,8.65H643Zm-.53-1.26L640,102.76l-1.62,3.78Z"/><path class="cls-3" d="M660.25,101.15v8.65h-1.32l-4.77-5.86v5.86h-1.59v-8.65h1.32l4.77,5.86v-5.86Z"/><path class="cls-3" d="M675.27,105.38h1.52v3.44a4.84,4.84,0,0,1-1.56.82,5.93,5.93,0,0,1-1.83.28,5,5,0,0,1-2.38-.57,4.33,4.33,0,0,1-1.67-1.59,4.65,4.65,0,0,1,0-4.57A4.26,4.26,0,0,1,671,101.6a5.07,5.07,0,0,1,2.41-.57,5.2,5.2,0,0,1,2,.36,4,4,0,0,1,1.5,1l-1,1a3.48,3.48,0,0,0-4-.6,2.75,2.75,0,0,0-1.12,1.07,3.17,3.17,0,0,0-.4,1.58,3.12,3.12,0,0,0,.4,1.56,2.93,2.93,0,0,0,1.12,1.09,3.28,3.28,0,0,0,1.61.39,3.56,3.56,0,0,0,1.78-.44Z"/><path class="cls-3" d="M685.69,101.15h1.6v7.29h4.52v1.36h-6.12Z"/><path class="cls-3" d="M705.55,107.8h-4.33l-.85,2h-1.65l3.89-8.65h1.58l3.9,8.65h-1.68Zm-.53-1.26-1.63-3.78-1.62,3.78Z"/><path class="cls-3" d="M716,101.15h3.78a5.43,5.43,0,0,1,2.46.54,4,4,0,0,1,1.67,1.52,4.64,4.64,0,0,1,0,4.53,4,4,0,0,1-1.67,1.52,5.43,5.43,0,0,1-2.46.54H716Zm3.71,7.29a3.57,3.57,0,0,0,1.67-.37,2.64,2.64,0,0,0,1.11-1,3.34,3.34,0,0,0,0-3.13,2.66,2.66,0,0,0-1.11-1,3.7,3.7,0,0,0-1.67-.36h-2.1v5.93Z"/><path class="cls-3" d="M739.46,108.45v1.35H733v-8.65h6.31v1.35h-4.71v2.25h4.17v1.32h-4.17v2.38Z"/><path class="cls-3" d="M748.79,109.64a4,4,0,0,1-1.48-.76l.56-1.24a4.93,4.93,0,0,0,2.85,1,2.75,2.75,0,0,0,1.44-.31.94.94,0,0,0,.48-.82.79.79,0,0,0-.27-.61,2.06,2.06,0,0,0-.67-.38c-.27-.09-.65-.19-1.11-.3a14.38,14.38,0,0,1-1.6-.47,2.68,2.68,0,0,1-1-.74,1.93,1.93,0,0,1-.44-1.35,2.29,2.29,0,0,1,.39-1.3,2.66,2.66,0,0,1,1.17-.94A4.75,4.75,0,0,1,751,101a5.86,5.86,0,0,1,1.56.2,4.42,4.42,0,0,1,1.32.56l-.51,1.25a4.87,4.87,0,0,0-1.18-.5,4.31,4.31,0,0,0-1.2-.18,2.55,2.55,0,0,0-1.42.32,1,1,0,0,0-.46.86.77.77,0,0,0,.27.6,1.8,1.8,0,0,0,.67.37c.27.09.64.19,1.11.31a12.11,12.11,0,0,1,1.58.46,2.72,2.72,0,0,1,1.06.74,1.94,1.94,0,0,1,.44,1.33,2.29,2.29,0,0,1-.39,1.3,2.73,2.73,0,0,1-1.18.92,4.82,4.82,0,0,1-1.93.35A6.53,6.53,0,0,1,748.79,109.64Z"/><path class="cls-3" d="M770.28,101.15v8.65h-1.6v-3.71h-4.47v3.71H762.6v-8.65h1.61v3.57h4.47v-3.57Z"/></svg>