<svg id="Layer_1" data-name="Layer 1" xmlns="http://www.w3.org/2000/svg" xmlns:xlink="http://www.w3.org/1999/xlink" viewBox="0 0 1920 580"><defs><style>.cls-1{fill:url(#linear-gradient);}.cls-2{font-size:48px;font-family:Poppins-Bold, Poppins;font-weight:700;}.cls-2,.cls-3,.cls-4{fill:#fff;}.cls-3{font-size:24px;font-family:Poppins-Regular, Poppins;}.cls-5{fill:#ff1d25;}.cls-6{fill:#e5f1ff;}.cls-7{fill:#a9ccea;}.cls-8{fill:#0f3157;}.cls-9{fill:#ff4d6b;}.cls-10,.cls-16,.cls-19,.cls-20,.cls-21,.cls-28,.cls-30,.cls-33{fill:none;}.cls-10,.cls-30{stroke:#ff4d6b;}.cls-10,.cls-19,.cls-33{stroke-linecap:round;stroke-linejoin:round;}.cls-10,.cls-16,.cls-17,.cls-28,.cls-30,.cls-33{stroke-width:1.13px;}.cls-10{stroke-dasharray:0 5.64;}.cls-11,.cls-17,.cls-18{fill:#289df2;}.cls-12{fill:#0f3775;}.cls-13{fill:#284d89;}.cls-14{fill:#2889db;}.cls-15{fill:#282e5c;}.cls-16,.cls-17,.cls-18{stroke:#fff;}.cls-16,.cls-17,.cls-18,.cls-20,.cls-21,.cls-28,.cls-30{stroke-miterlimit:10;}.cls-18{stroke-width:0.56px;}.cls-19{stroke:#284d89;stroke-width:2.26px;}.cls-20{stroke:#ff5c66;stroke-width:1.02px;}.cls-21{stroke:#f7f7f7;stroke-width:0.25px;}.cls-22,.cls-23,.cls-27{fill:#f7f7f7;}.cls-23,.cls-27{font-size:9.77px;}.cls-23{font-family:BebasNeueRegular;letter-spacing:0.06em;}.cls-24{letter-spacing:0.05em;}.cls-25,.cls-27{letter-spacing:0.06em;}.cls-26{fill:#28385e;}.cls-27{font-family:BebasNeueBook;}.cls-28,.cls-33{stroke:#289df2;}.cls-29{fill:#f9fbfc;}.cls-31{fill:#1ae5ff;}.cls-32{fill:#287dd1;}</style><linearGradient id="linear-gradient" y1="290" x2="1920" y2="290" gradientUnits="userSpaceOnUse"><stop offset="0" stop-color="#f84b06"/><stop offset="1" stop-color="#fbb61d"/></linearGradient></defs><title>Artboard 1</title><rect class="cls-1" width="1920" height="580"/><text class="cls-2" transform="translate(230.65 210.65)">InnovateTech Solutions</text><text class="cls-3" transform="translate(230.65 280.53)">Pioneering technological innovation through creative<tspan x="0" y="33.8">software development, helping businesses stay</tspan></text><rect class="cls-4" x="230.65" y="359.27" width="192" height="51" rx="4"/><path class="cls-5" d="M262.88,380.08a4,4,0,0,0-1.58-1.61,4.84,4.84,0,0,0-2.36-.55,5.13,5.13,0,0,0-2.64.67,4.77,4.77,0,0,0-1.8,1.92,6.82,6.82,0,0,0,0,5.81,4.71,4.71,0,0,0,1.83,1.92,5.43,5.43,0,0,0,2.74.67,4.72,4.72,0,0,0,3.14-1,4.88,4.88,0,0,0,1.61-2.84h-5.76v-2.57h9.07v2.93a7.74,7.74,0,0,1-1.44,3.24,8.09,8.09,0,0,1-2.84,2.39,8.36,8.36,0,0,1-3.9.9,8.79,8.79,0,0,1-4.38-1.1,7.85,7.85,0,0,1-3.07-3,9.3,9.3,0,0,1,0-8.85,7.8,7.8,0,0,1,3.07-3,9.31,9.31,0,0,1,9.27.28,7,7,0,0,1,2.88,3.88Z"/><path class="cls-5" d="M273,377.75V382h5.64v2.67H273v4.44h6.36v2.73h-9.72V375h9.72v2.73Z"/><path class="cls-5" d="M293.82,375v2.71h-4.47v14H286v-14h-4.46V375Z"/><path class="cls-5" d="M312.25,388.6h-6.67l-1.11,3.19h-3.53L307,375h3.91l6,16.77h-3.55Zm-.91-2.69-2.43-7-2.42,7Z"/><path class="cls-5" d="M337.35,394.74l-2.54-3.05a8.95,8.95,0,0,1-6.48-.83,8.19,8.19,0,0,1-3.12-3.06,9,9,0,0,1,0-8.84,8.19,8.19,0,0,1,3.12-3.06,9.05,9.05,0,0,1,8.65,0,8.25,8.25,0,0,1,3.09,3.06,8.6,8.6,0,0,1,1.14,4.41,8.77,8.77,0,0,1-.94,4.07,8.37,8.37,0,0,1-2.58,3l3.84,4.32Zm-9.19-8.42a4.64,4.64,0,0,0,1.81,2,5.26,5.26,0,0,0,2.68.68,5.19,5.19,0,0,0,2.66-.68,4.69,4.69,0,0,0,1.8-2,6.44,6.44,0,0,0,.65-2.95,6.37,6.37,0,0,0-.65-2.94,4.55,4.55,0,0,0-1.8-1.93,5.19,5.19,0,0,0-2.66-.68,5.26,5.26,0,0,0-2.68.68,4.51,4.51,0,0,0-1.81,1.93,6.37,6.37,0,0,0-.65,2.94A6.44,6.44,0,0,0,328.16,386.32Z"/><path class="cls-5" d="M347.07,375v10.37A3.56,3.56,0,0,0,348,388a3.33,3.33,0,0,0,2.49.9A3.38,3.38,0,0,0,353,388a3.52,3.52,0,0,0,.89-2.6V375h3.39v10.34a6.67,6.67,0,0,1-.93,3.62,5.8,5.8,0,0,1-2.47,2.21,7.78,7.78,0,0,1-3.44.75,7.61,7.61,0,0,1-3.4-.75A5.59,5.59,0,0,1,344.6,389a6.94,6.94,0,0,1-.89-3.62V375Z"/><path class="cls-5" d="M363.94,390.86a8.33,8.33,0,0,1-3.12-3.06,9.07,9.07,0,0,1,0-8.84,8.33,8.33,0,0,1,3.12-3.06,9.05,9.05,0,0,1,8.65,0,8.2,8.2,0,0,1,3.1,3.06,9.14,9.14,0,0,1,0,8.84,8.23,8.23,0,0,1-3.11,3.06,9,9,0,0,1-8.64,0Zm7-2.58a4.82,4.82,0,0,0,1.8-2,6.44,6.44,0,0,0,.64-2.95,6.37,6.37,0,0,0-.64-2.94,4.67,4.67,0,0,0-1.8-1.93,5.58,5.58,0,0,0-5.34,0,4.59,4.59,0,0,0-1.82,1.93,6.37,6.37,0,0,0-.64,2.94,6.44,6.44,0,0,0,.64,2.95,4.73,4.73,0,0,0,1.82,2,5.58,5.58,0,0,0,5.34,0Z"/><path class="cls-5" d="M390.73,375v2.71h-4.47v14H382.9v-14h-4.46V375Z"/><path class="cls-5" d="M396.53,377.75V382h5.64v2.67h-5.64v4.44h6.36v2.73h-9.72V375h9.72v2.73Z"/><circle class="cls-6" cx="1538.74" cy="196.5" r="103.26"/><circle class="cls-6" cx="1272.69" cy="414.18" r="60.35" transform="translate(79.89 1021.24) rotate(-45)"/><path class="cls-7" d="M1271.89,127.67a55.18,55.18,0,1,0,55.17,55.17A55.17,55.17,0,0,0,1271.89,127.67Zm0,90.45a35.28,35.28,0,1,1,35.27-35.28A35.27,35.27,0,0,1,1271.89,218.12Z"/><path class="cls-8" d="M1480.34,480.42a6.33,6.33,0,0,1-6.34,6.33H1313.91a6.33,6.33,0,0,1,0-12.66h56.83l7.84-14.47h30.75l7.84,14.47H1474A6.34,6.34,0,0,1,1480.34,480.42Z"/><rect class="cls-9" x="1379.52" y="446.5" width="26.23" height="7.69"/><rect class="cls-9" x="1379.52" y="433.84" width="26.23" height="7.69"/><path class="cls-10" d="M1601.48,407.82a41,41,0,1,1,22.64-21.29"/><path class="cls-11" d="M1485.66,176.94h-6.55a53.78,53.78,0,0,0-6.71-16.21l4.63-4.63a5.09,5.09,0,0,0,0-7.22l-10.29-10.29a5.09,5.09,0,0,0-7.22,0l-4.63,4.63a53.63,53.63,0,0,0-16.21-6.71V130a5.11,5.11,0,0,0-5.11-5.11H1419a5.11,5.11,0,0,0-5.11,5.11v6.55a53.53,53.53,0,0,0-16.21,6.71l-4.63-4.63a5.11,5.11,0,0,0-7.23,0l-10.29,10.29a5.11,5.11,0,0,0,0,7.22l4.63,4.63a54,54,0,0,0-6.71,16.21h-6.55a5.11,5.11,0,0,0-5.11,5.11V196.6a5.11,5.11,0,0,0,5.11,5.11h6.55a54,54,0,0,0,6.71,16.21l-4.63,4.63a5.12,5.12,0,0,0,0,7.23l10.29,10.29a5.12,5.12,0,0,0,7.23,0l4.63-4.63a54,54,0,0,0,16.21,6.71v6.55a5.11,5.11,0,0,0,5.11,5.11h14.55a5.11,5.11,0,0,0,5.11-5.11v-6.55a54,54,0,0,0,16.21-6.71l4.63,4.63a5.11,5.11,0,0,0,7.22,0L1477,229.78a5.11,5.11,0,0,0,0-7.23l-4.63-4.63a53.78,53.78,0,0,0,6.71-16.21h6.55a5.11,5.11,0,0,0,5.11-5.11V182.05A5.11,5.11,0,0,0,1485.66,176.94Zm-59.37,38.34a26,26,0,1,1,26-25.95A26,26,0,0,1,1426.29,215.28Z"/><rect class="cls-12" x="1272.19" y="114.62" width="243.52" height="388.01" rx="11.47" transform="translate(1702.58 -1085.33) rotate(90)"/><rect class="cls-13" x="1228.24" y="216.99" width="40.02" height="8.82"/><rect class="cls-13" x="1276.41" y="216.99" width="40.02" height="8.82"/><rect class="cls-13" x="1398.52" y="216.99" width="40.02" height="8.82"/><rect class="cls-13" x="1520.62" y="216.99" width="40.02" height="8.82"/><rect class="cls-9" x="1321.86" y="216.99" width="71.57" height="8.82"/><rect class="cls-14" x="1443.29" y="216.99" width="71.57" height="8.82"/><rect class="cls-14" x="1228.47" y="209.98" width="7.01" height="4.3"/><rect class="cls-4" x="1228.47" y="233.04" width="73.15" height="4.3"/><rect class="cls-4" x="1228.47" y="240.62" width="21.71" height="4.3"/><rect class="cls-13" x="1228.92" y="258.37" width="86.15" height="141.1" rx="7.61"/><rect class="cls-4" x="1239.78" y="279.06" width="28.83" height="4.41"/><rect class="cls-4" x="1239.78" y="288.9" width="28.83" height="4.41"/><rect class="cls-4" x="1239.78" y="298.73" width="28.83" height="4.41"/><rect class="cls-4" x="1239.78" y="339.77" width="17.64" height="4.41"/><rect class="cls-4" x="1239.78" y="349.61" width="17.64" height="4.41"/><rect class="cls-4" x="1270.08" y="349.61" width="17.64" height="4.41"/><rect class="cls-4" x="1239.78" y="328.58" width="11.08" height="4.41"/><rect class="cls-4" x="1287.26" y="328.58" width="5.88" height="4.41"/><rect class="cls-9" x="1254.7" y="328.58" width="30.3" height="4.41"/><rect class="cls-14" x="1239.78" y="311.96" width="4.24" height="4.41"/><rect class="cls-9" x="1239.78" y="319.76" width="4.24" height="4.41"/><polygon class="cls-4" points="1263.29 354.92 1261.71 354.92 1265.5 349.27 1267.08 349.27 1263.29 354.92"/><rect class="cls-15" x="1239.78" y="362.5" width="65.46" height="3.73"/><rect class="cls-15" x="1239.78" y="370.98" width="65.46" height="3.73"/><rect class="cls-11" x="1431.98" y="251.59" width="196.27" height="65.12" rx="6.77"/><path class="cls-16" d="M1490.32,293.64s10-24.42,38.44-18.54,43,38,79.6,11.76"/><rect class="cls-17" x="1578.51" y="295" width="4.07" height="4.07"/><line class="cls-18" x1="1495.3" y1="273.97" x2="1546.85" y2="273.97"/><line class="cls-18" x1="1554.77" y1="298.17" x2="1606.32" y2="298.17"/><rect class="cls-17" x="1517" y="271.94" width="4.07" height="4.07"/><rect class="cls-13" x="1421.58" y="263.34" width="50.65" height="70.1" rx="4.89"/><rect class="cls-4" x="1429.49" y="273.29" width="28.83" height="3.97"/><rect class="cls-4" x="1429.49" y="282.16" width="28.83" height="3.97"/><rect class="cls-4" x="1429.49" y="291.03" width="10.85" height="3.97"/><rect class="cls-11" x="1429.49" y="300.2" width="18.77" height="3.97"/><rect class="cls-11" x="1429.49" y="309.07" width="12.66" height="3.97"/><rect class="cls-4" x="1429.49" y="317.93" width="12.66" height="3.97"/><line class="cls-19" x1="1596.6" y1="242.77" x2="1616.95" y2="242.77"/><path class="cls-20" d="M1550.87,357.6l-7,5.49-10.08,1.84s-9.47-.61-10.38-.61-7.33-5.2-7.33-5.2l-11.91-4.27-8.25,3-9.77-2.13-14.66-.92-14,5.5-11.6,1.83-10.38,3.36-11.61.91-12.52-9.77-11.6-2.14-11.91,6.72-9.47,3.06-10.75-.31L1354,372.26H1346L1332.32,377"/><line class="cls-21" x1="1332.52" y1="377.24" x2="1551.18" y2="377.24"/><rect class="cls-22" x="1330.39" y="374.5" width="2.24" height="5.5"/><rect class="cls-22" x="1549.85" y="374.5" width="2.24" height="5.5"/><line class="cls-21" x1="1550.97" y1="377.24" x2="1550.97" y2="358.82"/><path class="cls-22" d="M1552.2,357.9a1.74,1.74,0,1,1-1.74-1.73A1.73,1.73,0,0,1,1552.2,357.9Z"/><text class="cls-23" transform="translate(1332.83 390.14)">beta <tspan class="cls-24" x="23.4" y="0">t</tspan><tspan class="cls-25" x="27.17" y="0">est</tspan></text><rect class="cls-26" x="1383.01" y="385.18" width="136" height="2.44"/><rect class="cls-9" x="1383.01" y="385.18" width="83.47" height="2.44"/><rect class="cls-26" x="1383.01" y="389.87" width="66.88" height="2.44"/><polygon class="cls-9" points="1340.62 397.14 1348.86 397.14 1349.93 394.86 1333.29 394.86 1333.29 398.67 1339.09 398.67 1340.62 397.14"/><rect class="cls-22" x="1356.79" y="394.83" width="0.92" height="0.92"/><rect class="cls-22" x="1362.48" y="394.83" width="0.92" height="0.92"/><rect class="cls-22" x="1368.16" y="394.83" width="0.92" height="0.92"/><text class="cls-27" transform="translate(1540.28 351.8)">500</text><polygon class="cls-26" points="1528.78 392.51 1526.75 392.51 1523.49 385.18 1525.53 385.18 1528.78 392.51"/><polygon class="cls-26" points="1534.08 392.51 1532.04 392.51 1528.78 385.18 1530.82 385.18 1534.08 392.51"/><polygon class="cls-26" points="1539.37 392.51 1537.33 392.51 1534.08 385.18 1536.11 385.18 1539.37 392.51"/><polygon class="cls-26" points="1544.66 392.51 1542.63 392.51 1539.37 385.18 1541.4 385.18 1544.66 392.51"/><polygon class="cls-26" points="1549.85 392.51 1547.82 392.51 1544.56 385.18 1546.6 385.18 1549.85 392.51"/><rect class="cls-7" x="1507.91" y="140.17" width="33.1" height="5.93"/><rect class="cls-7" x="1507.91" y="150.78" width="49.91" height="5.93"/><rect class="cls-7" x="1507.91" y="161.39" width="61.55" height="5.93"/><rect class="cls-7" x="1507.91" y="172" width="23.53" height="5.93"/><rect class="cls-14" x="1160.59" y="211.63" width="33.1" height="5.93"/><rect class="cls-7" x="1160.59" y="222.24" width="49.91" height="5.93"/><rect class="cls-7" x="1160.59" y="232.85" width="61.55" height="5.93"/><rect class="cls-7" x="1160.59" y="243.46" width="23.53" height="5.93"/><rect class="cls-28" x="1243.17" y="419.82" width="141.1" height="18.32"/><rect class="cls-28" x="1311.23" y="275.55" width="6.78" height="41.61"/><circle class="cls-9" cx="1586.79" cy="369.51" r="23.38" transform="matrix(0.99, -0.16, 0.16, 0.99, -38.59, 257.36)"/><path class="cls-29" d="M1585.09,367.32l-9.29,3.4,9.29,3.38v3.48l-13.27-5v-3.63l13.27-5.05Z"/><path class="cls-29" d="M1588.12,363.86l13.28,5.05v3.63l-13.28,5V374.1l9.29-3.38-9.29-3.4Z"/><path class="cls-30" d="M1625.77,388.62a3.06,3.06,0,1,1-3-3.06A3.06,3.06,0,0,1,1625.77,388.62Z"/><rect class="cls-28" x="1235.71" y="167.47" width="110.57" height="11.53"/><rect class="cls-11" x="1240.46" y="171.2" width="68.52" height="3.39"/><rect class="cls-13" x="1329.77" y="257.46" width="80.95" height="4.07"/><rect class="cls-14" x="1329.77" y="257.46" width="36.69" height="4.07"/><rect class="cls-13" x="1329.77" y="267.98" width="80.95" height="4.07"/><rect class="cls-9" x="1329.77" y="267.98" width="56.36" height="4.07"/><rect class="cls-13" x="1329.77" y="278.49" width="80.95" height="4.07"/><rect class="cls-31" x="1329.77" y="278.49" width="16.51" height="4.07"/><rect class="cls-13" x="1330.11" y="250.34" width="1.58" height="1.58"/><rect class="cls-13" x="1335.54" y="250.34" width="1.58" height="1.58"/><rect class="cls-13" x="1340.97" y="250.34" width="1.58" height="1.58"/><rect class="cls-4" x="1480.75" y="305.78" width="2.64" height="2.64"/><rect class="cls-4" x="1489.79" y="305.78" width="2.64" height="2.64"/><rect class="cls-4" x="1498.84" y="305.78" width="2.64" height="2.64"/><rect class="cls-4" x="1518.83" y="200.95" width="4.95" height="4.95"/><rect class="cls-4" x="1535.79" y="200.95" width="4.95" height="4.95"/><rect class="cls-4" x="1552.75" y="200.95" width="4.95" height="4.95"/><rect class="cls-4" x="1448.73" y="405.36" width="4.95" height="4.95"/><rect class="cls-4" x="1465.69" y="405.36" width="4.95" height="4.95"/><rect class="cls-4" x="1482.65" y="405.36" width="4.95" height="4.95"/><rect class="cls-4" x="1241.21" y="268.39" width="2.64" height="2.64"/><rect class="cls-4" x="1250.25" y="268.39" width="2.64" height="2.64"/><rect class="cls-4" x="1259.3" y="268.39" width="2.64" height="2.64"/><rect class="cls-4" x="1567.2" y="265.15" width="43.87" height="4.3"/><rect class="cls-32" x="1567.2" y="272.73" width="13.02" height="4.3"/><polygon class="cls-31" points="1213.32 273.97 1203.82 273.97 1203.82 264.48 1195.01 264.48 1195.01 273.97 1185.51 273.97 1185.51 282.79 1195.01 282.79 1195.01 292.29 1203.82 292.29 1203.82 282.79 1213.32 282.79 1213.32 273.97"/><polygon class="cls-14" points="1187.91 300.43 1182.12 300.43 1182.12 294.64 1176.74 294.64 1176.74 300.43 1170.95 300.43 1170.95 305.81 1176.74 305.81 1176.74 311.6 1182.12 311.6 1182.12 305.81 1187.91 305.81 1187.91 300.43"/><path class="cls-13" d="M1346.41,295.37a14.86,14.86,0,1,0,14.85,14.85A14.85,14.85,0,0,0,1346.41,295.37Zm0,22.59a7.74,7.74,0,1,1,7.74-7.74A7.73,7.73,0,0,1,1346.41,318Z"/><path class="cls-11" d="M1336.3,308.76a3.62,3.62,0,0,0,3.21-2.05,7.73,7.73,0,0,1,13.79,0,3.64,3.64,0,0,0,3.22,2.05h0a3.55,3.55,0,0,0,3.23-5.06,14.85,14.85,0,0,0-26.69,0,3.55,3.55,0,0,0,3.24,5.06Z"/><path class="cls-13" d="M1371.35,310.22a14.86,14.86,0,1,0,14.86-14.85A14.86,14.86,0,0,0,1371.35,310.22Zm22.6,0a7.74,7.74,0,1,1-7.74-7.74A7.74,7.74,0,0,1,1394,310.22Z"/><path class="cls-9" d="M1384.74,320.33a3.62,3.62,0,0,0-2-3.21,7.74,7.74,0,0,1,0-13.79,3.64,3.64,0,0,0,2-3.22h0a3.55,3.55,0,0,0-5.06-3.23,14.85,14.85,0,0,0,0,26.69,3.55,3.55,0,0,0,5.06-3.24Z"/><rect class="cls-28" x="1276.86" y="251.59" width="27.13" height="65.12"/><rect class="cls-31" x="1280.71" y="264.14" width="7.91" height="2.34"/><rect class="cls-31" x="1280.71" y="269.35" width="7.91" height="2.34"/><rect class="cls-31" x="1280.71" y="274.57" width="7.91" height="2.34"/><rect class="cls-31" x="1280.71" y="301.71" width="7.91" height="2.34"/><rect class="cls-31" x="1280.71" y="282.23" width="11.53" height="2.34"/><rect class="cls-4" x="1280.71" y="287.44" width="11.53" height="2.34"/><rect class="cls-4" x="1280.71" y="292.66" width="11.53" height="2.34"/><rect class="cls-11" x="1179.63" y="332.99" width="34.37" height="34.37"/><rect class="cls-28" x="1161.54" y="341.13" width="34.37" height="34.37"/><rect class="cls-28" x="1588.46" y="432.48" width="14.47" height="14.47"/><polyline class="cls-16" points="1414.8 409.64 1427.01 409.64 1433.79 416.43 1504.34 416.43 1515.19 405.57 1553.18 405.57"/><circle class="cls-16" cx="1411.23" cy="409.82" r="3.56"/><circle class="cls-16" cx="1556.86" cy="405.41" r="3.56"/><path class="cls-11" d="M1604.74,218.12a4.53,4.53,0,1,1-4.52-4.52A4.52,4.52,0,0,1,1604.74,218.12Z"/><path class="cls-9" d="M1186.86,394.5a4.52,4.52,0,1,1-4.52-4.53A4.52,4.52,0,0,1,1186.86,394.5Z"/><path class="cls-9" d="M1207.67,411.23a7.92,7.92,0,1,1-7.92-7.92A7.92,7.92,0,0,1,1207.67,411.23Z"/><rect class="cls-28" x="1445.55" y="437.91" width="31.66" height="7.24"/><rect class="cls-28" x="1445.55" y="451.48" width="69.42" height="7.24"/><line class="cls-33" x1="1251.61" y1="444.84" x2="1243.94" y2="452.51"/><line class="cls-33" x1="1258.99" y1="444.84" x2="1251.32" y2="452.51"/><line class="cls-33" x1="1266.37" y1="444.84" x2="1258.7" y2="452.51"/><line class="cls-33" x1="1273.75" y1="444.84" x2="1266.07" y2="452.51"/><line class="cls-33" x1="1281.12" y1="444.84" x2="1273.45" y2="452.51"/></svg>